{
.appVersion = "3114";
classes = (
{
code = "";
name = all_but_space;
}
);
copyright = "Copyright 2015 The Public Sans Project Authors (https://github.com/uswds/public-sans)";
customParameters = (
{
name = fsType;
value = (
);
},
{
name = "Use Typo Metrics";
value = 1;
},
{
name = "Variable Font Origin";
value = "91AB5BCA-6A50-42DA-B2F7-8181BF189245";
},
{
name = "Disable Last Change";
value = 1;
},
{
name = "Use Line Breaks";
value = 1;
},
{
name = licenseURL;
value = "SIL Open Font License, Version 1.1: https://scripts.sil.org/cms/scripts/page.php?site_id=nrsi&id=OFL_web; USWDS Modified Version: https://github.com/uswds/public-sans/blob/master/LICENSE.md";
},
{
name = license;
value = "This Font Software is licensed under the SIL Open Font License, Version 1.1. This license is available with a FAQ at: https://scripts.sil.org/OFL. The license for USWDS’s Modified Version, covering USWDS’s modifications to Public Sans, is available at https://github.com/uswds/public-sans/blob/master/LICENSE.md.";
},
{
name = description;
value = "Public Sans is based on Libre Franklin, which is a reinterpretation and expansion of the 1912 Morris Fuller Benton’s classic.";
},
{
name = Axes;
value = (
{
Name = Weight;
Tag = wght;
}
);
}
);
date = "2020-07-15 15:46:26 +0000";
designer = "The Public Sans project authors (U.S. Web Design System). Libre Franklin designed by Pablo Impallari and Rodrigo Fuenzalida.";
designerURL = "https://designsystem.digital.gov and http://www.impallari.com";
familyName = "Public Sans";
featurePrefixes = (
{
automatic = 1;
code = "languagesystem DFLT dflt;

languagesystem latn dflt;
languagesystem latn AZE;
languagesystem latn CRT;
languagesystem latn KAZ;
languagesystem latn TAT;
languagesystem latn TRK;
languagesystem latn ROM;
languagesystem latn MOL;
languagesystem latn CAT;
";
name = Languagesystems;
}
);
features = (
{
automatic = 1;
code = "feature locl;
feature subs;
feature sinf;
feature sups;
feature numr;
feature dnom;
feature frac;

glyphs = (
{
color = 6;
glyphname = A;
layers = (
{
anchors = (
{
name = bottom;
position = "{742, 0}";
},
{
name = ogonek;
position = "{1406, 10}";
},
{
name = top;
position = "{742, 1446}";
}
);
layerId = "258ED206-D907-4350-8EBA-CBDDA1C16BF7";
paths = (
{
closed = 1;
nodes = (
"418 0 LINE",
"516 280 LINE",
"972 280 LINE",
"1068 0 LINE",
"1452 0 LINE",
"940 1446 LINE",
"542 1446 LINE",
"30 0 LINE"
);
},
{
closed = 1;
nodes = (
"742 1074 LINE",
"884 612 LINE",
"598 612 LINE"
);
}
);
width = 1482;
},
{
anchors = (
{
name = bottom;
position = "{694, 0}";
},
{
name = ogonek;
position = "{1274, 24}";
},
{
name = top;
position = "{694, 1446}";
}
);
layerId = "91AB5BCA-6A50-42DA-B2F7-8181BF189245";
paths = (
{
closed = 1;
nodes = (
"194 0 LINE",
"361 456 LINE",
"1025 456 LINE",
"1192 0 LINE",
"1278 0 LINE",
"750 1446 LINE",
"639 1446 LINE",
"110 0 LINE"
);
},
{
closed = 1;
nodes = (
"693 1365 LINE",
"994 542 LINE",
"392 542 LINE"
);
}
);
width = 1388;
}
);
leftKerningGroup = A;
leftMetricsKey = X;
rightKerningGroup = A;
rightMetricsKey = X;
unicode = 0041;
},
{
color = 6;
glyphname = AE;
layers = (
{
anchors = (
{
name = top;
position = "{1382, 1446}";
}
);
layerId = "258ED206-D907-4350-8EBA-CBDDA1C16BF7";
paths = (
{
closed = 1;
nodes = (
"388 0 LINE",
"526 280 LINE",
"966 280 LINE",
"966 0 LINE",
"2110 0 LINE",
"2110 320 LINE",
"1410 320 LINE",
"1410 570 LINE",
"1980 570 LINE",
"1980 884 LINE",
"1410 884 LINE",
"1410 1128 LINE",
"2090 1128 LINE",
"2092 1446 LINE",
"750 1446 LINE",
"0 0 LINE"
);
},
{
closed = 1;
nodes = (
"966 1202 LINE",
"966 612 LINE",
"668 612 LINE"
);
}
);
width = 2200;
},
{
anchors = (
{
name = top;
position = "{1234, 1446}";
}
);
layerId = "91AB5BCA-6A50-42DA-B2F7-8181BF189245";
paths = (
{
closed = 1;
nodes = (
"84 0 LINE",
"350 464 LINE",
"872 464 LINE",
"872 0 LINE",
"1682 0 LINE",
"1682 78 LINE",
"960 78 LINE",
"960 692 LINE",
"1602 692 LINE",
"1602 770 LINE",
"960 770 LINE",
"960 1368 LINE",
"1654 1368 LINE",
"1654 1446 LINE",
"826 1446 LINE",
"0 0 LINE"
);
},
{
closed = 1;
nodes = (
"872 1370 LINE",
"872 542 LINE",
"388 542 LINE"
);
}
);
width = 1817;
}
);
leftKerningGroup = AE;
rightKerningGroup = E;
rightMetricsKey = E;
unicode = 00C6;
},
{
color = 6;
glyphname = B;
layers = (
{
layerId = "258ED206-D907-4350-8EBA-CBDDA1C16BF7";
rightMetricsKey = "=H/2";
paths = (
{
closed = 1;
nodes = (
"745 0 LINE SMOOTH",
"1165 0 OFFCURVE",
"1327 124 OFFCURVE",
"1327 394 CURVE",
"1327 502 OFFCURVE",
"1312 668 OFFCURVE",
"1059 744 CURVE",
"1237 832 OFFCURVE",
"1293 930 OFFCURVE",
"1293 1064 CURVE SMOOTH",
"1293 1310 OFFCURVE",
"1117 1446 OFFCURVE",
"713 1446 CURVE SMOOTH",
"135 1446 LINE",
"135 0 LINE"
);
},
{
closed = 1;
nodes = (
"524 582 LINE",
"769 582 LINE",
"867 582 OFFCURVE",
"931 522 OFFCURVE",
"931 442 CURVE SMOOTH",
"931 366 OFFCURVE",
"873 292 OFFCURVE",
"759 292 CURVE",
"524 292 LINE"
);
},
{
closed = 1;
nodes = (
"524 1154 LINE",
"755 1154 LINE SMOOTH",
"847 1154 OFFCURVE",
"919 1100 OFFCURVE",
"919 1014 CURVE SMOOTH",
"919 938 OFFCURVE",
"861 882 OFFCURVE",
"769 882 CURVE SMOOTH",
"524 882 LINE"
);
}
);
width = 1395;
},
{
layerId = "91AB5BCA-6A50-42DA-B2F7-8181BF189245";
rightMetricsKey = "=H/1.6";
paths = (
{
closed = 1;
nodes = (
"632 0 LINE",
"974 0 OFFCURVE",
"1174 128 OFFCURVE",
"1174 386 CURVE",
"1174 578 OFFCURVE",
"1066 698 OFFCURVE",
"852 734 CURVE",
"1060 794 OFFCURVE",
"1138 908 OFFCURVE",
"1138 1072 CURVE SMOOTH",
"1138 1314 OFFCURVE",
"950 1446 OFFCURVE",
"626 1446 CURVE SMOOTH",
"220 1446 LINE",
"220 0 LINE"
);
},
{
closed = 1;
nodes = (
"298 690 LINE",
"650 690 LINE SMOOTH",
"894 690 OFFCURVE",
"1096 608 OFFCURVE",
"1096 374 CURVE SMOOTH",
"1096 162 OFFCURVE",
"930 82 OFFCURVE",
"622 82 CURVE",
"298 82 LINE"
);
},
{
closed = 1;
nodes = (
"298 1366 LINE",
"618 1366 LINE SMOOTH",
"882 1366 OFFCURVE",
"1060 1274 OFFCURVE",
"1060 1062 CURVE SMOOTH",
"1060 824 OFFCURVE",
"830 772 OFFCURVE",
"650 772 CURVE SMOOTH",
"298 772 LINE"
);
}
);
width = 1312;
}
);
leftKerningGroup = N;
leftMetricsKey = H;
rightKerningGroup = B;
unicode = 0042;
},
{
color = 6;
glyphname = C;
layers = (
{
anchors = (
{
name = bottom;
position = "{777, 0}";
},
{
name = top;
position = "{777, 1446}";
}
);
layerId = "258ED206-D907-4350-8EBA-CBDDA1C16BF7";
paths = (
{
closed = 1;
nodes = (
"1239 -20 OFFCURVE",
"1365 240 OFFCURVE",
"1405 540 CURVE",
"999 540 LINE",
"977 406 OFFCURVE",
"897 292 OFFCURVE",
"764 292 CURVE SMOOTH",
"617 292 OFFCURVE",
"512 414 OFFCURVE",
"512 736 CURVE SMOOTH",
"512 1054 OFFCURVE",
"617 1154 OFFCURVE",
"764 1154 CURVE SMOOTH",
"897 1154 OFFCURVE",
"977 1070 OFFCURVE",
"999 936 CURVE",
"1405 936 LINE",
"1373 1248 OFFCURVE",
"1121 1466 OFFCURVE",
"777 1466 CURVE SMOOTH",
"355 1466 OFFCURVE",
"85 1182 OFFCURVE",
"85 742 CURVE SMOOTH",
"85 302 OFFCURVE",
"359 -20 OFFCURVE",
"777 -20 CURVE SMOOTH"
);
}
);
width = 1490;
},
{
anchors = (
{
name = bottom;
position = "{700, 0}";
},
{
name = top;
position = "{686, 1446}";
}
);
layerId = "91AB5BCA-6A50-42DA-B2F7-8181BF189245";
paths = (
{
closed = 1;
nodes = (
"979 -20 OFFCURVE",
"1173 191 OFFCURVE",
"1198 411 CURVE",
"1110 411 LINE",
"1072 223 OFFCURVE",
"934 62 OFFCURVE",
"694 62 CURVE SMOOTH",
"369 62 OFFCURVE",
"208 276 OFFCURVE",
"208 720 CURVE SMOOTH",
"208 1164 OFFCURVE",
"369 1384 OFFCURVE",
"694 1384 CURVE SMOOTH",
"934 1384 OFFCURVE",
"1072 1222 OFFCURVE",
"1110 1034 CURVE",
"1198 1034 LINE",
"1174 1256 OFFCURVE",
"979 1466 OFFCURVE",
"694 1466 CURVE SMOOTH",
"319 1466 OFFCURVE",
"120 1208 OFFCURVE",
"120 720 CURVE SMOOTH",
"120 232 OFFCURVE",
"319 -20 OFFCURVE",
"694 -20 CURVE SMOOTH"
);
}
);
width = 1318;
}
);
leftKerningGroup = O;
leftMetricsKey = O;
rightKerningGroup = C;
rightMetricsKey = O;
unicode = 0043;
},
{
color = 3;
glyphname = Ccedilla;
layers = (
{
anchors = (
{
name = _bottom;
position = "{777, 0}";
}
);
components = (
{
name = C;
}
);
layerId = "258ED206-D907-4350-8EBA-CBDDA1C16BF7";
paths = (
{
closed = 1;
nodes = (
"925 -438 OFFCURVE",
"1047 -372 OFFCURVE",
"1047 -268 CURVE SMOOTH",
"1047 -194 OFFCURVE",
"987 -104 OFFCURVE",
"823 -104 CURVE",
"865 10 LINE",
"707 10 LINE",
"633 -162 LINE SMOOTH",
"623 -184 OFFCURVE",
"633 -186 OFFCURVE",
"653 -186 CURVE SMOOTH",
"787 -186 OFFCURVE",
"831 -214 OFFCURVE",
"831 -262 CURVE SMOOTH",
"831 -294 OFFCURVE",
"793 -314 OFFCURVE",
"739 -314 CURVE SMOOTH",
"681 -314 OFFCURVE",
"617 -288 OFFCURVE",
"569 -262 CURVE",
"521 -380 LINE",
"599 -426 OFFCURVE",
"693 -438 OFFCURVE",
"787 -438 CURVE SMOOTH"
);
}
);
width = 1490;
},
{
anchors = (
{
name = _bottom;
position = "{700, 0}";
}
);
components = (
{
name = C;
}
);
layerId = "91AB5BCA-6A50-42DA-B2F7-8181BF189245";
paths = (
{
closed = 1;
nodes = (
"754 -398 OFFCURVE",
"842 -350 OFFCURVE",
"842 -252 CURVE SMOOTH",
"842 -190 OFFCURVE",
"808 -124 OFFCURVE",
"686 -114 CURVE",
"736 10 LINE",
"670 10 LINE",
"598 -154 LINE SMOOTH",
"596 -158 OFFCURVE",
"596 -162 OFFCURVE",
"606 -162 CURVE SMOOTH",
"708 -166 OFFCURVE",
"756 -194 OFFCURVE",
"756 -256 CURVE SMOOTH",
"756 -310 OFFCURVE",
"722 -340 OFFCURVE",
"640 -340 CURVE SMOOTH",
"580 -340 OFFCURVE",
"548 -322 OFFCURVE",
"520 -296 CURVE",
"498 -352 LINE",
"540 -382 OFFCURVE",
"588 -398 OFFCURVE",
"648 -398 CURVE SMOOTH"
);
}
);
width = 1318;
}
);
leftKerningGroup = O;
rightKerningGroup = C;
unicode = 00C7;
},
{
color = 6;
glyphname = D;
layers = (
{
anchors = (
{
name = bottom;
position = "{705, 0}";
},
{
name = center;
position = "{743, 724}";
},
{
name = top;
position = "{743, 1446}";
}
);
layerId = "258ED206-D907-4350-8EBA-CBDDA1C16BF7";
paths = (
{
closed = 1;
nodes = (
"653 0 LINE SMOOTH",
"1165 0 OFFCURVE",
"1403 306 OFFCURVE",
"1403 728 CURVE SMOOTH",
"1403 1138 OFFCURVE",
"1177 1426 OFFCURVE",
"655 1444 CURVE SMOOTH",
"529 1448 OFFCURVE",
"177 1446 OFFCURVE",
"135 1446 CURVE",
"135 0 LINE"
);
},
{
closed = 1;
nodes = (
"524 1140 LINE",
"665 1140 LINE SMOOTH",
"863 1140 OFFCURVE",
"997 1000 OFFCURVE",
"997 734 CURVE SMOOTH",
"997 420 OFFCURVE",
"812 306 OFFCURVE",
"665 306 CURVE SMOOTH",
"524 306 LINE"
);
}
);
width = 1488;
},
{
anchors = (
{
name = bottom;
position = "{714, 0}";
},
{
name = center;
position = "{662, 724}";
},
{
name = top;
position = "{650, 1446}";
}
);
layerId = "91AB5BCA-6A50-42DA-B2F7-8181BF189245";
paths = (
{
closed = 1;
nodes = (
"432 0 LINE SMOOTH",
"964 0 OFFCURVE",
"1214 224 OFFCURVE",
"1214 734 CURVE SMOOTH",
"1214 1216 OFFCURVE",
"996 1442 OFFCURVE",
"460 1444 CURVE SMOOTH",
"340 1444 OFFCURVE",
"224 1446 OFFCURVE",
"220 1446 CURVE",
"220 0 LINE"
);
},
{
closed = 1;
nodes = (
"306 1364 LINE",
"438 1364 LINE SMOOTH",
"880 1364 OFFCURVE",
"1130 1224 OFFCURVE",
"1130 726 CURVE SMOOTH",
"1130 254 OFFCURVE",
"894 82 OFFCURVE",
"426 82 CURVE SMOOTH",
"306 82 LINE"
);
}
);
width = 1334;
}
);
leftKerningGroup = N;
leftMetricsKey = H;
rightKerningGroup = D;
rightMetricsKey = "=O";
unicode = 0044;
},
{
color = 3;
glyphname = Eth;
layers = (
{
components = (
{
name = D;
transform = "{1, 0, 0, 1, 86, 0}";
}
);
layerId = "258ED206-D907-4350-8EBA-CBDDA1C16BF7";
paths = (
{
closed = 1;
nodes = (
"866 577 LINE",
"866 851 LINE",
"70 851 LINE",
"70 577 LINE"
);
}
);
width = 1574;
},
{
components = (
{
name = D;
transform = "{1, 0, 0, 1, -4, 0}";
}
);
layerId = "91AB5BCA-6A50-42DA-B2F7-8181BF189245";
paths = (
{
closed = 1;
nodes = (
"668 688 LINE",
"668 769 LINE",
"70 769 LINE",
"70 688 LINE"
);
}
);
width = 1330;
}
);
leftKerningGroup = N;
rightKerningGroup = D;
rightMetricsKey = D;
unicode = 00D0;
},
{
color = 6;
glyphname = E;
layers = (
{
anchors = (
{
name = bottom;
position = "{669, 0}";
},
{
name = ogonek;
position = "{1203, 20}";
},
{
name = top;
position = "{669, 1446}";
}
);
layerId = "258ED206-D907-4350-8EBA-CBDDA1C16BF7";
paths = (
{
closed = 1;
nodes = (
"1205 0 LINE",
"1205 324 LINE",
"524 324 LINE",
"524 570 LINE",
"1091 570 LINE",
"1091 884 LINE",
"527 884 LINE",
"527 1124 LINE",
"1201 1124 LINE",
"1203 1446 LINE",
"135 1446 LINE",
"135 0 LINE"
);
}
);
width = 1295;
},
{
anchors = (
{
name = bottom;
position = "{694, 0}";
},
{
name = ogonek;
position = "{1068, 20}";
},
{
name = top;
position = "{640, 1446}";
}
);
layerId = "91AB5BCA-6A50-42DA-B2F7-8181BF189245";
rightMetricsKey = "=135";
paths = (
{
closed = 1;
nodes = (
"1078 0 LINE",
"1078 82 LINE",
"298 84 LINE",
"298 690 LINE",
"998 690 LINE",
"998 772 LINE",
"298 772 LINE",
"298 1366 LINE",
"1050 1366 LINE",
"1050 1446 LINE",
"220 1446 LINE",
"220 0 LINE"
);
}
);
width = 1213;
}
);
leftKerningGroup = N;
leftMetricsKey = H;
rightKerningGroup = E;
rightMetricsKey = "=H/1.5";
unicode = 0045;
},
{
color = 6;
glyphname = F;
layers = (
{
layerId = "258ED206-D907-4350-8EBA-CBDDA1C16BF7";
paths = (
{
closed = 1;
nodes = (
"524 0 LINE",
"524 558 LINE",
"1083 558 LINE",
"1083 868 LINE",
"524 868 LINE",
"524 1128 LINE",
"1193 1128 LINE",
"1195 1446 LINE",
"135 1446 LINE",
"135 0 LINE"
);
}
);
width = 1263;
},
{
layerId = "91AB5BCA-6A50-42DA-B2F7-8181BF189245";
paths = (
{
closed = 1;
nodes = (
"306 0 LINE",
"306 692 LINE",
"986 692 LINE",
"986 774 LINE",
"306 774 LINE",
"306 1366 LINE",
"1038 1366 LINE",
"1038 1446 LINE",
"220 1446 LINE",
"220 0 LINE"
);
}
);
width = 1148;
}
);
leftKerningGroup = N;
leftMetricsKey = H;
rightKerningGroup = F;
rightMetricsKey = "=H/2";
unicode = 0046;
},
{
color = 6;
glyphname = G;
layers = (
{
anchors = (
{
name = bottom;
position = "{773, 0}";
},
{
name = top;
position = "{781, 1446}";
}
);
layerId = "258ED206-D907-4350-8EBA-CBDDA1C16BF7";
rightMetricsKey = "=O*1.5";
paths = (
{
closed = 1;
nodes = (
"1008 -20 OFFCURVE",
"1109 86 OFFCURVE",
"1182 160 CURVE",
"1182 0 LINE",
"1437 0 LINE",
"1437 764 LINE",
"775 768 LINE",
"775 506 LINE",
"1027 506 LINE",
"1010 454 LINE",
"989 388 OFFCURVE",
"909 318 OFFCURVE",
"800 318 CURVE SMOOTH",
"676 318 OFFCURVE",
"510 376 OFFCURVE",
"510 730 CURVE SMOOTH",
"510 1042 OFFCURVE",
"640 1144 OFFCURVE",
"783 1144 CURVE SMOOTH",
"919 1144 OFFCURVE",
"993 1054 OFFCURVE",
"1019 936 CURVE",
"1426 936 LINE",
"1421 1206 OFFCURVE",
"1182 1466 OFFCURVE",
"793 1466 CURVE SMOOTH",
"377 1466 OFFCURVE",
"85 1168 OFFCURVE",
"85 718 CURVE SMOOTH",
"85 282 OFFCURVE",
"357 -20 OFFCURVE",
"769 -20 CURVE SMOOTH"
);
}
);
width = 1565;
},
{
anchors = (
{
name = bottom;
position = "{696, 0}";
},
{
name = top;
position = "{698, 1446}";
}
);
layerId = "91AB5BCA-6A50-42DA-B2F7-8181BF189245";
paths = (
{
closed = 1;
nodes = (
"920 -20 OFFCURVE",
"1068 100 OFFCURVE",
"1146 252 CURVE",
"1146 0 LINE",
"1224 0 LINE",
"1224 736 LINE",
"742 736 LINE",
"742 666 LINE",
"1146 666 LINE",
"1146 498 LINE SMOOTH",
"1146 314 OFFCURVE",
"1006 58 OFFCURVE",
"697 58 CURVE SMOOTH",
"392 58 OFFCURVE",
"202 276 OFFCURVE",
"202 720 CURVE SMOOTH",
"202 1164 OFFCURVE",
"392 1384 OFFCURVE",
"697 1384 CURVE SMOOTH",
"906 1384 OFFCURVE",
"1076 1216 OFFCURVE",
"1106 1034 CURVE",
"1194 1034 LINE",
"1172 1262 OFFCURVE",
"938 1466 OFFCURVE",
"697 1466 CURVE SMOOTH",
"332 1466 OFFCURVE",
"120 1202 OFFCURVE",
"120 720 CURVE SMOOTH",
"120 234 OFFCURVE",
"332 -20 OFFCURVE",
"697 -20 CURVE SMOOTH"
);
}
);
width = 1414;
}
);
leftKerningGroup = O;
leftMetricsKey = O;
rightKerningGroup = G;
rightMetricsKey = "=H-30";
unicode = 0047;
},
{
color = 6;
glyphname = H;
layers = (
{
anchors = (
{
name = bottom;
position = "{774, 0}";
},
{
name = top;
position = "{777, 1446}";
}
);
layerId = "258ED206-D907-4350-8EBA-CBDDA1C16BF7";
paths = (
{
closed = 1;
nodes = (
"524 0 LINE",
"524 580 LINE",
"1023 580 LINE",
"1023 0 LINE",
"1412 0 LINE",
"1412 1446 LINE",
"1023 1446 LINE",
"1023 898 LINE",
"524 898 LINE",
"524 1446 LINE",
"135 1446 LINE",
"135 0 LINE"
);
}
);
width = 1547;
},
{
anchors = (
{
name = bottom;
position = "{785, 0}";
},
{
name = top;
position = "{757, 1458}";
}
);
layerId = "91AB5BCA-6A50-42DA-B2F7-8181BF189245";
paths = (
{
closed = 1;
nodes = (
"298 0 LINE",
"298 712 LINE",
"1226 712 LINE",
"1226 0 LINE",
"1304 0 LINE",
"1304 1446 LINE",
"1226 1446 LINE",
"1226 794 LINE",
"298 794 LINE",
"298 1446 LINE",
"220 1446 LINE",
"220 0 LINE"
);
}
);
width = 1524;
}
);
leftKerningGroup = N;
rightKerningGroup = N;
unicode = 0048;
},
{
color = 3;
glyphname = Hbar;
layers = (
{
components = (
{
name = H;
transform = "{1, 0, 0, 1, 90, 0}";
}
);
layerId = "258ED206-D907-4350-8EBA-CBDDA1C16BF7";
paths = (
{
closed = 1;
nodes = (
"1668 1082 LINE",
"1668 1284 LINE",
"40 1284 LINE",
"40 1082 LINE"
);
}
);
width = 1708;
},
{
components = (
{
name = H;
transform = "{1, 0, 0, 1, 2, 0}";
}
);
layerId = "91AB5BCA-6A50-42DA-B2F7-8181BF189245";
paths = (
{
closed = 1;
nodes = (
"1498 1128 LINE",
"1498 1206 LINE",
"20 1206 LINE",
"20 1128 LINE"
);
}
);
width = 1518;
}
);
leftKerningGroup = N;
rightKerningGroup = N;
unicode = 0126;
},
{
color = 6;
glyphname = I;
layers = (
{
anchors = (
{
name = bottom;
position = "{351, 0}";
},
{
name = ogonek;
position = "{477, 8}";
},
{
name = top;
position = "{331, 1446}";
}
);
layerId = "258ED206-D907-4350-8EBA-CBDDA1C16BF7";
paths = (
{
closed = 1;
nodes = (
"524 0 LINE",
"524 1446 LINE",
"135 1446 LINE",
"135 0 LINE"
);
}
);
width = 659;
},
{
anchors = (
{
name = bottom;
position = "{262, 0}";
},
{
name = ogonek;
position = "{288, 20}";
},
{
name = top;
position = "{260, 1446}";
}
);
layerId = "91AB5BCA-6A50-42DA-B2F7-8181BF189245";
paths = (
{
closed = 1;
nodes = (
"298 0 LINE",
"298 1446 LINE",
"220 1446 LINE",
"220 0 LINE"
);
}
);
width = 518;
}
);
leftKerningGroup = N;
leftMetricsKey = H;
rightKerningGroup = N;
rightMetricsKey = H;
unicode = 0049;
},
{
color = 6;
glyphname = J;
layers = (
{
anchors = (
{
name = top;
position = "{516, 1446}";
}
);
layerId = "258ED206-D907-4350-8EBA-CBDDA1C16BF7";
paths = (
{
closed = 1;
nodes = (
"642 -20 OFFCURVE",
"720 138 OFFCURVE",
"720 458 CURVE SMOOTH",
"720 1446 LINE",
"330 1446 LINE",
"330 558 LINE SMOOTH",
"330 408 OFFCURVE",
"296 340 OFFCURVE",
"158 340 CURVE SMOOTH",
"116 340 OFFCURVE",
"66 346 OFFCURVE",
"30 350 CURVE",
"30 0 LINE",
"90 -12 OFFCURVE",
"210 -20 OFFCURVE",
"292 -20 CURVE SMOOTH"
);
}
);
width = 828;
},
{
anchors = (
{
name = top;
position = "{534, 1446}";
}
);
layerId = "91AB5BCA-6A50-42DA-B2F7-8181BF189245";
paths = (
{
closed = 1;
nodes = (
"518 -20 OFFCURVE",
"574 96 OFFCURVE",
"574 280 CURVE SMOOTH",
"574 1446 LINE",
"496 1446 LINE",
"496 308 LINE SMOOTH",
"496 126 OFFCURVE",
"452 62 OFFCURVE",
"326 62 CURVE SMOOTH",
"224 62 OFFCURVE",
"174 104 OFFCURVE",
"130 124 CURVE",
"110 38 LINE",
"124 26 OFFCURVE",
"216 -20 OFFCURVE",
"330 -20 CURVE SMOOTH"
);
}
);
width = 750;
}
);
leftKerningGroup = J;
leftMetricsKey = X;
rightKerningGroup = U;
rightMetricsKey = U;
unicode = 004A;
},
{
color = 6;
glyphname = K;
layers = (
{
anchors = (
{
name = bottom;
position = "{719, 0}";
},
{
name = top;
position = "{745, 1446}";
}
);
layerId = "258ED206-D907-4350-8EBA-CBDDA1C16BF7";
paths = (
{
closed = 1;
nodes = (
"539 0 LINE",
"539 378 LINE",
"719 610 LINE",
"1041 0 LINE",
"1459 0 LINE",
"997 894 LINE",
"1394 1446 LINE",
"957 1446 LINE",
"539 862 LINE",
"539 1446 LINE",
"135 1446 LINE",
"135 0 LINE"
);
}
);
width = 1497;
},
{
anchors = (
{
name = bottom;
position = "{664, 0}";
},
{
name = top;
position = "{698, 1446}";
}
);
layerId = "91AB5BCA-6A50-42DA-B2F7-8181BF189245";
rightMetricsKey = "=X/1.25";
paths = (
{
closed = 1;
nodes = (
"302 0 LINE",
"302 497 LINE",
"590 812 LINE",
"1108 0 LINE",
"1207 0 LINE",
"649 869 LINE",
"1178 1446 LINE",
"1070 1446 LINE",
"302 612 LINE",
"302 1446 LINE",
"220 1446 LINE",
"220 0 LINE"
);
}
);
width = 1295;
}
);
leftKerningGroup = N;
leftMetricsKey = H;
rightKerningGroup = K;
rightMetricsKey = "=X*1.25";
unicode = 004B;
},
{
color = 6;
glyphname = L;
layers = (
{
anchors = (
{
name = bottom;
position = "{613, 0}";
},
{
name = caron;
position = "{701, 1446}";
},
{
name = top;
position = "{321, 1446}";
}
);
layerId = "258ED206-D907-4350-8EBA-CBDDA1C16BF7";
rightMetricsKey = "=H/2.5";
paths = (
{
closed = 1;
nodes = (
"1102 0 LINE",
"1102 320 LINE",
"524 320 LINE",
"524 1446 LINE",
"135 1446 LINE",
"135 0 LINE"
);
}
);
width = 1156;
},
{
anchors = (
{
name = bottom;
position = "{620, 0}";
},
{
name = caron;
position = "{630, 1446}";
},
{
name = top;
position = "{266, 1446}";
}
);
layerId = "91AB5BCA-6A50-42DA-B2F7-8181BF189245";
paths = (
{
closed = 1;
nodes = (
"1044 0 LINE",
"1044 86 LINE",
"306 86 LINE",
"306 1446 LINE",
"222 1446 LINE",
"220 0 LINE"
);
}
);
width = 1154;
}
);
leftKerningGroup = N;
leftMetricsKey = H;
rightKerningGroup = L;
rightMetricsKey = X;
unicode = 004C;
},
{
color = 3;
glyphname = Lslash;
layers = (
{
components = (
{
name = L;
transform = "{1, 0, 0, 1, 40, 0}";
}
);
layerId = "258ED206-D907-4350-8EBA-CBDDA1C16BF7";
paths = (
{
closed = 1;
nodes = (
"874 786 LINE",
"874 1088 LINE",
"0 856 LINE",
"0 538 LINE"
);
}
);
width = 1196;
},
{
components = (
{
name = L;
transform = "{1, 0, 0, 1, -10, 0}";
}
);
layerId = "91AB5BCA-6A50-42DA-B2F7-8181BF189245";
paths = (
{
closed = 1;
nodes = (
"604 784 LINE",
"604 856 LINE",
"30 710 LINE",
"30 634 LINE"
);
}
);
width = 1144;
}
);
leftKerningGroup = N;
rightKerningGroup = L;
rightMetricsKey = L;
unicode = 0141;
},
{
color = 6;
glyphname = M;
layers = (
{
layerId = "258ED206-D907-4350-8EBA-CBDDA1C16BF7";
paths = (
{
closed = 1;
nodes = (
"524 0 LINE",
"524 1048 LINE",
"807 0 LINE",
"1087 0 LINE",
"1369 1048 LINE",
"1369 0 LINE",
"1759 0 LINE",
"1759 1446 LINE",
"1183 1446 LINE",
"947 564 LINE",
"713 1446 LINE",
"135 1446 LINE",
"135 0 LINE"
);
}
);
width = 1894;
},
{
layerId = "91AB5BCA-6A50-42DA-B2F7-8181BF189245";
paths = (
{
closed = 1;
nodes = (
"306 0 LINE",
"306 1216 LINE",
"792 0 LINE",
"908 0 LINE",
"1400 1232 LINE",
"1400 0 LINE",
"1486 0 LINE",
"1486 1446 LINE",
"1400 1446 LINE",
"850 88 LINE",
"308 1446 LINE",
"220 1446 LINE",
"220 0 LINE"
);
}
);
width = 1706;
}
);
leftKerningGroup = N;
leftMetricsKey = "=H";
rightKerningGroup = N;
rightMetricsKey = H;
unicode = 004D;
},
{
color = 6;
glyphname = N;
layers = (
{
anchors = (
{
name = bottom;
position = "{807, 0}";
},
{
name = top;
position = "{807, 1446}";
}
);
layerId = "258ED206-D907-4350-8EBA-CBDDA1C16BF7";
paths = (
{
closed = 1;
nodes = (
"524 0 LINE",
"524 862 LINE",
"1129 0 LINE",
"1480 0 LINE",
"1480 1446 LINE",
"1091 1446 LINE",
"1091 640 LINE",
"527 1446 LINE",
"135 1446 LINE",
"135 0 LINE"
);
}
);
width = 1615;
},
{
anchors = (
{
name = bottom;
position = "{678, 0}";
},
{
name = top;
position = "{726, 1446}";
}
);
layerId = "91AB5BCA-6A50-42DA-B2F7-8181BF189245";
paths = (
{
closed = 1;
nodes = (
"298 0 LINE",
"298 1286 LINE",
"1164 0 LINE",
"1232 0 LINE",
"1232 1446 LINE",
"1154 1446 LINE",
"1154 156 LINE",
"284 1446 LINE",
"220 1446 LINE",
"220 0 LINE"
);
}
);
width = 1452;
}
);
leftKerningGroup = N;
leftMetricsKey = H;
rightKerningGroup = N;
rightMetricsKey = H;
unicode = 004E;
},
{
color = 6;
glyphname = Eng;
layers = (
{
anchors = (
{
name = bottom;
position = "{807, 0}";
},
{
name = top;
position = "{807, 1446}";
}
);
layerId = "258ED206-D907-4350-8EBA-CBDDA1C16BF7";
paths = (
{
closed = 1;
nodes = (
"1373 -480 OFFCURVE",
"1479 -356 OFFCURVE",
"1479 0 CURVE SMOOTH",
"1480 1446 LINE",
"1091 1446 LINE",
"1091 640 LINE",
"527 1446 LINE",
"135 1446 LINE",
"135 0 LINE",
"524 0 LINE",
"524 862 LINE",
"1088 58 LINE",
"1088 30 LINE SMOOTH",
"1088 -73 OFFCURVE",
"1032 -120 OFFCURVE",
"917 -120 CURVE SMOOTH",
"875 -120 OFFCURVE",
"825 -114 OFFCURVE",
"789 -110 CURVE",
"789 -460 LINE",
"849 -472 OFFCURVE",
"969 -480 OFFCURVE",
"1051 -480 CURVE SMOOTH"
);
}
);
width = 1615;
},
{
anchors = (
{
name = bottom;
position = "{678, 0}";
},
{
name = top;
position = "{726, 1446}";
}
);
layerId = "91AB5BCA-6A50-42DA-B2F7-8181BF189245";
paths = (
{
closed = 1;
nodes = (
"1176 -480 OFFCURVE",
"1232 -364 OFFCURVE",
"1232 -180 CURVE SMOOTH",
"1232 1446 LINE",
"1154 1446 LINE",
"1154 156 LINE",
"284 1446 LINE",
"220 1446 LINE",
"220 0 LINE",
"298 0 LINE",
"298 1286 LINE",
"1156 12 LINE",
"1156 -152 LINE SMOOTH",
"1156 -334 OFFCURVE",
"1110 -398 OFFCURVE",
"984 -398 CURVE SMOOTH",
"882 -398 OFFCURVE",
"832 -356 OFFCURVE",
"788 -336 CURVE",
"768 -422 LINE",
"782 -434 OFFCURVE",
"874 -480 OFFCURVE",
"988 -480 CURVE SMOOTH"
);
}
);
width = 1452;
}
);
leftKerningGroup = N;
leftMetricsKey = N;
rightKerningGroup = N;
rightMetricsKey = N;
unicode = 014A;
},
{
color = 6;
glyphname = O;
layers = (
{
anchors = (
{
name = bottom;
position = "{789, 0}";
},
{
name = horn;
position = "{1275, 1094}";
},
{
name = ogonek;
position = "{968, 20}";
},
{
name = top;
position = "{785, 1446}";
}
);
layerId = "258ED206-D907-4350-8EBA-CBDDA1C16BF7";
paths = (
{
closed = 1;
nodes = (
"1213 -20 OFFCURVE",
"1485 272 OFFCURVE",
"1485 720 CURVE SMOOTH",
"1485 1172 OFFCURVE",
"1207 1466 OFFCURVE",
"787 1466 CURVE SMOOTH",
"365 1466 OFFCURVE",
"85 1172 OFFCURVE",
"85 720 CURVE SMOOTH",
"85 270 OFFCURVE",
"357 -20 OFFCURVE",
"787 -20 CURVE SMOOTH"
);
},
{
closed = 1;
nodes = (
"627 292 OFFCURVE",
"510 402 OFFCURVE",
"510 714 CURVE SMOOTH",
"510 1036 OFFCURVE",
"627 1154 OFFCURVE",
"787 1154 CURVE SMOOTH",
"947 1154 OFFCURVE",
"1063 1036 OFFCURVE",
"1063 714 CURVE SMOOTH",
"1063 402 OFFCURVE",
"947 292 OFFCURVE",
"787 292 CURVE SMOOTH"
);
}
);
width = 1570;
},
{
anchors = (
{
name = bottom;
position = "{712, 0}";
},
{
name = horn;
position = "{1088, 1212}";
},
{
name = ogonek;
position = "{848, 18}";
},
{
name = top;
position = "{712, 1446}";
}
);
layerId = "91AB5BCA-6A50-42DA-B2F7-8181BF189245";
paths = (
{
closed = 1;
nodes = (
"1074 -20 OFFCURVE",
"1294 239 OFFCURVE",
"1294 720 CURVE SMOOTH",
"1294 1207 OFFCURVE",
"1074 1466 OFFCURVE",
"710 1466 CURVE SMOOTH",
"345 1466 OFFCURVE",
"120 1205 OFFCURVE",
"120 720 CURVE SMOOTH",
"120 237 OFFCURVE",
"345 -20 OFFCURVE",
"710 -20 CURVE SMOOTH"
);
},
{
closed = 1;
nodes = (
"390 62 OFFCURVE",
"208 276 OFFCURVE",
"208 720 CURVE SMOOTH",
"208 1164 OFFCURVE",
"390 1384 OFFCURVE",
"710 1384 CURVE SMOOTH",
"1030 1384 OFFCURVE",
"1206 1167 OFFCURVE",
"1206 720 CURVE SMOOTH",
"1206 277 OFFCURVE",
"1034 62 OFFCURVE",
"710 62 CURVE SMOOTH"
);
}
);
width = 1414;
}
);
leftKerningGroup = O;
rightKerningGroup = O;
unicode = 004F;
},
{
color = 6;
glyphname = Ohorn;
layers = (
{
anchors = (
{
name = bottom;
position = "{712, 0}";
},
{
name = horn;
position = "{1088, 1212}";
},
{
name = ogonek;
position = "{848, 18}";
},
{
name = top;
position = "{712, 1446}";
},
{
name = topright;
position = "{1232, 1292}";
}
);
layerId = "91AB5BCA-6A50-42DA-B2F7-8181BF189245";
paths = (
{
closed = 1;
nodes = (
"1074 -20 OFFCURVE",
"1294 239 OFFCURVE",
"1294 720 CURVE SMOOTH",
"1294 925 OFFCURVE",
"1255 1090 OFFCURVE",
"1183 1211 CURVE",
"1303 1225 OFFCURVE",
"1362 1311 OFFCURVE",
"1362 1470 CURVE",
"1260 1470 LINE",
"1256 1337 OFFCURVE",
"1225 1287 OFFCURVE",
"1134 1281 CURVE",
"1034 1403 OFFCURVE",
"890 1466 OFFCURVE",
"710 1466 CURVE SMOOTH",
"345 1466 OFFCURVE",
"120 1205 OFFCURVE",
"120 720 CURVE SMOOTH",
"120 237 OFFCURVE",
"345 -20 OFFCURVE",
"710 -20 CURVE SMOOTH"
);
},
{
closed = 1;
nodes = (
"390 62 OFFCURVE",
"208 276 OFFCURVE",
"208 720 CURVE SMOOTH",
"208 1164 OFFCURVE",
"390 1384 OFFCURVE",
"710 1384 CURVE SMOOTH",
"1030 1384 OFFCURVE",
"1206 1167 OFFCURVE",
"1206 720 CURVE SMOOTH",
"1206 277 OFFCURVE",
"1034 62 OFFCURVE",
"710 62 CURVE SMOOTH"
);
}
);
width = 1472;
},
{
anchors = (
{
name = bottom;
position = "{789, 0}";
},
{
name = horn;
position = "{1275, 1094}";
},
{
name = ogonek;
position = "{968, 20}";
},
{
name = top;
position = "{785, 1446}";
},
{
name = topright;
position = "{1492, 1274}";
}
);
layerId = "258ED206-D907-4350-8EBA-CBDDA1C16BF7";
paths = (
{
closed = 1;
nodes = (
"1213 -20 OFFCURVE",
"1485 272 OFFCURVE",
"1485 720 CURVE SMOOTH",
"1485 858 OFFCURVE",
"1459 982 OFFCURVE",
"1411 1086 CURVE",
"1660 1088 OFFCURVE",
"1727 1210 OFFCURVE",
"1730 1492 CURVE",
"1496 1492 LINE",
"1476 1257 OFFCURVE",
"1423 1270 OFFCURVE",
"1284 1272 CURVE",
"1163 1396 OFFCURVE",
"992 1466 OFFCURVE",
"787 1466 CURVE SMOOTH",
"365 1466 OFFCURVE",
"85 1172 OFFCURVE",
"85 720 CURVE SMOOTH",
"85 270 OFFCURVE",
"357 -20 OFFCURVE",
"787 -20 CURVE SMOOTH"
);
},
{
closed = 1;
nodes = (
"627 292 OFFCURVE",
"510 402 OFFCURVE",
"510 714 CURVE SMOOTH",
"510 1036 OFFCURVE",
"627 1154 OFFCURVE",
"787 1154 CURVE SMOOTH",
"947 1154 OFFCURVE",
"1063 1036 OFFCURVE",
"1063 714 CURVE SMOOTH",
"1063 402 OFFCURVE",
"947 292 OFFCURVE",
"787 292 CURVE SMOOTH"
);
}
);
width = 1760;
}
);
leftKerningGroup = O;
leftMetricsKey = O;
rightKerningGroup = Ohorn;
unicode = 01A0;
},
{
color = 3;
glyphname = Oogonek;
layers = (
{
anchors = (
{
name = _ogonek;
position = "{968, 20}";
}
);
components = (
{
name = O;
}
);
layerId = "258ED206-D907-4350-8EBA-CBDDA1C16BF7";
paths = (
{
closed = 1;
nodes = (
"900 -340 OFFCURVE",
"992 -312 OFFCURVE",
"1032 -286 CURVE",
"1032 -122 LINE",
"984 -150 OFFCURVE",
"944 -172 OFFCURVE",
"886 -172 CURVE SMOOTH",
"850 -172 OFFCURVE",
"832 -154 OFFCURVE",
"832 -116 CURVE SMOOTH",
"832 -72 OFFCURVE",
"866 -36 OFFCURVE",
"1012 12 CURVE",
"746 12 LINE",
"594 -42 OFFCURVE",
"564 -104 OFFCURVE",
"564 -170 CURVE SMOOTH",
"564 -286 OFFCURVE",
"658 -340 OFFCURVE",
"800 -340 CURVE SMOOTH"
);
}
);
width = 1570;
},
{
anchors = (
{
name = _ogonek;
position = "{848, 18}";
}
);
components = (
{
name = O;
}
);
layerId = "91AB5BCA-6A50-42DA-B2F7-8181BF189245";
paths = (
{
closed = 1;
nodes = (
"822 -334 OFFCURVE",
"886 -316 OFFCURVE",
"916 -300 CURVE",
"916 -238 LINE",
"898 -248 OFFCURVE",
"840 -268 OFFCURVE",
"774 -268 CURVE SMOOTH",
"694 -268 OFFCURVE",
"662 -240 OFFCURVE",
"662 -186 CURVE SMOOTH",
"662 -110 OFFCURVE",
"728 -62 OFFCURVE",
"858 -2 CURVE",
"792 16 LINE",
"628 -32 OFFCURVE",
"576 -96 OFFCURVE",
"576 -182 CURVE SMOOTH",
"576 -270 OFFCURVE",
"630 -334 OFFCURVE",
"754 -334 CURVE SMOOTH"
);
}
);
width = 1414;
}
);
leftKerningGroup = O;
rightKerningGroup = O;
unicode = 01EA;
},
{
color = 6;
glyphname = Oslash;
layers = (
{
anchors = (
{
name = top;
position = "{788, 1446}";
}
);
layerId = "258ED206-D907-4350-8EBA-CBDDA1C16BF7";
paths = (
{
closed = 1;
nodes = (
"342 122 LINE",
"458 32 OFFCURVE",
"610 -20 OFFCURVE",
"790 -20 CURVE SMOOTH",
"1216 -20 OFFCURVE",
"1488 272 OFFCURVE",
"1488 720 CURVE SMOOTH",
"1488 884 OFFCURVE",
"1452 1026 OFFCURVE",
"1384 1140 CURVE",
"1558 1312 LINE",
"1406 1472 LINE",
"1242 1314 LINE",
"1126 1412 OFFCURVE",
"972 1466 OFFCURVE",
"790 1466 CURVE SMOOTH",
"366 1466 OFFCURVE",
"88 1172 OFFCURVE",
"88 720 CURVE SMOOTH",
"88 552 OFFCURVE",
"126 408 OFFCURVE",
"194 292 CURVE",
"30 134 LINE",
"186 -28 LINE"
);
},
{
closed = 1;
nodes = (
"704 284 OFFCURVE",
"644 314 OFFCURVE",
"606 380 CURVE",
"1024 790 LINE",
"1024 670 OFFCURVE",
"1018 576 OFFCURVE",
"1002 502 CURVE SMOOTH",
"972 348 OFFCURVE",
"904 284 OFFCURVE",
"790 284 CURVE SMOOTH"
);
},
{
closed = 1;
nodes = (
"552 740 OFFCURVE",
"556 824 OFFCURVE",
"568 894 CURVE SMOOTH",
"596 1084 OFFCURVE",
"666 1166 OFFCURVE",
"790 1166 CURVE SMOOTH",
"876 1166 OFFCURVE",
"936 1132 OFFCURVE",
"974 1052 CURVE",
"552 640 LINE"
);
}
);
width = 1598;
},
{
anchors = (
{
name = top;
position = "{726, 1446}";
}
);
layerId = "91AB5BCA-6A50-42DA-B2F7-8181BF189245";
paths = (
{
closed = 1;
nodes = (
"302 158 LINE",
"400 40 OFFCURVE",
"544 -20 OFFCURVE",
"724 -20 CURVE SMOOTH",
"1090 -20 OFFCURVE",
"1312 238 OFFCURVE",
"1312 720 CURVE SMOOTH",
"1312 920 OFFCURVE",
"1274 1082 OFFCURVE",
"1204 1204 CURVE",
"1380 1408 LINE",
"1308 1470 LINE",
"1148 1286 LINE",
"1046 1404 OFFCURVE",
"904 1466 OFFCURVE",
"726 1466 CURVE SMOOTH",
"360 1466 OFFCURVE",
"138 1204 OFFCURVE",
"138 716 CURVE SMOOTH",
"138 518 OFFCURVE",
"174 358 OFFCURVE",
"244 240 CURVE",
"70 38 LINE",
"140 -26 LINE"
);
},
{
closed = 1;
nodes = (
"566 64 OFFCURVE",
"444 118 OFFCURVE",
"360 228 CURVE",
"1140 1132 LINE",
"1188 1026 OFFCURVE",
"1212 890 OFFCURVE",
"1212 720 CURVE SMOOTH",
"1212 276 OFFCURVE",
"1050 64 OFFCURVE",
"728 64 CURVE SMOOTH"
);
},
{
closed = 1;
nodes = (
"260 418 OFFCURVE",
"236 552 OFFCURVE",
"236 720 CURVE SMOOTH",
"236 1164 OFFCURVE",
"404 1382 OFFCURVE",
"726 1382 CURVE SMOOTH",
"886 1382 OFFCURVE",
"1006 1328 OFFCURVE",
"1088 1218 CURVE",
"308 314 LINE"
);
}
);
width = 1450;
}
);
leftKerningGroup = Oslash;
rightKerningGroup = Oslash;
unicode = 00D8;
},
{
color = 6;
glyphname = OE;
layers = (
{
anchors = (
{
name = top;
position = "{1110, 1446}";
}
);
layerId = "258ED206-D907-4350-8EBA-CBDDA1C16BF7";
paths = (
{
closed = 1;
nodes = (
"2066 570 LINE",
"2066 884 LINE",
"1502 884 LINE",
"1502 1124 LINE",
"2176 1124 LINE",
"2178 1446 LINE",
"1110 1446 LINE",
"1110 1397 LINE",
"1016 1442 OFFCURVE",
"907 1466 OFFCURVE",
"787 1466 CURVE SMOOTH",
"365 1466 OFFCURVE",
"85 1172 OFFCURVE",
"85 720 CURVE SMOOTH",
"85 270 OFFCURVE",
"357 -20 OFFCURVE",
"787 -20 CURVE SMOOTH",
"908 -20 OFFCURVE",
"1017 4 OFFCURVE",
"1110 48 CURVE",
"1110 0 LINE",
"2180 0 LINE",
"2180 324 LINE",
"1499 324 LINE",
"1499 570 LINE"
);
},
{
closed = 1;
nodes = (
"627 292 OFFCURVE",
"510 402 OFFCURVE",
"510 714 CURVE SMOOTH",
"510 1036 OFFCURVE",
"627 1154 OFFCURVE",
"787 1154 CURVE SMOOTH",
"947 1154 OFFCURVE",
"1063 1036 OFFCURVE",
"1063 714 CURVE SMOOTH",
"1063 402 OFFCURVE",
"947 292 OFFCURVE",
"787 292 CURVE SMOOTH"
);
}
);
width = 2270;
},
{
anchors = (
{
name = top;
position = "{1126, 1446}";
}
);
layerId = "91AB5BCA-6A50-42DA-B2F7-8181BF189245";
paths = (
{
closed = 1;
nodes = (
"2003 690 LINE",
"2003 772 LINE",
"1303 772 LINE",
"1303 1366 LINE",
"2055 1366 LINE",
"2055 1446 LINE",
"1225 1446 LINE",
"1225 1126 LINE",
"1133 1350 OFFCURVE",
"954 1466 OFFCURVE",
"710 1466 CURVE SMOOTH",
"345 1466 OFFCURVE",
"120 1205 OFFCURVE",
"120 720 CURVE SMOOTH",
"120 237 OFFCURVE",
"345 -20 OFFCURVE",
"710 -20 CURVE SMOOTH",
"954 -20 OFFCURVE",
"1133 96 OFFCURVE",
"1225 318 CURVE",
"1225 0 LINE",
"2083 0 LINE",
"2083 82 LINE",
"1303 84 LINE",
"1303 690 LINE"
);
},
{
closed = 1;
nodes = (
"390 62 OFFCURVE",
"208 276 OFFCURVE",
"208 720 CURVE SMOOTH",
"208 1164 OFFCURVE",
"390 1384 OFFCURVE",
"710 1384 CURVE SMOOTH",
"1030 1384 OFFCURVE",
"1206 1167 OFFCURVE",
"1206 720 CURVE SMOOTH",
"1206 277 OFFCURVE",
"1034 62 OFFCURVE",
"710 62 CURVE SMOOTH"
);
}
);
width = 2218;
}
);
leftKerningGroup = O;
leftMetricsKey = O;
rightKerningGroup = E;
rightMetricsKey = E;
unicode = 0152;
},
{
color = 6;
glyphname = P;
layers = (
{
layerId = "258ED206-D907-4350-8EBA-CBDDA1C16BF7";
rightMetricsKey = "=X*2";
paths = (
{
closed = 1;
nodes = (
"524 0 LINE",
"524 498 LINE",
"757 498 LINE SMOOTH",
"1075 498 OFFCURVE",
"1274 670 OFFCURVE",
"1274 956 CURVE SMOOTH",
"1274 1270 OFFCURVE",
"1027 1446 OFFCURVE",
"707 1446 CURVE SMOOTH",
"135 1446 LINE",
"135 0 LINE"
);
},
{
closed = 1;
nodes = (
"520 1158 LINE",
"745 1158 LINE SMOOTH",
"831 1158 OFFCURVE",
"917 1076 OFFCURVE",
"917 976 CURVE SMOOTH",
"917 882 OFFCURVE",
"843 788 OFFCURVE",
"745 788 CURVE SMOOTH",
"520 788 LINE"
);
}
);
width = 1334;
},
{
layerId = "91AB5BCA-6A50-42DA-B2F7-8181BF189245";
rightMetricsKey = "=X/2";
paths = (
{
closed = 1;
nodes = (
"306 0 LINE",
"306 554 LINE",
"678 554 LINE SMOOTH",
"974 554 OFFCURVE",
"1186 716 OFFCURVE",
"1186 1006 CURVE SMOOTH",
"1186 1296 OFFCURVE",
"970 1446 OFFCURVE",
"666 1446 CURVE SMOOTH",
"220 1446 LINE",
"220 0 LINE"
);
},
{
closed = 1;
nodes = (
"306 1362 LINE",
"664 1362 LINE SMOOTH",
"928 1362 OFFCURVE",
"1098 1252 OFFCURVE",
"1098 1012 CURVE SMOOTH",
"1098 772 OFFCURVE",
"928 640 OFFCURVE",
"678 640 CURVE SMOOTH",
"306 640 LINE"
);
}
);
width = 1241;
}
);
leftKerningGroup = N;
leftMetricsKey = H;
rightKerningGroup = P;
rightMetricsKey = "=O";
unicode = 0050;
},
{
color = 6;
glyphname = Thorn;
layers = (
{
layerId = "258ED206-D907-4350-8EBA-CBDDA1C16BF7";
paths = (
{
closed = 1;
nodes = (
"524 0 LINE",
"524 276 LINE",
"788 276 LINE SMOOTH",
"1118 276 OFFCURVE",
"1356 444 OFFCURVE",
"1356 727 CURVE SMOOTH",
"1356 1032 OFFCURVE",
"1118 1186 OFFCURVE",
"788 1186 CURVE SMOOTH",
"524 1186 LINE",
"524 1446 LINE",
"135 1446 LINE",
"135 0 LINE"
);
},
{
closed = 1;
nodes = (
"524 875 LINE",
"770 875 LINE SMOOTH",
"881 875 OFFCURVE",
"950 833 OFFCURVE",
"950 729 CURVE SMOOTH",
"950 625 OFFCURVE",
"881 588 OFFCURVE",
"770 588 CURVE SMOOTH",
"524 588 LINE"
);
}
);
width = 1416;
},
{
layerId = "91AB5BCA-6A50-42DA-B2F7-8181BF189245";
paths = (
{
closed = 1;
nodes = (
"306 0 LINE",
"306 354 LINE",
"678 354 LINE SMOOTH",
"972 354 OFFCURVE",
"1186 466 OFFCURVE",
"1186 760 CURVE SMOOTH",
"1186 1018 OFFCURVE",
"972 1130 OFFCURVE",
"666 1130 CURVE SMOOTH",
"306 1130 LINE",
"306 1446 LINE",
"220 1446 LINE",
"220 0 LINE"
);
},
{
closed = 1;
nodes = (
"306 1048 LINE",
"664 1048 LINE SMOOTH",
"928 1048 OFFCURVE",
"1104 976 OFFCURVE",
"1104 760 CURVE SMOOTH",
"1104 522 OFFCURVE",
"928 436 OFFCURVE",
"678 436 CURVE SMOOTH",
"306 436 LINE"
);
}
);
width = 1241;
}
);
leftKerningGroup = N;
leftMetricsKey = P;
rightKerningGroup = P;
rightMetricsKey = P;
unicode = 00DE;
},
{
color = 6;
glyphname = Q;
layers = (
{
layerId = "258ED206-D907-4350-8EBA-CBDDA1C16BF7";
paths = (
{
closed = 1;
nodes = (
"1487 54 LINE",
"1390 54 OFFCURVE",
"1300 104 OFFCURVE",
"1283 160 CURVE",
"1413 300 OFFCURVE",
"1487 486 OFFCURVE",
"1487 720 CURVE SMOOTH",
"1487 1172 OFFCURVE",
"1209 1466 OFFCURVE",
"787 1466 CURVE SMOOTH",
"365 1466 OFFCURVE",
"85 1172 OFFCURVE",
"85 720 CURVE SMOOTH",
"85 270 OFFCURVE",
"357 -20 OFFCURVE",
"787 -20 CURVE SMOOTH",
"837 -20 OFFCURVE",
"877 -18 OFFCURVE",
"947 -10 CURVE",
"1119 -226 OFFCURVE",
"1255 -250 OFFCURVE",
"1487 -250 CURVE"
);
},
{
closed = 1;
nodes = (
"615 292 OFFCURVE",
"512 402 OFFCURVE",
"512 716 CURVE SMOOTH",
"512 1038 OFFCURVE",
"619 1154 OFFCURVE",
"787 1154 CURVE SMOOTH",
"955 1154 OFFCURVE",
"1063 1038 OFFCURVE",
"1063 716 CURVE SMOOTH",
"1063 402 OFFCURVE",
"959 292 OFFCURVE",
"787 292 CURVE SMOOTH"
);
}
);
width = 1593;
},
{
layerId = "91AB5BCA-6A50-42DA-B2F7-8181BF189245";
paths = (
{
closed = 1;
nodes = (
"1276 -158 LINE",
"1148 -152 OFFCURVE",
"1036 -100 OFFCURVE",
"971 36 CURVE",
"1204 158 OFFCURVE",
"1294 388 OFFCURVE",
"1294 720 CURVE SMOOTH",
"1294 1210 OFFCURVE",
"1074 1466 OFFCURVE",
"708 1466 CURVE SMOOTH",
"342 1466 OFFCURVE",
"120 1210 OFFCURVE",
"120 720 CURVE SMOOTH",
"120 226 OFFCURVE",
"350 -20 OFFCURVE",
"708 -20 CURVE SMOOTH",
"764 -20 OFFCURVE",
"820 -12 OFFCURVE",
"884 2 CURVE",
"986 -196 OFFCURVE",
"1181 -238 OFFCURVE",
"1276 -238 CURVE"
);
},
{
closed = 1;
nodes = (
"389 62 OFFCURVE",
"208 274 OFFCURVE",
"208 716 CURVE SMOOTH",
"208 1154 OFFCURVE",
"382 1384 OFFCURVE",
"708 1384 CURVE SMOOTH",
"1034 1384 OFFCURVE",
"1208 1154 OFFCURVE",
"1208 720 CURVE SMOOTH",
"1208 274 OFFCURVE",
"1028 62 OFFCURVE",
"708 62 CURVE SMOOTH"
);
}
);
width = 1444;
}
);
leftKerningGroup = O;
leftMetricsKey = O;
rightKerningGroup = O;
rightMetricsKey = "=O*1.25";
unicode = 0051;
},
{
color = 6;
glyphname = R;
layers = (
{
anchors = (
{
name = bottom;
position = "{719, 0}";
},
{
name = top;
position = "{699, 1446}";
}
);
layerId = "258ED206-D907-4350-8EBA-CBDDA1C16BF7";
rightMetricsKey = "=H/1.5";
paths = (
{
closed = 1;
nodes = (
"524 0 LINE",
"524 498 LINE",
"728 498 LINE",
"938 0 LINE",
"1337 0 LINE",
"1083 560 LINE",
"1217 642 OFFCURVE",
"1312 758 OFFCURVE",
"1312 980 CURVE SMOOTH",
"1312 1242 OFFCURVE",
"1167 1446 OFFCURVE",
"791 1446 CURVE SMOOTH",
"135 1446 LINE",
"135 0 LINE"
);
},
{
closed = 1;
nodes = (
"524 1158 LINE",
"747 1158 LINE SMOOTH",
"835 1158 OFFCURVE",
"921 1076 OFFCURVE",
"921 976 CURVE SMOOTH",
"921 882 OFFCURVE",
"847 788 OFFCURVE",
"747 788 CURVE SMOOTH",
"524 788 LINE"
);
}
);
width = 1427;
},
{
anchors = (
{
name = bottom;
position = "{652, 0}";
},
{
name = top;
position = "{638, 1446}";
}
);
layerId = "91AB5BCA-6A50-42DA-B2F7-8181BF189245";
paths = (
{
closed = 1;
nodes = (
"298 0 LINE",
"298 688 LINE",
"784 688 LINE",
"1076 0 LINE",
"1166 0 LINE",
"866 706 LINE",
"1006 742 OFFCURVE",
"1174 846 OFFCURVE",
"1174 1088 CURVE SMOOTH",
"1174 1326 OFFCURVE",
"1010 1446 OFFCURVE",
"730 1446 CURVE SMOOTH",
"220 1446 LINE",
"220 0 LINE"
);
},
{
closed = 1;
nodes = (
"298 1366 LINE",
"728 1366 LINE SMOOTH",
"964 1366 OFFCURVE",
"1090 1280 OFFCURVE",
"1090 1074 CURVE SMOOTH",
"1090 856 OFFCURVE",
"940 770 OFFCURVE",
"662 770 CURVE SMOOTH",
"298 770 LINE"
);
}
);
width = 1314;
}
);
leftKerningGroup = N;
leftMetricsKey = H;
rightKerningGroup = R;
rightMetricsKey = "=X+30";
unicode = 0052;
},
{
color = 6;
glyphname = S;
layers = (
{
anchors = (
{
name = bottom;
position = "{720, 0}";
},
{
name = top;
position = "{720, 1446}";
}
);
layerId = "258ED206-D907-4350-8EBA-CBDDA1C16BF7";
leftMetricsKey = "=O";
rightMetricsKey = "=O/1.1";
paths = (
{
closed = 1;
nodes = (
"1081 -20 OFFCURVE",
"1347 164 OFFCURVE",
"1347 446 CURVE SMOOTH",
"1347 678 OFFCURVE",
"1213 837 OFFCURVE",
"911 886 CURVE SMOOTH",
"696 921 LINE SMOOTH",
"574 941 OFFCURVE",
"534 984 OFFCURVE",
"534 1044 CURVE SMOOTH",
"534 1102 OFFCURVE",
"584 1164 OFFCURVE",
"728 1164 CURVE SMOOTH",
"861 1164 OFFCURVE",
"940 1117 OFFCURVE",
"952 1008 CURVE",
"1338 1008 LINE",
"1332 1276 OFFCURVE",
"1116 1464 OFFCURVE",
"739 1464 CURVE SMOOTH",
"392 1464 OFFCURVE",
"126 1294 OFFCURVE",
"126 1002 CURVE SMOOTH",
"126 756 OFFCURVE",
"277 617 OFFCURVE",
"536 571 CURVE SMOOTH",
"783 527 LINE SMOOTH",
"878 510 OFFCURVE",
"958 488 OFFCURVE",
"958 404 CURVE SMOOTH",
"958 308 OFFCURVE",
"843 278 OFFCURVE",
"750 278 CURVE SMOOTH",
"591 278 OFFCURVE",
"503 338 OFFCURVE",
"481 440 CURVE",
"85 440 LINE",
"110 128 OFFCURVE",
"428 -20 OFFCURVE",
"726 -20 CURVE SMOOTH"
);
}
);
width = 1424;
},
{
anchors = (
{
name = bottom;
position = "{625, 0}";
},
{
name = top;
position = "{638, 1446}";
}
);
layerId = "91AB5BCA-6A50-42DA-B2F7-8181BF189245";
rightMetricsKey = "=O*1.2";
paths = (
{
closed = 1;
nodes = (
"966 -20 OFFCURVE",
"1152 150 OFFCURVE",
"1152 369 CURVE SMOOTH",
"1152 514 OFFCURVE",
"1082 655 OFFCURVE",
"849 722 CURVE SMOOTH",
"519 817 LINE SMOOTH",
"357 864 OFFCURVE",
"261 936 OFFCURVE",
"261 1086 CURVE SMOOTH",
"261 1254 OFFCURVE",
"398 1386 OFFCURVE",
"638 1386 CURVE SMOOTH",
"829 1386 OFFCURVE",
"1014 1307 OFFCURVE",
"1037 1064 CURVE",
"1125 1064 LINE",
"1126 1258 OFFCURVE",
"962 1464 OFFCURVE",
"641 1464 CURVE SMOOTH",
"375 1464 OFFCURVE",
"177 1306 OFFCURVE",
"177 1086 CURVE SMOOTH",
"177 876 OFFCURVE",
"311 789 OFFCURVE",
"486 738 CURVE SMOOTH",
"810 644 LINE SMOOTH",
"998 589 OFFCURVE",
"1068 500 OFFCURVE",
"1068 369 CURVE SMOOTH",
"1068 180 OFFCURVE",
"889 58 OFFCURVE",
"657 58 CURVE SMOOTH",
"450 58 OFFCURVE",
"263 158 OFFCURVE",
"220 354 CURVE",
"132 354 LINE",
"175 112 OFFCURVE",
"386 -20 OFFCURVE",
"657 -20 CURVE SMOOTH"
);
}
);
width = 1296;
},
{
associatedMasterId = "91AB5BCA-6A50-42DA-B2F7-8181BF189245";
background = {
anchors = (
{
name = bottom;
position = "{635, 0}";
},
{
name = top;
position = "{648, 1446}";
}
);
};
layerId = "7F679B48-D090-4613-8EEF-8C6457811B2D";
rightMetricsKey = "=O*1.2";
name = "Jul 14 20, 15:45";
paths = (
{
closed = 1;
nodes = (
"995 -20 OFFCURVE",
"1162 150 OFFCURVE",
"1162 354 CURVE SMOOTH",
"1162 518 OFFCURVE",
"1082 672 OFFCURVE",
"859 731 CURVE SMOOTH",
"556 811 LINE SMOOTH",
"334 870 OFFCURVE",
"260 942 OFFCURVE",
"260 1066 CURVE SMOOTH",
"260 1286 OFFCURVE",
"478 1382 OFFCURVE",
"648 1382 CURVE SMOOTH",
"839 1382 OFFCURVE",
"1024 1304 OFFCURVE",
"1047 1064 CURVE",
"1135 1064 LINE",
"1136 1258 OFFCURVE",
"972 1464 OFFCURVE",
"651 1464 CURVE SMOOTH",
"365 1464 OFFCURVE",
"177 1292 OFFCURVE",
"177 1064 CURVE SMOOTH",
"177 892 OFFCURVE",
"295 787 OFFCURVE",
"504 734 CURVE SMOOTH",
"820 654 LINE SMOOTH",
"1001 608 OFFCURVE",
"1078 504 OFFCURVE",
"1078 350 CURVE SMOOTH",
"1078 180 OFFCURVE",
"906 58 OFFCURVE",
"659 58 CURVE SMOOTH",
"451 58 OFFCURVE",
"263 158 OFFCURVE",
"220 354 CURVE",
"132 354 LINE",
"175 112 OFFCURVE",
"399 -20 OFFCURVE",
"659 -20 CURVE SMOOTH"
);
}
);
width = 1306;
}
);
leftKerningGroup = S;
leftMetricsKey = "=O*1.1";
rightKerningGroup = S;
rightMetricsKey = "=O";
unicode = 0053;
},
{
color = 3;
glyphname = Scedilla;
layers = (
{
anchors = (
{
name = _bottom;
position = "{720, 0}";
}
);
components = (
{
name = S;
}
);
layerId = "258ED206-D907-4350-8EBA-CBDDA1C16BF7";
paths = (
{
closed = 1;
nodes = (
"868 -438 OFFCURVE",
"990 -372 OFFCURVE",
"990 -268 CURVE SMOOTH",
"990 -194 OFFCURVE",
"930 -104 OFFCURVE",
"766 -104 CURVE",
"808 10 LINE",
"650 10 LINE",
"576 -162 LINE SMOOTH",
"566 -184 OFFCURVE",
"576 -186 OFFCURVE",
"596 -186 CURVE SMOOTH",
"730 -186 OFFCURVE",
"774 -214 OFFCURVE",
"774 -262 CURVE SMOOTH",
"774 -294 OFFCURVE",
"736 -314 OFFCURVE",
"682 -314 CURVE SMOOTH",
"624 -314 OFFCURVE",
"560 -288 OFFCURVE",
"512 -262 CURVE",
"464 -380 LINE",
"542 -426 OFFCURVE",
"636 -438 OFFCURVE",
"730 -438 CURVE SMOOTH"
);
}
);
width = 1424;
},
{
anchors = (
{
name = _bottom;
position = "{625, 0}";
}
);
components = (
{
name = S;
}
);
layerId = "91AB5BCA-6A50-42DA-B2F7-8181BF189245";
paths = (
{
closed = 1;
nodes = (
"679 -398 OFFCURVE",
"767 -350 OFFCURVE",
"767 -252 CURVE SMOOTH",
"767 -190 OFFCURVE",
"733 -124 OFFCURVE",
"611 -114 CURVE",
"661 10 LINE",
"595 10 LINE",
"523 -154 LINE SMOOTH",
"521 -158 OFFCURVE",
"521 -162 OFFCURVE",
"531 -162 CURVE SMOOTH",
"633 -166 OFFCURVE",
"681 -194 OFFCURVE",
"681 -256 CURVE SMOOTH",
"681 -310 OFFCURVE",
"647 -340 OFFCURVE",
"565 -340 CURVE SMOOTH",
"505 -340 OFFCURVE",
"473 -322 OFFCURVE",
"445 -296 CURVE",
"423 -352 LINE",
"465 -382 OFFCURVE",
"513 -398 OFFCURVE",
"573 -398 CURVE SMOOTH"
);
}
);
width = 1296;
}
);
leftKerningGroup = S;
rightKerningGroup = S;
unicode = 015E;
},
{
color = 6;
glyphname = Schwa;
layers = (
{
layerId = "258ED206-D907-4350-8EBA-CBDDA1C16BF7";
paths = (
{
closed = 1;
nodes = (
"1178 -20 OFFCURVE",
"1481 218 OFFCURVE",
"1481 742 CURVE SMOOTH",
"1481 1208 OFFCURVE",
"1216 1466 OFFCURVE",
"778 1466 CURVE SMOOTH",
"353 1466 OFFCURVE",
"85 1172 OFFCURVE",
"85 932 CURVE",
"519 932 LINE",
"519 1015 OFFCURVE",
"619 1108 OFFCURVE",
"769 1108 CURVE SMOOTH",
"919 1108 OFFCURVE",
"1014 1008 OFFCURVE",
"1014 828 CURVE",
"85 828 LINE",
"85 221 OFFCURVE",
"378 -20 OFFCURVE",
"778 -20 CURVE SMOOTH"
);
},
{
closed = 1;
nodes = (
"639 314 OFFCURVE",
"560 408 OFFCURVE",
"560 556 CURVE",
"1010 554 LINE",
"1010 408 OFFCURVE",
"930 314 OFFCURVE",
"778 314 CURVE SMOOTH"
);
}
);
width = 1566;
},
{
layerId = "91AB5BCA-6A50-42DA-B2F7-8181BF189245";
paths = (
{
closed = 1;
nodes = (
"1076 -20 OFFCURVE",
"1293 240 OFFCURVE",
"1293 720 CURVE SMOOTH",
"1293 1185 OFFCURVE",
"1076 1466 OFFCURVE",
"711 1466 CURVE SMOOTH",
"346 1466 OFFCURVE",
"120 1185 OFFCURVE",
"120 972 CURVE",
"216 972 LINE",
"216 1147 OFFCURVE",
"386 1382 OFFCURVE",
"711 1382 CURVE SMOOTH",
"1036 1382 OFFCURVE",
"1205 1146 OFFCURVE",
"1205 742 CURVE",
"123 742 LINE",
"123 238 OFFCURVE",
"346 -20 OFFCURVE",
"711 -20 CURVE SMOOTH"
);
},
{
closed = 1;
nodes = (
"386 64 OFFCURVE",
"217 320 OFFCURVE",
"217 660 CURVE",
"1205 660 LINE",
"1199 322 OFFCURVE",
"1036 64 OFFCURVE",
"711 64 CURVE SMOOTH"
);
}
);
width = 1413;
}
);
leftKerningGroup = O;
leftMetricsKey = O;
rightKerningGroup = O;
rightMetricsKey = O;
unicode = 018F;
},
{
color = 6;
glyphname = T;
layers = (
{
anchors = (
{
name = bottom;
position = "{654, 0}";
},
{
name = top;
position = "{654, 1446}";
}
);
layerId = "258ED206-D907-4350-8EBA-CBDDA1C16BF7";
leftMetricsKey = "=X";
rightMetricsKey = "=X";
paths = (
{
closed = 1;
nodes = (
"830 0 LINE",
"830 1104 LINE",
"1244 1104 LINE",
"1244 1446 LINE",
"30 1446 LINE",
"30 1104 LINE",
"440 1104 LINE",
"440 0 LINE"
);
}
);
width = 1274;
},
{
anchors = (
{
name = bottom;
position = "{593, 4}";
},
{
name = top;
position = "{593, 1446}";
}
);
layerId = "91AB5BCA-6A50-42DA-B2F7-8181BF189245";
leftMetricsKey = "=X/2";
rightMetricsKey = "=X/2";
paths = (
{
closed = 1;
nodes = (
"630 0 LINE",
"630 1366 LINE",
"1086 1366 LINE",
"1086 1446 LINE",
"55 1446 LINE",
"55 1366 LINE",
"551 1366 LINE",
"551 0 LINE"
);
}
);
width = 1141;
}
);
leftKerningGroup = T;
leftMetricsKey = X;
rightKerningGroup = T;
rightMetricsKey = X;
unicode = 0054;
},
{
color = 3;
glyphname = Tbar;
layers = (
{
components = (
{
name = T;
}
);
layerId = "258ED206-D907-4350-8EBA-CBDDA1C16BF7";
paths = (
{
closed = 1;
nodes = (
"1062 548 LINE",
"1062 822 LINE",
"208 822 LINE",
"208 548 LINE"
);
}
);
width = 1274;
},
{
components = (
{
name = T;
}
);
layerId = "91AB5BCA-6A50-42DA-B2F7-8181BF189245";
paths = (
{
closed = 1;
nodes = (
"928 702 LINE",
"928 784 LINE",
"214 784 LINE",
"214 702 LINE"
);
}
);
width = 1141;
}
);
leftKerningGroup = T;
leftMetricsKey = T;
rightKerningGroup = T;
rightMetricsKey = T;
unicode = 0166;
},
{
color = 3;
glyphname = Tcedilla;
layers = (
{
anchors = (
{
name = _bottom;
position = "{654, 0}";
}
);
components = (
{
name = T;
}
);
layerId = "258ED206-D907-4350-8EBA-CBDDA1C16BF7";
paths = (
{
closed = 1;
nodes = (
"802 -438 OFFCURVE",
"924 -372 OFFCURVE",
"924 -268 CURVE SMOOTH",
"924 -194 OFFCURVE",
"864 -104 OFFCURVE",
"700 -104 CURVE",
"742 10 LINE",
"584 10 LINE",
"510 -162 LINE SMOOTH",
"500 -184 OFFCURVE",
"510 -186 OFFCURVE",
"530 -186 CURVE SMOOTH",
"664 -186 OFFCURVE",
"708 -214 OFFCURVE",
"708 -262 CURVE SMOOTH",
"708 -294 OFFCURVE",
"670 -314 OFFCURVE",
"616 -314 CURVE SMOOTH",
"558 -314 OFFCURVE",
"494 -288 OFFCURVE",
"446 -262 CURVE",
"398 -380 LINE",
"476 -426 OFFCURVE",
"570 -438 OFFCURVE",
"664 -438 CURVE SMOOTH"
);
}
);
width = 1274;
},
{
anchors = (
{
name = _bottom;
position = "{593, 4}";
}
);
components = (
{
name = T;
}
);
layerId = "91AB5BCA-6A50-42DA-B2F7-8181BF189245";
paths = (
{
closed = 1;
nodes = (
"647 -394 OFFCURVE",
"735 -346 OFFCURVE",
"735 -248 CURVE SMOOTH",
"735 -186 OFFCURVE",
"701 -120 OFFCURVE",
"579 -110 CURVE",
"629 14 LINE",
"563 14 LINE",
"491 -150 LINE SMOOTH",
"489 -154 OFFCURVE",
"489 -158 OFFCURVE",
"499 -158 CURVE SMOOTH",
"601 -162 OFFCURVE",
"649 -190 OFFCURVE",
"649 -252 CURVE SMOOTH",
"649 -306 OFFCURVE",
"615 -336 OFFCURVE",
"533 -336 CURVE SMOOTH",
"473 -336 OFFCURVE",
"441 -318 OFFCURVE",
"413 -292 CURVE",
"391 -348 LINE",
"433 -378 OFFCURVE",
"481 -394 OFFCURVE",
"541 -394 CURVE SMOOTH"
);
}
);
width = 1141;
}
);
leftKerningGroup = T;
rightKerningGroup = T;
unicode = 0162;
},
{
color = 6;
glyphname = U;
layers = (
{
anchors = (
{
name = bottom;
position = "{759, 0}";
},
{
name = horn;
position = "{1314, 1094}";
},
{
name = ogonek;
position = "{917, 24}";
},
{
name = top;
position = "{759, 1446}";
}
);
layerId = "258ED206-D907-4350-8EBA-CBDDA1C16BF7";
paths = (
{
closed = 1;
nodes = (
"1225 -20 OFFCURVE",
"1383 230 OFFCURVE",
"1383 598 CURVE SMOOTH",
"1383 1446 LINE",
"989 1446 LINE",
"989 582 LINE SMOOTH",
"989 382 OFFCURVE",
"879 306 OFFCURVE",
"759 306 CURVE SMOOTH",
"637 306 OFFCURVE",
"529 382 OFFCURVE",
"529 582 CURVE SMOOTH",
"529 1446 LINE",
"135 1446 LINE",
"135 598 LINE SMOOTH",
"135 230 OFFCURVE",
"293 -20 OFFCURVE",
"759 -20 CURVE SMOOTH"
);
}
);
width = 1491;
},
{
anchors = (
{
name = bottom;
position = "{696, 4}";
},
{
name = horn;
position = "{1148, 1212}";
},
{
name = ogonek;
position = "{838, 18}";
},
{
name = top;
position = "{702, 1446}";
}
);
layerId = "91AB5BCA-6A50-42DA-B2F7-8181BF189245";
paths = (
{
closed = 1;
nodes = (
"1020 -20 OFFCURVE",
"1178 134 OFFCURVE",
"1178 448 CURVE SMOOTH",
"1178 1446 LINE",
"1100 1446 LINE",
"1100 444 LINE SMOOTH",
"1100 188 OFFCURVE",
"966 56 OFFCURVE",
"698 56 CURVE SMOOTH",
"432 56 OFFCURVE",
"306 192 OFFCURVE",
"306 444 CURVE SMOOTH",
"306 1446 LINE",
"220 1446 LINE",
"220 478 LINE SMOOTH",
"220 138 OFFCURVE",
"370 -20 OFFCURVE",
"698 -20 CURVE SMOOTH"
);
}
);
width = 1354;
}
);
leftKerningGroup = U;
leftMetricsKey = H;
rightKerningGroup = U;
rightMetricsKey = "=H/1.25";
unicode = 0055;
},
{
color = 6;
glyphname = Uhorn;
layers = (
{
anchors = (
{
name = bottom;
position = "{696, 4}";
},
{
name = horn;
position = "{1148, 1212}";
},
{
name = ogonek;
position = "{838, 18}";
},
{
name = top;
position = "{702, 1446}";
},
{
name = topright;
position = "{1274, 1292}";
}
);
layerId = "91AB5BCA-6A50-42DA-B2F7-8181BF189245";
paths = (
{
closed = 1;
nodes = (
"1020 -20 OFFCURVE",
"1178 134 OFFCURVE",
"1178 448 CURVE SMOOTH",
"1178 1210 LINE",
"1330 1205 OFFCURVE",
"1404 1291 OFFCURVE",
"1404 1470 CURVE",
"1302 1470 LINE",
"1298 1338 OFFCURVE",
"1267 1288 OFFCURVE",
"1178 1281 CURVE",
"1178 1446 LINE",
"1100 1446 LINE",
"1100 444 LINE SMOOTH",
"1100 188 OFFCURVE",
"966 56 OFFCURVE",
"698 56 CURVE SMOOTH",
"432 56 OFFCURVE",
"306 192 OFFCURVE",
"306 444 CURVE SMOOTH",
"306 1446 LINE",
"220 1446 LINE",
"220 478 LINE SMOOTH",
"220 138 OFFCURVE",
"370 -20 OFFCURVE",
"698 -20 CURVE SMOOTH"
);
}
);
width = 1520;
},
{
anchors = (
{
name = bottom;
position = "{759, 0}";
},
{
name = horn;
position = "{1314, 1094}";
},
{
name = ogonek;
position = "{917, 24}";
},
{
name = top;
position = "{759, 1446}";
},
{
name = topright;
position = "{1526, 1274}";
}
);
layerId = "258ED206-D907-4350-8EBA-CBDDA1C16BF7";
paths = (
{
closed = 1;
nodes = (
"1225 -20 OFFCURVE",
"1383 230 OFFCURVE",
"1383 598 CURVE SMOOTH",
"1383 1088 LINE",
"1684 1070 OFFCURVE",
"1760 1188 OFFCURVE",
"1764 1492 CURVE",
"1530 1492 LINE",
"1514 1297 OFFCURVE",
"1474 1273 OFFCURVE",
"1383 1271 CURVE",
"1383 1446 LINE",
"989 1446 LINE",
"989 582 LINE SMOOTH",
"989 382 OFFCURVE",
"879 306 OFFCURVE",
"759 306 CURVE SMOOTH",
"637 306 OFFCURVE",
"529 382 OFFCURVE",
"529 582 CURVE SMOOTH",
"529 1446 LINE",
"135 1446 LINE",
"135 598 LINE SMOOTH",
"135 230 OFFCURVE",
"293 -20 OFFCURVE",
"759 -20 CURVE SMOOTH"
);
}
);
width = 1812;
}
);
leftKerningGroup = U;
leftMetricsKey = U;
rightKerningGroup = Uhorn;
rightMetricsKey = "=U-60";
unicode = 01AF;
},
{
color = 3;
glyphname = Uogonek;
layers = (
{
anchors = (
{
name = _ogonek;
position = "{917, 24}";
}
);
components = (
{
name = U;
}
);
layerId = "258ED206-D907-4350-8EBA-CBDDA1C16BF7";
paths = (
{
closed = 1;
nodes = (
"849 -336 OFFCURVE",
"941 -308 OFFCURVE",
"981 -282 CURVE",
"981 -118 LINE",
"933 -146 OFFCURVE",
"893 -168 OFFCURVE",
"835 -168 CURVE SMOOTH",
"799 -168 OFFCURVE",
"781 -150 OFFCURVE",
"781 -112 CURVE SMOOTH",
"781 -68 OFFCURVE",
"815 -32 OFFCURVE",
"961 16 CURVE",
"695 16 LINE",
"543 -38 OFFCURVE",
"513 -100 OFFCURVE",
"513 -166 CURVE SMOOTH",
"513 -282 OFFCURVE",
"607 -336 OFFCURVE",
"749 -336 CURVE SMOOTH"
);
}
);
width = 1491;
},
{
anchors = (
{
name = _ogonek;
position = "{838, 18}";
}
);
components = (
{
name = U;
}
);
layerId = "91AB5BCA-6A50-42DA-B2F7-8181BF189245";
paths = (
{
closed = 1;
nodes = (
"812 -334 OFFCURVE",
"876 -316 OFFCURVE",
"906 -300 CURVE",
"906 -238 LINE",
"888 -248 OFFCURVE",
"830 -268 OFFCURVE",
"764 -268 CURVE SMOOTH",
"684 -268 OFFCURVE",
"652 -240 OFFCURVE",
"652 -186 CURVE SMOOTH",
"652 -110 OFFCURVE",
"718 -62 OFFCURVE",
"848 -2 CURVE",
"782 16 LINE",
"618 -32 OFFCURVE",
"566 -96 OFFCURVE",
"566 -182 CURVE SMOOTH",
"566 -270 OFFCURVE",
"620 -334 OFFCURVE",
"744 -334 CURVE SMOOTH"
);
}
);
width = 1354;
}
);
leftKerningGroup = U;
rightKerningGroup = U;
unicode = 0172;
},
{
color = 6;
glyphname = V;
layers = (
{
layerId = "258ED206-D907-4350-8EBA-CBDDA1C16BF7";
paths = (
{
closed = 1;
nodes = (
"946 0 LINE",
"1434 1446 LINE",
"1066 1446 LINE",
"732 456 LINE",
"397 1446 LINE",
"30 1446 LINE",
"518 0 LINE"
);
}
);
width = 1464;
},
{
layerId = "91AB5BCA-6A50-42DA-B2F7-8181BF189245";
paths = (
{
closed = 1;
nodes = (
"699 0 LINE",
"1227 1446 LINE",
"1141 1446 LINE",
"641 81 LINE",
"141 1446 LINE",
"55 1446 LINE",
"583 0 LINE"
);
}
);
width = 1282;
}
);
leftKerningGroup = V;
leftMetricsKey = T;
rightKerningGroup = V;
rightMetricsKey = T;
unicode = 0056;
},
{
color = 6;
glyphname = W;
layers = (
{
anchors = (
{
name = top;
position = "{982, 1446}";
}
);
layerId = "258ED206-D907-4350-8EBA-CBDDA1C16BF7";
paths = (
{
closed = 1;
nodes = (
"752 0 LINE",
"982 786 LINE",
"1212 0 LINE",
"1502 0 LINE",
"1934 1446 LINE",
"1558 1446 LINE",
"1342 670 LINE",
"1118 1446 LINE",
"846 1446 LINE",
"630 670 LINE",
"406 1446 LINE",
"30 1446 LINE",
"466 0 LINE"
);
}
);
width = 1964;
},
{
anchors = (
{
name = top;
position = "{936, 1446}";
}
);
layerId = "91AB5BCA-6A50-42DA-B2F7-8181BF189245";
leftMetricsKey = "=X/2";
rightMetricsKey = "=X/2";
paths = (
{
closed = 1;
nodes = (
"564 0 LINE",
"934 1296 LINE",
"1297 0 LINE",
"1406 0 LINE",
"1822 1446 LINE",
"1736 1446 LINE",
"1352 98 LINE",
"975 1446 LINE",
"896 1446 LINE",
"513 98 LINE",
"142 1446 LINE",
"55 1446 LINE",
"461 0 LINE"
);
}
);
width = 1877;
}
);
leftKerningGroup = V;
leftMetricsKey = X;
rightKerningGroup = V;
rightMetricsKey = X;
unicode = 0057;
},
{
color = 6;
glyphname = X;
layers = (
{
layerId = "258ED206-D907-4350-8EBA-CBDDA1C16BF7";
paths = (
{
closed = 1;
nodes = (
"444 0 LINE",
"704 454 LINE",
"970 0 LINE",
"1456 0 LINE",
"946 786 LINE",
"1378 1446 LINE",
"970 1446 LINE",
"748 1054 LINE",
"524 1446 LINE",
"42 1446 LINE",
"502 730 LINE",
"30 0 LINE"
);
}
);
width = 1486;
},
{
layerId = "91AB5BCA-6A50-42DA-B2F7-8181BF189245";
paths = (
{
closed = 1;
nodes = (
"205 0 LINE",
"657 671 LINE",
"1114 0 LINE",
"1209 0 LINE",
"704 742 LINE",
"1181 1446 LINE",
"1085 1446 LINE",
"657 811 LINE",
"226 1446 LINE",
"131 1446 LINE",
"610 742 LINE",
"110 0 LINE"
);
}
);
width = 1319;
}
);
leftKerningGroup = X;
rightKerningGroup = X;
unicode = 0058;
},
{
color = 6;
glyphname = Y;
layers = (
{
anchors = (
{
name = bottom;
position = "{721, 0}";
},
{
name = top;
position = "{771, 1446}";
}
);
layerId = "258ED206-D907-4350-8EBA-CBDDA1C16BF7";
leftMetricsKey = "=X/2";
rightMetricsKey = "=X/2";
paths = (
{
closed = 1;
nodes = (
"914 0 LINE",
"914 602 LINE",
"1429 1446 LINE",
"1004 1446 LINE",
"721 932 LINE",
"435 1446 LINE",
"15 1446 LINE",
"524 602 LINE",
"524 0 LINE"
);
}
);
width = 1444;
},
{
anchors = (
{
name = bottom;
position = "{552, 0}";
},
{
name = top;
position = "{548, 1450}";
}
);
layerId = "91AB5BCA-6A50-42DA-B2F7-8181BF189245";
paths = (
{
closed = 1;
nodes = (
"590 0 LINE",
"590 622 LINE",
"1066 1446 LINE",
"980 1446 LINE",
"552 702 LINE",
"116 1446 LINE",
"28 1446 LINE",
"513 624 LINE",
"513 0 LINE"
);
}
);
width = 1094;
}
);
leftKerningGroup = Y;
leftMetricsKey = "=X/4";
rightKerningGroup = Y;
rightMetricsKey = "=X/4";
unicode = 0059;
},
{
color = 6;
glyphname = Z;
layers = (
{
anchors = (
{
name = bottom;
position = "{716, 0}";
},
{
name = top;
position = "{762, 1446}";
}
);
layerId = "258ED206-D907-4350-8EBA-CBDDA1C16BF7";
paths = (
{
closed = 1;
nodes = (
"1319 0 LINE",
"1319 324 LINE",
"636 324 LINE",
"1331 1276 LINE",
"1331 1446 LINE",
"153 1446 LINE",
"153 1126 LINE",
"771 1126 LINE",
"90 178 LINE",
"90 0 LINE"
);
}
);
width = 1399;
},
{
anchors = (
{
name = bottom;
position = "{647, 0}";
},
{
name = top;
position = "{633, 1446}";
}
);
layerId = "91AB5BCA-6A50-42DA-B2F7-8181BF189245";
paths = (
{
closed = 1;
nodes = (
"1098 0 LINE",
"1098 78 LINE",
"245 78 LINE",
"1098 1386 LINE",
"1098 1446 LINE",
"165 1446 LINE",
"165 1368 LINE",
"997 1368 LINE",
"147 62 LINE",
"147 0 LINE"
);
}
);
width = 1208;
}
);
leftKerningGroup = Z;
leftMetricsKey = "=H/1.5";
rightKerningGroup = Z;
rightMetricsKey = "=H/2";
unicode = 005A;
},
{
color = 6;
glyphname = a;
layers = (
{
anchors = (
{
name = bottom;
position = "{597, 0}";
},
{
name = ogonek;
position = "{1011, 20}";
},
{
name = top;
position = "{604, 1034}";
}
);
layerId = "258ED206-D907-4350-8EBA-CBDDA1C16BF7";
paths = (
{
closed = 1;
nodes = (
"564 -20 OFFCURVE",
"649 24 OFFCURVE",
"711 164 CURVE",
"745 0 LINE",
"1067 0 LINE",
"1067 732 LINE SMOOTH",
"1067 922 OFFCURVE",
"959 1054 OFFCURVE",
"599 1054 CURVE SMOOTH",
"333 1054 OFFCURVE",
"117 956 OFFCURVE",
"106 712 CURVE",
"421 712 LINE",
"453 782 OFFCURVE",
"527 800 OFFCURVE",
"581 802 CURVE SMOOTH",
"659 804 OFFCURVE",
"695 774 OFFCURVE",
"695 708 CURVE SMOOTH",
"695 664 LINE",
"615 664 LINE SMOOTH",
"239 664 OFFCURVE",
"66 534 OFFCURVE",
"66 310 CURVE SMOOTH",
"66 96 OFFCURVE",
"228 -20 OFFCURVE",
"423 -20 CURVE SMOOTH"
);
},
{
closed = 1;
nodes = (
"493 226 OFFCURVE",
"431 272 OFFCURVE",
"431 350 CURVE SMOOTH",
"431 452 OFFCURVE",
"571 480 OFFCURVE",
"633 480 CURVE SMOOTH",
"695 480 LINE",
"695 350 LINE",
"693 284 OFFCURVE",
"635 226 OFFCURVE",
"560 226 CURVE SMOOTH"
);
}
);
width = 1157;
},
{
anchors = (
{
name = bottom;
position = "{548, 0}";
},
{
name = ogonek;
position = "{907, 28}";
},
{
name = top;
position = "{549, 1034}";
}
);
layerId = "91AB5BCA-6A50-42DA-B2F7-8181BF189245";
paths = (
{
closed = 1;
nodes = (
"605 -20 OFFCURVE",
"754 38 OFFCURVE",
"844 210 CURVE",
"847 0 LINE",
"919 0 LINE",
"919 716 LINE SMOOTH",
"919 946 OFFCURVE",
"771 1054 OFFCURVE",
"550 1054 CURVE SMOOTH",
"307 1054 OFFCURVE",
"185 936 OFFCURVE",
"174 758 CURVE",
"258 758 LINE",
"280 908 OFFCURVE",
"393 978 OFFCURVE",
"546 978 CURVE SMOOTH",
"747 978 OFFCURVE",
"842 872 OFFCURVE",
"842 714 CURVE SMOOTH",
"842 614 LINE",
"603 606 LINE SMOOTH",
"260 594 OFFCURVE",
"121 496 OFFCURVE",
"121 264 CURVE SMOOTH",
"121 88 OFFCURVE",
"249 -20 OFFCURVE",
"453 -20 CURVE SMOOTH"
);
},
{
closed = 1;
nodes = (
"307 54 OFFCURVE",
"203 134 OFFCURVE",
"203 270 CURVE SMOOTH",
"203 450 OFFCURVE",
"311 526 OFFCURVE",
"641 532 CURVE SMOOTH",
"842 536 LINE",
"842 334 LINE SMOOTH",
"842 194 OFFCURVE",
"638 54 OFFCURVE",
"466 54 CURVE SMOOTH"
);
}
);
width = 1079;
}
);
leftKerningGroup = a;
leftMetricsKey = "=o*1.1";
rightKerningGroup = n;
rightMetricsKey = n;
unicode = 0061;
},
{
color = 6;
glyphname = ae;
layers = (
{
anchors = (
{
name = bottom;
position = "{597, 0}";
},
{
name = ogonek;
position = "{1011, 20}";
},
{
name = top;
position = "{856, 1034}";
}
);
layerId = "258ED206-D907-4350-8EBA-CBDDA1C16BF7";
paths = (
{
closed = 1;
nodes = (
"657 -20 OFFCURVE",
"771 50 OFFCURVE",
"827 175 CURVE",
"922 52 OFFCURVE",
"1075 -20 OFFCURVE",
"1264 -20 CURVE SMOOTH",
"1493 -20 OFFCURVE",
"1728 122 OFFCURVE",
"1760 352 CURVE",
"1416 352 LINE",
"1384 272 OFFCURVE",
"1325 252 OFFCURVE",
"1254 252 CURVE SMOOTH",
"1170 252 OFFCURVE",
"1102 304 OFFCURVE",
"1104 428 CURVE",
"1756 428 LINE",
"1756 518 LINE SMOOTH",
"1756 824 OFFCURVE",
"1586 1054 OFFCURVE",
"1248 1054 CURVE SMOOTH",
"1134 1054 OFFCURVE",
"1036 1024 OFFCURVE",
"957 973 CURVE",
"884 1024 OFFCURVE",
"770 1054 OFFCURVE",
"599 1054 CURVE SMOOTH",
"333 1054 OFFCURVE",
"117 956 OFFCURVE",
"106 712 CURVE",
"421 712 LINE",
"453 782 OFFCURVE",
"528 800 OFFCURVE",
"581 802 CURVE SMOOTH",
"659 804 OFFCURVE",
"696 774 OFFCURVE",
"696 708 CURVE SMOOTH",
"696 664 LINE",
"616 664 LINE SMOOTH",
"240 664 OFFCURVE",
"66 534 OFFCURVE",
"66 310 CURVE SMOOTH",
"66 96 OFFCURVE",
"228 -20 OFFCURVE",
"423 -20 CURVE SMOOTH"
);
},
{
closed = 1;
nodes = (
"493 226 OFFCURVE",
"431 272 OFFCURVE",
"431 350 CURVE SMOOTH",
"431 452 OFFCURVE",
"572 480 OFFCURVE",
"633 480 CURVE SMOOTH",
"696 480 LINE",
"696 350 LINE SMOOTH",
"694 284 OFFCURVE",
"635 226 OFFCURVE",
"560 226 CURVE SMOOTH"
);
},
{
closed = 1;
nodes = (
"1102 724 OFFCURVE",
"1168 792 OFFCURVE",
"1248 792 CURVE SMOOTH",
"1346 792 OFFCURVE",
"1397 724 OFFCURVE",
"1397 646 CURVE",
"1102 646 LINE"
);
}
);
width = 1826;
},
{
anchors = (
{
name = bottom;
position = "{548, 0}";
},
{
name = ogonek;
position = "{907, 28}";
},
{
name = top;
position = "{903, 1034}";
}
);
layerId = "91AB5BCA-6A50-42DA-B2F7-8181BF189245";
paths = (
{
closed = 1;
nodes = (
"640 -20 OFFCURVE",
"839 86 OFFCURVE",
"882 250 CURVE",
"953 75 OFFCURVE",
"1104 -20 OFFCURVE",
"1296 -20 CURVE SMOOTH",
"1482 -20 OFFCURVE",
"1655 75 OFFCURVE",
"1696 276 CURVE",
"1611 276 LINE",
"1587 140 OFFCURVE",
"1460 56 OFFCURVE",
"1296 56 CURVE SMOOTH",
"1034 56 OFFCURVE",
"921 264 OFFCURVE",
"921 498 CURVE",
"1708 498 LINE",
"1708 554 LINE SMOOTH",
"1708 872 OFFCURVE",
"1551 1054 OFFCURVE",
"1284 1054 CURVE SMOOTH",
"1106 1054 OFFCURVE",
"975 974 OFFCURVE",
"902 830 CURVE",
"857 971 OFFCURVE",
"726 1054 OFFCURVE",
"550 1054 CURVE SMOOTH",
"309 1054 OFFCURVE",
"183 904 OFFCURVE",
"174 758 CURVE",
"258 758 LINE",
"279 900 OFFCURVE",
"395 978 OFFCURVE",
"546 978 CURVE SMOOTH",
"721 978 OFFCURVE",
"842 880 OFFCURVE",
"842 714 CURVE SMOOTH",
"842 614 LINE",
"603 606 LINE SMOOTH",
"260 595 OFFCURVE",
"121 496 OFFCURVE",
"121 264 CURVE SMOOTH",
"121 88 OFFCURVE",
"249 -20 OFFCURVE",
"453 -20 CURVE SMOOTH"
);
},
{
closed = 1;
nodes = (
"307 54 OFFCURVE",
"203 134 OFFCURVE",
"203 270 CURVE SMOOTH",
"203 450 OFFCURVE",
"311 525 OFFCURVE",
"641 532 CURVE SMOOTH",
"836 536 LINE",
"837 383 LINE SMOOTH",
"837 243 OFFCURVE",
"696 54 OFFCURVE",
"466 54 CURVE SMOOTH"
);
},
{
closed = 1;
nodes = (
"921 768 OFFCURVE",
"1028 978 OFFCURVE",
"1282 978 CURVE SMOOTH",
"1516 978 OFFCURVE",
"1625 804 OFFCURVE",
"1625 574 CURVE",
"923 574 LINE"
);
}
);
width = 1829;
}
);
leftKerningGroup = a;
leftMetricsKey = a;
rightKerningGroup = o;
rightMetricsKey = e;
unicode = 00E6;
},
{
color = 6;
glyphname = b;
layers = (
{
anchors = (
{
name = bottom;
position = "{730, 0}";
}
);
layerId = "258ED206-D907-4350-8EBA-CBDDA1C16BF7";
paths = (
{
closed = 1;
nodes = (
"1020 -20 OFFCURVE",
"1178 194 OFFCURVE",
"1178 524 CURVE SMOOTH",
"1178 850 OFFCURVE",
"1030 1054 OFFCURVE",
"776 1054 CURVE SMOOTH",
"673 1054 OFFCURVE",
"554 1022 OFFCURVE",
"490 916 CURVE",
"490 1486 LINE",
"100 1486 LINE",
"100 0 LINE",
"375 0 LINE",
"421 212 LINE",
"468 68 OFFCURVE",
"566 -20 OFFCURVE",
"734 -20 CURVE SMOOTH"
);
},
{
closed = 1;
nodes = (
"551 252 OFFCURVE",
"490 320 OFFCURVE",
"490 524 CURVE SMOOTH",
"490 708 OFFCURVE",
"551 780 OFFCURVE",
"642 780 CURVE SMOOTH",
"730 780 OFFCURVE",
"802 716 OFFCURVE",
"802 524 CURVE SMOOTH",
"802 320 OFFCURVE",
"730 252 OFFCURVE",
"642 252 CURVE"
);
}
);
width = 1238;
},
{
anchors = (
{
name = bottom;
position = "{619, 0}";
}
);
layerId = "91AB5BCA-6A50-42DA-B2F7-8181BF189245";
paths = (
{
closed = 1;
nodes = (
"921 -20 OFFCURVE",
"1060 196 OFFCURVE",
"1060 520 CURVE SMOOTH",
"1060 883 OFFCURVE",
"887 1054 OFFCURVE",
"627 1054 CURVE SMOOTH",
"380 1054 OFFCURVE",
"278 893 OFFCURVE",
"260 846 CURVE",
"260 1486 LINE",
"180 1486 LINE",
"180 0 LINE",
"252 0 LINE",
"258 212 LINE",
"273 164 OFFCURVE",
"346 -20 OFFCURVE",
"627 -20 CURVE SMOOTH"
);
},
{
closed = 1;
nodes = (
"354 54 OFFCURVE",
"260 200 OFFCURVE",
"260 533 CURVE SMOOTH",
"264 805 OFFCURVE",
"354 978 OFFCURVE",
"619 978 CURVE SMOOTH",
"860 978 OFFCURVE",
"974 800 OFFCURVE",
"974 533 CURVE SMOOTH",
"974 207 OFFCURVE",
"834 54 OFFCURVE",
"625 54 CURVE SMOOTH"
);
}
);
width = 1170;
}
);
leftKerningGroup = n;
leftMetricsKey = n;
rightKerningGroup = o;
rightMetricsKey = o;
unicode = 0062;
},
{
color = 6;
glyphname = c;
layers = (
{
anchors = (
{
name = bottom;
position = "{579, 0}";
},
{
name = top;
position = "{578, 1034}";
}
);
layerId = "258ED206-D907-4350-8EBA-CBDDA1C16BF7";
paths = (
{
closed = 1;
nodes = (
"864 -20 OFFCURVE",
"1030 180 OFFCURVE",
"1030 400 CURVE",
"724 400 LINE",
"718 358 OFFCURVE",
"690 248 OFFCURVE",
"592 248 CURVE SMOOTH",
"491 248 OFFCURVE",
"418 346 OFFCURVE",
"418 516 CURVE SMOOTH",
"418 682 OFFCURVE",
"484 766 OFFCURVE",
"584 766 CURVE SMOOTH",
"684 766 OFFCURVE",
"712 670 OFFCURVE",
"720 612 CURVE",
"1035 612 LINE",
"1030 844 OFFCURVE",
"873 1054 OFFCURVE",
"581 1054 CURVE SMOOTH",
"282 1054 OFFCURVE",
"60 832 OFFCURVE",
"60 512 CURVE SMOOTH",
"60 196 OFFCURVE",
"285 -20 OFFCURVE",
"581 -20 CURVE SMOOTH"
);
}
);
width = 1101;
},
{
anchors = (
{
name = bottom;
position = "{564, 0}";
},
{
name = top;
position = "{565, 1034}";
}
);
layerId = "91AB5BCA-6A50-42DA-B2F7-8181BF189245";
rightMetricsKey = "=e";
paths = (
{
closed = 1;
nodes = (
"748 -20 OFFCURVE",
"917 75 OFFCURVE",
"958 276 CURVE",
"873 276 LINE",
"849 140 OFFCURVE",
"726 54 OFFCURVE",
"562 54 CURVE SMOOTH",
"313 54 OFFCURVE",
"193 239 OFFCURVE",
"193 514 CURVE SMOOTH",
"193 830 OFFCURVE",
"345 978 OFFCURVE",
"562 978 CURVE SMOOTH",
"726 978 OFFCURVE",
"849 892 OFFCURVE",
"873 756 CURVE",
"958 756 LINE",
"917 957 OFFCURVE",
"748 1054 OFFCURVE",
"562 1054 CURVE SMOOTH",
"255 1054 OFFCURVE",
"110 837 OFFCURVE",
"110 514 CURVE SMOOTH",
"110 150 OFFCURVE",
"291 -20 OFFCURVE",
"562 -20 CURVE SMOOTH"
);
}
);
width = 1079;
}
);
leftKerningGroup = o;
leftMetricsKey = o;
rightKerningGroup = o;
rightMetricsKey = e;
unicode = 0063;
},
{
color = 3;
glyphname = ccedilla;
layers = (
{
anchors = (
{
name = _bottom;
position = "{579, 0}";
}
);
components = (
{
name = c;
}
);
layerId = "258ED206-D907-4350-8EBA-CBDDA1C16BF7";
paths = (
{
closed = 1;
nodes = (
"727 -438 OFFCURVE",
"849 -372 OFFCURVE",
"849 -268 CURVE SMOOTH",
"849 -194 OFFCURVE",
"789 -104 OFFCURVE",
"625 -104 CURVE",
"667 10 LINE",
"509 10 LINE",
"435 -162 LINE SMOOTH",
"425 -184 OFFCURVE",
"435 -186 OFFCURVE",
"455 -186 CURVE SMOOTH",
"589 -186 OFFCURVE",
"633 -214 OFFCURVE",
"633 -262 CURVE SMOOTH",
"633 -294 OFFCURVE",
"595 -314 OFFCURVE",
"541 -314 CURVE SMOOTH",
"483 -314 OFFCURVE",
"419 -288 OFFCURVE",
"371 -262 CURVE",
"323 -380 LINE",
"401 -426 OFFCURVE",
"495 -438 OFFCURVE",
"589 -438 CURVE SMOOTH"
);
}
);
width = 1101;
},
{
anchors = (
{
name = _bottom;
position = "{564, 0}";
}
);
components = (
{
name = c;
}
);
layerId = "91AB5BCA-6A50-42DA-B2F7-8181BF189245";
paths = (
{
closed = 1;
nodes = (
"618 -398 OFFCURVE",
"706 -350 OFFCURVE",
"706 -252 CURVE SMOOTH",
"706 -190 OFFCURVE",
"672 -124 OFFCURVE",
"550 -114 CURVE",
"600 10 LINE",
"534 10 LINE",
"462 -154 LINE SMOOTH",
"460 -158 OFFCURVE",
"460 -162 OFFCURVE",
"470 -162 CURVE SMOOTH",
"572 -166 OFFCURVE",
"620 -194 OFFCURVE",
"620 -256 CURVE SMOOTH",
"620 -310 OFFCURVE",
"586 -340 OFFCURVE",
"504 -340 CURVE SMOOTH",
"444 -340 OFFCURVE",
"412 -322 OFFCURVE",
"384 -296 CURVE",
"362 -352 LINE",
"404 -382 OFFCURVE",
"452 -398 OFFCURVE",
"512 -398 CURVE SMOOTH"
);
}
);
width = 1079;
}
);
leftKerningGroup = o;
rightKerningGroup = o;
unicode = 00E7;
},
{
color = 6;
glyphname = d;
layers = (
{
anchors = (
{
name = bottom;
position = "{544, 0}";
},
{
name = caron;
position = "{1138, 1486}";
},
{
name = center;
position = "{607, 516}";
}
);
layerId = "258ED206-D907-4350-8EBA-CBDDA1C16BF7";
paths = (
{
closed = 1;
nodes = (
"672 -20 OFFCURVE",
"770 68 OFFCURVE",
"817 212 CURVE",
"863 0 LINE",
"1138 0 LINE",
"1138 1486 LINE",
"748 1486 LINE",
"748 916 LINE",
"684 1022 OFFCURVE",
"565 1054 OFFCURVE",
"462 1054 CURVE SMOOTH",
"208 1054 OFFCURVE",
"60 850 OFFCURVE",
"60 524 CURVE SMOOTH",
"60 194 OFFCURVE",
"218 -20 OFFCURVE",
"504 -20 CURVE SMOOTH"
);
},
{
closed = 1;
nodes = (
"508 252 OFFCURVE",
"436 320 OFFCURVE",
"436 524 CURVE SMOOTH",
"436 716 OFFCURVE",
"508 780 OFFCURVE",
"596 780 CURVE SMOOTH",
"687 780 OFFCURVE",
"748 708 OFFCURVE",
"748 524 CURVE SMOOTH",
"748 320 OFFCURVE",
"687 252 OFFCURVE",
"596 252 CURVE"
);
}
);
width = 1238;
},
{
anchors = (
{
name = bottom;
position = "{545, 0}";
},
{
name = caron;
position = "{990, 1486}";
},
{
name = center;
position = "{598, 516}";
}
);
layerId = "91AB5BCA-6A50-42DA-B2F7-8181BF189245";
paths = (
{
closed = 1;
nodes = (
"824 -20 OFFCURVE",
"897 164 OFFCURVE",
"912 212 CURVE",
"918 0 LINE",
"990 0 LINE",
"990 1486 LINE",
"910 1486 LINE",
"910 846 LINE",
"892 893 OFFCURVE",
"790 1054 OFFCURVE",
"543 1054 CURVE SMOOTH",
"249 1054 OFFCURVE",
"110 840 OFFCURVE",
"110 520 CURVE SMOOTH",
"110 153 OFFCURVE",
"283 -20 OFFCURVE",
"543 -20 CURVE SMOOTH"
);
},
{
closed = 1;
nodes = (
"308 54 OFFCURVE",
"196 246 OFFCURVE",
"196 533 CURVE SMOOTH",
"196 836 OFFCURVE",
"338 978 OFFCURVE",
"551 978 CURVE SMOOTH",
"816 978 OFFCURVE",
"906 805 OFFCURVE",
"910 533 CURVE SMOOTH",
"910 200 OFFCURVE",
"816 54 OFFCURVE",
"545 54 CURVE SMOOTH"
);
}
);
width = 1170;
}
);
leftKerningGroup = o;
leftMetricsKey = o;
rightKerningGroup = u;
rightMetricsKey = "=|n";
unicode = 0064;
},
{
color = 6;
glyphname = eth;
layers = (
{
layerId = "258ED206-D907-4350-8EBA-CBDDA1C16BF7";
paths = (
{
closed = 1;
nodes = (
"904 -20 OFFCURVE",
"1108 185 OFFCURVE",
"1108 563 CURVE SMOOTH",
"1108 1006 OFFCURVE",
"803 1344 OFFCURVE",
"594 1481 CURVE",
"301 1481 LINE",
"436 1345 OFFCURVE",
"666 1104 OFFCURVE",
"666 847 CURVE",
"890 683 LINE",
"875 911 OFFCURVE",
"740 1014 OFFCURVE",
"546 1014 CURVE SMOOTH",
"314 1014 OFFCURVE",
"60 850 OFFCURVE",
"60 492 CURVE SMOOTH",
"60 200 OFFCURVE",
"283 -20 OFFCURVE",
"575 -20 CURVE SMOOTH"
);
},
{
closed = 1;
nodes = (
"482 262 OFFCURVE",
"438 372 OFFCURVE",
"438 509 CURVE SMOOTH",
"438 646 OFFCURVE",
"482 747 OFFCURVE",
"586 747 CURVE SMOOTH",
"690 747 OFFCURVE",
"732 646 OFFCURVE",
"732 509 CURVE SMOOTH",
"732 372 OFFCURVE",
"690 262 OFFCURVE",
"586 262 CURVE SMOOTH"
);
},
{
closed = 1;
nodes = (
"1050 1291 LINE",
"1002 1446 LINE",
"250 1227 LINE",
"297 1072 LINE"
);
}
);
width = 1168;
},
{
layerId = "91AB5BCA-6A50-42DA-B2F7-8181BF189245";
paths = (
{
closed = 1;
nodes = (
"872 -20 OFFCURVE",
"1002 217 OFFCURVE",
"1002 514 CURVE SMOOTH",
"1002 985 OFFCURVE",
"770 1291 OFFCURVE",
"524 1480 CURVE",
"417 1480 LINE",
"560 1376 OFFCURVE",
"782 1172 OFFCURVE",
"865 877 CURVE",
"965 762 LINE",
"920 923 OFFCURVE",
"790 1054 OFFCURVE",
"563 1054 CURVE SMOOTH",
"257 1054 OFFCURVE",
"110 830 OFFCURVE",
"110 514 CURVE SMOOTH",
"110 214 OFFCURVE",
"238 -20 OFFCURVE",
"559 -20 CURVE SMOOTH"
);
},
{
closed = 1;
nodes = (
"287 54 OFFCURVE",
"192 268 OFFCURVE",
"192 514 CURVE SMOOTH",
"192 792 OFFCURVE",
"314 978 OFFCURVE",
"563 978 CURVE SMOOTH",
"789 978 OFFCURVE",
"920 818 OFFCURVE",
"920 514 CURVE SMOOTH",
"920 253 OFFCURVE",
"813 54 OFFCURVE",
"559 54 CURVE SMOOTH"
);
},
{
closed = 1;
nodes = (
"944 1348 LINE",
"926 1414 LINE",
"367 1240 LINE",
"388 1175 LINE"
);
}
);
width = 1112;
},
{
associatedMasterId = "258ED206-D907-4350-8EBA-CBDDA1C16BF7";
layerId = "A786CAF7-1AB1-4C58-A8A9-902629D12104";
name = "Jul 14 20, 15:59";
paths = (
{
closed = 1;
nodes = (
"928 -20 OFFCURVE",
"1148 208 OFFCURVE",
"1148 560 CURVE SMOOTH",
"1148 830 OFFCURVE",
"1094 1064 OFFCURVE",
"993 1236 CURVE",
"1053 1254 LINE",
"1053 1487 LINE",
"834 1421 LINE",
"804 1445 OFFCURVE",
"773 1464 OFFCURVE",
"740 1481 CURVE",
"277 1481 LINE",
"315 1451 OFFCURVE",
"408 1406 OFFCURVE",
"515 1326 CURVE",
"277 1255 LINE",
"277 1021 LINE",
"707 1150 LINE",
"776 1071 OFFCURVE",
"841 974 OFFCURVE",
"892 853 CURVE",
"813 964 OFFCURVE",
"687 1016 OFFCURVE",
"559 1016 CURVE SMOOTH",
"314 1016 OFFCURVE",
"60 851 OFFCURVE",
"60 492 CURVE SMOOTH",
"60 200 OFFCURVE",
"283 -20 OFFCURVE",
"602 -20 CURVE SMOOTH"
);
},
{
closed = 1;
nodes = (
"460 262 OFFCURVE",
"438 414 OFFCURVE",
"438 524 CURVE SMOOTH",
"438 636 OFFCURVE",
"460 776 OFFCURVE",
"586 776 CURVE SMOOTH",
"710 776 OFFCURVE",
"732 636 OFFCURVE",
"732 524 CURVE SMOOTH",
"732 414 OFFCURVE",
"710 262 OFFCURVE",
"586 262 CURVE SMOOTH"
);
}
);
width = 1208;
}
);
leftKerningGroup = o;
leftMetricsKey = o;
rightKerningGroup = o;
rightMetricsKey = o;
unicode = 00F0;
},
{
color = 3;
glyphname = dcroat;
layers = (
{
components = (
{
name = d;
}
);
layerId = "258ED206-D907-4350-8EBA-CBDDA1C16BF7";
paths = (
{
closed = 1;
nodes = (
"1258 1132 LINE",
"1258 1340 LINE",
"534 1340 LINE",
"534 1132 LINE"
);
}
);
width = 1318;
},
{
components = (
{
name = d;
}
);
layerId = "91AB5BCA-6A50-42DA-B2F7-8181BF189245";
paths = (
{
closed = 1;
nodes = (
"1130 1222 LINE",
"1130 1290 LINE",
"568 1290 LINE",
"568 1222 LINE"
);
}
);
width = 1190;
}
);
leftKerningGroup = o;
leftMetricsKey = d;
unicode = 0111;
},
{
color = 6;
glyphname = e;
layers = (
{
anchors = (
{
name = bottom;
position = "{600, 0}";
},
{
name = ogonek;
position = "{850, 50}";
},
{
name = top;
position = "{594, 1034}";
}
);
layerId = "258ED206-D907-4350-8EBA-CBDDA1C16BF7";
paths = (
{
closed = 1;
nodes = (
"837 -20 OFFCURVE",
"1072 122 OFFCURVE",
"1104 352 CURVE",
"760 352 LINE",
"728 272 OFFCURVE",
"669 252 OFFCURVE",
"598 252 CURVE SMOOTH",
"514 252 OFFCURVE",
"446 304 OFFCURVE",
"448 428 CURVE",
"1100 428 LINE",
"1100 518 LINE",
"1100 824 OFFCURVE",
"930 1054 OFFCURVE",
"592 1054 CURVE SMOOTH",
"260 1054 OFFCURVE",
"66 800 OFFCURVE",
"66 504 CURVE SMOOTH",
"66 190 OFFCURVE",
"285 -20 OFFCURVE",
"608 -20 CURVE SMOOTH"
);
},
{
closed = 1;
nodes = (
"446 724 OFFCURVE",
"512 792 OFFCURVE",
"592 792 CURVE SMOOTH",
"690 792 OFFCURVE",
"741 724 OFFCURVE",
"741 646 CURVE",
"446 646 LINE"
);
}
);
width = 1170;
},
{
anchors = (
{
name = bottom;
position = "{567, 0}";
},
{
name = ogonek;
position = "{755, 36}";
},
{
name = top;
position = "{569, 1034}";
}
);
layerId = "91AB5BCA-6A50-42DA-B2F7-8181BF189245";
paths = (
{
closed = 1;
nodes = (
"767 -20 OFFCURVE",
"940 75 OFFCURVE",
"981 276 CURVE",
"896 276 LINE",
"872 140 OFFCURVE",
"745 56 OFFCURVE",
"581 56 CURVE SMOOTH",
"319 56 OFFCURVE",
"206 264 OFFCURVE",
"206 498 CURVE",
"993 498 LINE",
"993 554 LINE",
"993 872 OFFCURVE",
"836 1054 OFFCURVE",
"569 1054 CURVE SMOOTH",
"284 1054 OFFCURVE",
"121 850 OFFCURVE",
"121 508 CURVE SMOOTH",
"121 170 OFFCURVE",
"309 -20 OFFCURVE",
"581 -20 CURVE SMOOTH"
);
},
{
closed = 1;
nodes = (
"206 768 OFFCURVE",
"313 978 OFFCURVE",
"567 978 CURVE SMOOTH",
"801 978 OFFCURVE",
"910 804 OFFCURVE",
"910 574 CURVE",
"208 574 LINE"
);
}
);
width = 1114;
}
);
leftKerningGroup = o;
leftMetricsKey = "=o*1.1";
rightKerningGroup = o;
rightMetricsKey = "=o*1.1";
unicode = 0065;
},
{
color = 6;
glyphname = eogonek;
layers = (
{
anchors = (
{
name = bottom;
position = "{600, 0}";
},
{
name = ogonek;
position = "{850, 50}";
},
{
name = top;
position = "{594, 1034}";
}
);
layerId = "258ED206-D907-4350-8EBA-CBDDA1C16BF7";
paths = (
{
closed = 1;
nodes = (
"782 -310 OFFCURVE",
"874 -282 OFFCURVE",
"914 -256 CURVE",
"914 -92 LINE",
"866 -120 OFFCURVE",
"826 -142 OFFCURVE",
"768 -142 CURVE SMOOTH",
"732 -142 OFFCURVE",
"714 -124 OFFCURVE",
"714 -86 CURVE SMOOTH",
"714 -46 OFFCURVE",
"762 -16 OFFCURVE",
"857 37 CURVE SMOOTH",
"1006 120 OFFCURVE",
"1085 214 OFFCURVE",
"1104 352 CURVE",
"760 352 LINE",
"728 272 OFFCURVE",
"669 252 OFFCURVE",
"598 252 CURVE SMOOTH",
"514 252 OFFCURVE",
"446 304 OFFCURVE",
"448 428 CURVE",
"1100 428 LINE",
"1100 518 LINE SMOOTH",
"1100 824 OFFCURVE",
"930 1054 OFFCURVE",
"592 1054 CURVE SMOOTH",
"260 1054 OFFCURVE",
"66 800 OFFCURVE",
"66 504 CURVE SMOOTH",
"66 221 OFFCURVE",
"243 23 OFFCURVE",
"514 -14 CURVE",
"459 -53 OFFCURVE",
"446 -96 OFFCURVE",
"446 -140 CURVE SMOOTH",
"446 -256 OFFCURVE",
"540 -310 OFFCURVE",
"682 -310 CURVE SMOOTH"
);
},
{
closed = 1;
nodes = (
"446 724 OFFCURVE",
"512 792 OFFCURVE",
"592 792 CURVE SMOOTH",
"690 792 OFFCURVE",
"741 724 OFFCURVE",
"741 646 CURVE",
"446 646 LINE"
);
}
);
width = 1170;
},
{
anchors = (
{
name = bottom;
position = "{567, 0}";
},
{
name = ogonek;
position = "{755, 36}";
},
{
name = top;
position = "{569, 1034}";
}
);
layerId = "91AB5BCA-6A50-42DA-B2F7-8181BF189245";
paths = (
{
closed = 1;
nodes = (
"729 -316 OFFCURVE",
"793 -298 OFFCURVE",
"823 -282 CURVE",
"823 -220 LINE",
"805 -230 OFFCURVE",
"747 -250 OFFCURVE",
"681 -250 CURVE SMOOTH",
"601 -250 OFFCURVE",
"569 -222 OFFCURVE",
"569 -168 CURVE SMOOTH",
"569 -95 OFFCURVE",
"626 -45 OFFCURVE",
"749 9 CURVE SMOOTH",
"863 59 OFFCURVE",
"953 138 OFFCURVE",
"981 276 CURVE",
"896 276 LINE",
"872 140 OFFCURVE",
"745 56 OFFCURVE",
"581 56 CURVE SMOOTH",
"319 56 OFFCURVE",
"206 264 OFFCURVE",
"206 498 CURVE",
"993 498 LINE",
"993 554 LINE SMOOTH",
"993 872 OFFCURVE",
"836 1054 OFFCURVE",
"569 1054 CURVE SMOOTH",
"284 1054 OFFCURVE",
"121 850 OFFCURVE",
"121 508 CURVE SMOOTH",
"121 175 OFFCURVE",
"304 -15 OFFCURVE",
"570 -20 CURVE",
"506 -59 OFFCURVE",
"483 -107 OFFCURVE",
"483 -164 CURVE SMOOTH",
"483 -252 OFFCURVE",
"537 -316 OFFCURVE",
"661 -316 CURVE SMOOTH"
);
},
{
closed = 1;
nodes = (
"206 768 OFFCURVE",
"313 978 OFFCURVE",
"567 978 CURVE SMOOTH",
"801 978 OFFCURVE",
"910 804 OFFCURVE",
"910 574 CURVE",
"208 574 LINE"
);
}
);
width = 1114;
}
);
leftKerningGroup = o;
rightKerningGroup = o;
unicode = 0119;
},
{
color = 6;
glyphname = schwa;
layers = (
{
anchors = (
{
name = bottom;
position = "{576, 0}";
},
{
name = ogonek;
position = "{320, 984}";
},
{
name = top;
position = "{570, 1034}";
}
);
layerId = "258ED206-D907-4350-8EBA-CBDDA1C16BF7";
paths = (
{
closed = 1;
nodes = (
"910 -20 OFFCURVE",
"1104 234 OFFCURVE",
"1104 530 CURVE SMOOTH",
"1104 844 OFFCURVE",
"885 1054 OFFCURVE",
"562 1054 CURVE SMOOTH",
"333 1054 OFFCURVE",
"98 912 OFFCURVE",
"66 682 CURVE",
"410 682 LINE",
"442 762 OFFCURVE",
"501 782 OFFCURVE",
"572 782 CURVE SMOOTH",
"656 782 OFFCURVE",
"724 730 OFFCURVE",
"722 606 CURVE",
"70 606 LINE",
"70 516 LINE",
"70 210 OFFCURVE",
"240 -20 OFFCURVE",
"578 -20 CURVE SMOOTH"
);
},
{
closed = 1;
nodes = (
"480 242 OFFCURVE",
"429 310 OFFCURVE",
"429 388 CURVE",
"724 388 LINE",
"724 310 OFFCURVE",
"658 242 OFFCURVE",
"578 242 CURVE SMOOTH"
);
}
);
width = 1170;
},
{
anchors = (
{
name = bottom;
position = "{545, 0}";
},
{
name = ogonek;
position = "{359, 998}";
},
{
name = top;
position = "{547, 1034}";
}
);
layerId = "91AB5BCA-6A50-42DA-B2F7-8181BF189245";
paths = (
{
closed = 1;
nodes = (
"830 -20 OFFCURVE",
"993 184 OFFCURVE",
"993 526 CURVE SMOOTH",
"993 864 OFFCURVE",
"805 1054 OFFCURVE",
"533 1054 CURVE SMOOTH",
"347 1054 OFFCURVE",
"174 959 OFFCURVE",
"133 758 CURVE",
"218 758 LINE",
"242 894 OFFCURVE",
"369 978 OFFCURVE",
"533 978 CURVE SMOOTH",
"795 978 OFFCURVE",
"908 770 OFFCURVE",
"908 536 CURVE",
"121 536 LINE",
"121 480 LINE",
"121 162 OFFCURVE",
"278 -20 OFFCURVE",
"545 -20 CURVE SMOOTH"
);
},
{
closed = 1;
nodes = (
"313 56 OFFCURVE",
"204 230 OFFCURVE",
"204 460 CURVE",
"906 460 LINE",
"908 266 OFFCURVE",
"801 56 OFFCURVE",
"547 56 CURVE SMOOTH"
);
}
);
width = 1114;
}
);
leftKerningGroup = o;
leftMetricsKey = "=|e";
rightKerningGroup = o;
rightMetricsKey = "=|e";
unicode = 0259;
},
{
color = 6;
glyphname = f;
layers = (
{
layerId = "258ED206-D907-4350-8EBA-CBDDA1C16BF7";
leftMetricsKey = "=t";
rightMetricsKey = "=x";
paths = (
{
closed = 1;
nodes = (
"586 0 LINE",
"586 770 LINE",
"774 770 LINE",
"774 1034 LINE",
"578 1034 LINE",
"578 1094 LINE SMOOTH",
"578 1170 OFFCURVE",
"600 1194 OFFCURVE",
"664 1194 CURVE SMOOTH",
"784 1194 LINE",
"782 1446 LINE",
"506 1446 LINE SMOOTH",
"316 1446 OFFCURVE",
"196 1342 OFFCURVE",
"196 1172 CURVE SMOOTH",
"196 1034 LINE",
"30 1034 LINE",
"30 770 LINE",
"196 770 LINE",
"196 0 LINE"
);
}
);
width = 794;
},
{
layerId = "91AB5BCA-6A50-42DA-B2F7-8181BF189245";
paths = (
{
closed = 1;
nodes = (
"418 0 LINE",
"418 966 LINE",
"702 966 LINE",
"702 1034 LINE",
"418 1034 LINE",
"418 1222 LINE SMOOTH",
"418 1322 OFFCURVE",
"444 1378 OFFCURVE",
"540 1378 CURVE SMOOTH",
"712 1378 LINE",
"712 1446 LINE",
"560 1446 LINE SMOOTH",
"404 1446 OFFCURVE",
"340 1366 OFFCURVE",
"340 1206 CURVE SMOOTH",
"340 1034 LINE",
"94 1034 LINE",
"94 966 LINE",
"340 966 LINE",
"340 0 LINE"
);
}
);
width = 791;
}
);
leftKerningGroup = f;
leftMetricsKey = "=t*.75";
rightKerningGroup = f;
rightMetricsKey = "=t*.75";
unicode = 0066;
},
{
color = 6;
glyphname = g;
layers = (
{
anchors = (
{
name = top;
position = "{616, 1034}";
}
);
layerId = "258ED206-D907-4350-8EBA-CBDDA1C16BF7";
paths = (
{
closed = 1;
nodes = (
"1010 -342 OFFCURVE",
"1208 -194 OFFCURVE",
"1208 6 CURVE SMOOTH",
"1208 166 OFFCURVE",
"1082 296 OFFCURVE",
"796 316 CURVE SMOOTH",
"708 322 OFFCURVE",
"626 326 OFFCURVE",
"590 328 CURVE SMOOTH",
"488 334 OFFCURVE",
"424 334 OFFCURVE",
"424 362 CURVE",
"424 372 OFFCURVE",
"432 376 OFFCURVE",
"452 380 CURVE",
"486 376 OFFCURVE",
"558 374 OFFCURVE",
"590 374 CURVE SMOOTH",
"918 374 OFFCURVE",
"1092 554 OFFCURVE",
"1092 730 CURVE SMOOTH",
"1092 742 OFFCURVE",
"1088 780 OFFCURVE",
"1080 810 CURVE",
"1256 834 LINE",
"1258 1110 LINE",
"1144 1062 OFFCURVE",
"996 1006 OFFCURVE",
"918 976 CURVE",
"842 1016 OFFCURVE",
"762 1050 OFFCURVE",
"614 1050 CURVE SMOOTH",
"332 1050 OFFCURVE",
"88 936 OFFCURVE",
"88 728 CURVE SMOOTH",
"88 618 OFFCURVE",
"160 486 OFFCURVE",
"310 420 CURVE",
"148 398 OFFCURVE",
"72 320 OFFCURVE",
"72 238 CURVE SMOOTH",
"72 124 OFFCURVE",
"188 80 OFFCURVE",
"218 64 CURVE",
"202 60 OFFCURVE",
"12 30 OFFCURVE",
"12 -104 CURVE SMOOTH",
"12 -236 OFFCURVE",
"210 -342 OFFCURVE",
"618 -342 CURVE SMOOTH"
);
},
{
closed = 1;
nodes = (
"480 -138 OFFCURVE",
"390 -124 OFFCURVE",
"390 -58 CURVE SMOOTH",
"390 -24 OFFCURVE",
"416 22 OFFCURVE",
"524 16 CURVE SMOOTH",
"712 4 LINE SMOOTH",
"792 -2 OFFCURVE",
"840 -30 OFFCURVE",
"840 -74 CURVE SMOOTH",
"840 -112 OFFCURVE",
"814 -138 OFFCURVE",
"678 -138 CURVE SMOOTH"
);
},
{
closed = 1;
nodes = (
"528 578 OFFCURVE",
"478 636 OFFCURVE",
"478 714 CURVE SMOOTH",
"478 792 OFFCURVE",
"528 860 OFFCURVE",
"602 860 CURVE SMOOTH",
"676 860 OFFCURVE",
"726 792 OFFCURVE",
"726 714 CURVE SMOOTH",
"726 636 OFFCURVE",
"676 578 OFFCURVE",
"602 578 CURVE SMOOTH"
);
}
);
width = 1268;
},
{
anchors = (
{
name = top;
position = "{592, 1034}";
}
);
layerId = "91AB5BCA-6A50-42DA-B2F7-8181BF189245";
rightMetricsKey = "=x*1.3";
paths = (
{
closed = 1;
nodes = (
"893 -342 OFFCURVE",
"1042 -220 OFFCURVE",
"1042 -38 CURVE SMOOTH",
"1042 130 OFFCURVE",
"922 216 OFFCURVE",
"742 226 CURVE SMOOTH",
"644 232 OFFCURVE",
"568 236 OFFCURVE",
"508 240 CURVE SMOOTH",
"342 252 OFFCURVE",
"294 268 OFFCURVE",
"294 312 CURVE SMOOTH",
"294 356 OFFCURVE",
"356 404 OFFCURVE",
"562 408 CURVE SMOOTH",
"570 408 OFFCURVE",
"576 408 OFFCURVE",
"584 408 CURVE SMOOTH",
"852 408 OFFCURVE",
"978 533 OFFCURVE",
"978 720 CURVE SMOOTH",
"978 780 OFFCURVE",
"960 842 OFFCURVE",
"932 892 CURVE",
"1116 932 LINE",
"1116 1048 LINE",
"1090 1038 OFFCURVE",
"918 964 OFFCURVE",
"892 952 CURVE",
"812 1018 OFFCURVE",
"726 1050 OFFCURVE",
"598 1050 CURVE SMOOTH",
"319 1050 OFFCURVE",
"188 918 OFFCURVE",
"188 720 CURVE SMOOTH",
"188 597 OFFCURVE",
"259 502 OFFCURVE",
"366 444 CURVE",
"266 414 OFFCURVE",
"212 366 OFFCURVE",
"212 310 CURVE SMOOTH",
"212 248 OFFCURVE",
"260 226 OFFCURVE",
"298 202 CURVE",
"268 176 OFFCURVE",
"108 104 OFFCURVE",
"108 -52 CURVE SMOOTH",
"108 -249 OFFCURVE",
"295 -342 OFFCURVE",
"576 -342 CURVE SMOOTH"
);
},
{
closed = 1;
nodes = (
"319 -268 OFFCURVE",
"190 -178 OFFCURVE",
"190 -44 CURVE SMOOTH",
"190 84 OFFCURVE",
"334 172 OFFCURVE",
"396 168 CURVE SMOOTH",
"740 146 LINE SMOOTH",
"890 137 OFFCURVE",
"960 64 OFFCURVE",
"960 -38 CURVE SMOOTH",
"960 -194 OFFCURVE",
"814 -268 OFFCURVE",
"594 -268 CURVE SMOOTH"
);
},
{
closed = 1;
nodes = (
"380 482 OFFCURVE",
"266 566 OFFCURVE",
"266 724 CURVE SMOOTH",
"266 895 OFFCURVE",
"394 976 OFFCURVE",
"586 976 CURVE SMOOTH",
"774 976 OFFCURVE",
"900 896 OFFCURVE",
"900 724 CURVE SMOOTH",
"900 559 OFFCURVE",
"774 482 OFFCURVE",
"586 482 CURVE SMOOTH"
);
}
);
width = 1233;
}
);
leftKerningGroup = g;
leftMetricsKey = "=x*1.2";
rightKerningGroup = g;
rightMetricsKey = "=x";
unicode = 0067;
},
{
color = 6;
glyphname = h;
layers = (
{
anchors = (
{
name = bottom;
position = "{613, 0}";
},
{
name = top;
position = "{291, 1446}";
}
);
layerId = "258ED206-D907-4350-8EBA-CBDDA1C16BF7";
paths = (
{
closed = 1;
nodes = (
"489 0 LINE",
"489 633 LINE",
"489 701 OFFCURVE",
"554 740 OFFCURVE",
"611 740 CURVE SMOOTH",
"669 740 OFFCURVE",
"733 706 OFFCURVE",
"733 638 CURVE SMOOTH",
"733 0 LINE",
"1123 0 LINE",
"1123 688 LINE SMOOTH",
"1123 914 OFFCURVE",
"955 1034 OFFCURVE",
"762 1034 CURVE SMOOTH",
"600 1034 OFFCURVE",
"537 946 OFFCURVE",
"489 887 CURVE",
"489 1486 LINE",
"100 1486 LINE",
"100 0 LINE"
);
}
);
width = 1213;
},
{
anchors = (
{
name = bottom;
position = "{592, 0}";
},
{
name = top;
position = "{216, 1446}";
}
);
layerId = "91AB5BCA-6A50-42DA-B2F7-8181BF189245";
paths = (
{
closed = 1;
nodes = (
"258 0 LINE",
"258 720 LINE",
"258 896 OFFCURVE",
"416 978 OFFCURVE",
"599 978 CURVE SMOOTH",
"775 978 OFFCURVE",
"884 888 OFFCURVE",
"884 736 CURVE SMOOTH",
"884 0 LINE",
"962 0 LINE",
"962 766 LINE SMOOTH",
"962 936 OFFCURVE",
"807 1054 OFFCURVE",
"601 1054 CURVE SMOOTH",
"433 1054 OFFCURVE",
"306 978 OFFCURVE",
"252 880 CURVE",
"252 1486 LINE",
"180 1486 LINE",
"180 0 LINE"
);
}
);
width = 1122;
}
);
leftKerningGroup = n;
leftMetricsKey = n;
rightKerningGroup = n;
rightMetricsKey = n;
unicode = 0068;
},
{
color = 3;
glyphname = hbar;
layers = (
{
components = (
{
name = h;
transform = "{1, 0, 0, 1, 78, 0}";
}
);
layerId = "258ED206-D907-4350-8EBA-CBDDA1C16BF7";
paths = (
{
closed = 1;
nodes = (
"762 1132 LINE",
"762 1340 LINE",
"40 1340 LINE",
"40 1132 LINE"
);
}
);
width = 1291;
},
{
components = (
{
name = h;
transform = "{1, 0, 0, 1, -4, 0}";
}
);
layerId = "91AB5BCA-6A50-42DA-B2F7-8181BF189245";
paths = (
{
closed = 1;
nodes = (
"604 1222 LINE",
"604 1290 LINE",
"40 1290 LINE",
"40 1222 LINE"
);
}
);
width = 1118;
}
);
leftKerningGroup = n;
rightKerningGroup = n;
rightMetricsKey = h;
unicode = 0127;
},
{
color = 6;
glyphname = i;
layers = (
{
anchors = (
{
name = bottom;
position = "{285, 0}";
}
);
layerId = "258ED206-D907-4350-8EBA-CBDDA1C16BF7";
paths = (
{
closed = 1;
nodes = (
"470 0 LINE",
"470 1034 LINE",
"100 1034 LINE",
"100 0 LINE"
);
},
{
closed = 1;
nodes = (
"470 1118 LINE",
"470 1446 LINE",
"100 1446 LINE",
"100 1118 LINE"
);
}
);
width = 570;
},
{
anchors = (
{
name = bottom;
position = "{228, 0}";
}
);
layerId = "91AB5BCA-6A50-42DA-B2F7-8181BF189245";
paths = (
{
closed = 1;
nodes = (
"268 0 LINE",
"268 1034 LINE",
"189 1034 LINE",
"189 0 LINE"
);
},
{
closed = 1;
nodes = (
"275 1324 LINE",
"275 1444 LINE",
"180 1444 LINE",
"180 1324 LINE"
);
}
);
width = 455;
}
);
leftKerningGroup = n;
leftMetricsKey = n;
rightKerningGroup = u;
rightMetricsKey = "=|n";
unicode = 0069;
},
{
color = 6;
glyphname = idotless;
layers = (
{
anchors = (
{
name = ogonek;
position = "{434, 18}";
},
{
name = top;
position = "{292, 1034}";
}
);
layerId = "258ED206-D907-4350-8EBA-CBDDA1C16BF7";
paths = (
{
closed = 1;
nodes = (
"471 0 LINE",
"471 1034 LINE",
"100 1034 LINE",
"100 0 LINE"
);
}
);
width = 571;
},
{
anchors = (
{
name = ogonek;
position = "{243, 26}";
},
{
name = top;
position = "{218, 1034}";
}
);
layerId = "91AB5BCA-6A50-42DA-B2F7-8181BF189245";
paths = (
{
closed = 1;
nodes = (
"258 0 LINE",
"258 1034 LINE",
"180 1034 LINE",
"180 0 LINE"
);
}
);
width = 438;
}
);
leftKerningGroup = n;
leftMetricsKey = i;
rightKerningGroup = u;
rightMetricsKey = i;
unicode = 0131;
},
{
color = 6;
glyphname = j;
layers = (
{
layerId = "258ED206-D907-4350-8EBA-CBDDA1C16BF7";
paths = (
{
closed = 1;
nodes = (
"393 -332 OFFCURVE",
"524 -200 OFFCURVE",
"524 56 CURVE SMOOTH",
"524 1034 LINE",
"135 1034 LINE",
"135 56 LINE",
"135 14 OFFCURVE",
"114 -12 OFFCURVE",
"41 -28 CURVE",
"-20 -38 LINE",
"-18 -298 LINE",
"-18 -298 OFFCURVE",
"13 -332 OFFCURVE",
"117 -332 CURVE"
);
},
{
closed = 1;
nodes = (
"524 1118 LINE",
"524 1446 LINE",
"135 1446 LINE",
"135 1118 LINE"
);
}
);
width = 624;
},
{
layerId = "91AB5BCA-6A50-42DA-B2F7-8181BF189245";
paths = (
{
closed = 1;
nodes = (
"243 -332 OFFCURVE",
"285 -260 OFFCURVE",
"285 -100 CURVE SMOOTH",
"285 1034 LINE",
"207 1034 LINE",
"207 -90 LINE SMOOTH",
"207 -214 OFFCURVE",
"167 -258 OFFCURVE",
"64 -260 CURVE SMOOTH",
"-60 -262 LINE",
"-60 -314 LINE SMOOTH",
"-60 -314 OFFCURVE",
"-51 -332 OFFCURVE",
"66 -332 CURVE SMOOTH"
);
},
{
closed = 1;
nodes = (
"293 1324 LINE",
"293 1444 LINE",
"197 1444 LINE",
"197 1324 LINE"
);
}
);
width = 473;
}
);
leftKerningGroup = j;
rightKerningGroup = u;
rightMetricsKey = "=|n";
unicode = 006A;
},
{
color = 6;
glyphname = jdotless;
layers = (
{
anchors = (
{
name = top;
position = "{329, 1034}";
}
);
layerId = "258ED206-D907-4350-8EBA-CBDDA1C16BF7";
paths = (
{
closed = 1;
nodes = (
"391 -332 OFFCURVE",
"524 -200 OFFCURVE",
"524 56 CURVE SMOOTH",
"524 1034 LINE",
"135 1034 LINE",
"135 56 LINE",
"135 14 OFFCURVE",
"112 -12 OFFCURVE",
"39 -28 CURVE",
"-20 -38 LINE",
"-18 -298 LINE",
"-18 -298 OFFCURVE",
"11 -332 OFFCURVE",
"114 -332 CURVE"
);
}
);
width = 624;
},
{
anchors = (
{
name = top;
position = "{247, 1034}";
}
);
layerId = "91AB5BCA-6A50-42DA-B2F7-8181BF189245";
paths = (
{
closed = 1;
nodes = (
"243 -332 OFFCURVE",
"287 -260 OFFCURVE",
"287 -100 CURVE SMOOTH",
"287 1034 LINE",
"209 1034 LINE",
"209 -90 LINE SMOOTH",
"209 -214 OFFCURVE",
"167 -258 OFFCURVE",
"66 -260 CURVE SMOOTH",
"-60 -262 LINE",
"-60 -314 LINE SMOOTH",
"-60 -330 OFFCURVE",
"-49 -332 OFFCURVE",
"68 -332 CURVE SMOOTH"
);
}
);
width = 467;
}
);
leftKerningGroup = j;
leftMetricsKey = j;
rightKerningGroup = u;
rightMetricsKey = j;
unicode = 0237;
},
{
color = 6;
glyphname = k;
layers = (
{
anchors = (
{
name = bottom;
position = "{606, 0}";
}
);
layerId = "258ED206-D907-4350-8EBA-CBDDA1C16BF7";
paths = (
{
closed = 1;
nodes = (
"489 0 LINE",
"489 292 LINE",
"565 380 LINE",
"804 0 LINE",
"1182 0 LINE",
"802 606 LINE",
"1180 1034 LINE",
"773 1034 LINE",
"489 686 LINE",
"489 1486 LINE",
"100 1486 LINE",
"100 0 LINE"
);
}
);
width = 1192;
},
{
anchors = (
{
name = bottom;
position = "{533, 0}";
}
);
layerId = "91AB5BCA-6A50-42DA-B2F7-8181BF189245";
paths = (
{
closed = 1;
nodes = (
"257 0 LINE",
"257 316 LINE",
"529 592 LINE",
"897 0 LINE",
"997 0 LINE",
"589 658 LINE",
"959 1034 LINE",
"849 1034 LINE",
"257 428 LINE",
"257 1486 LINE",
"180 1486 LINE",
"180 0 LINE"
);
}
);
width = 1087;
}
);
leftKerningGroup = n;
leftMetricsKey = n;
rightKerningGroup = k;
rightMetricsKey = "=x";
unicode = 006B;
},
{
color = 6;
glyphname = kgreenlandic;
layers = (
{
layerId = "258ED206-D907-4350-8EBA-CBDDA1C16BF7";
paths = (
{
closed = 1;
nodes = (
"489 0 LINE",
"489 292 LINE",
"628 422 LINE",
"804 0 LINE",
"1244 0 LINE",
"884 700 LINE",
"1216 1034 LINE",
"834 1034 LINE",
"489 644 LINE",
"489 1034 LINE",
"100 1034 LINE",
"100 0 LINE"
);
}
);
width = 1254;
},
{
layerId = "91AB5BCA-6A50-42DA-B2F7-8181BF189245";
paths = (
{
closed = 1;
nodes = (
"257 0 LINE",
"257 316 LINE",
"529 592 LINE",
"897 0 LINE",
"997 0 LINE",
"589 658 LINE",
"959 1034 LINE",
"849 1034 LINE",
"257 428 LINE",
"257 1034 LINE",
"180 1034 LINE",
"180 0 LINE"
);
}
);
width = 1087;
}
);
leftKerningGroup = n;
leftMetricsKey = k;
rightKerningGroup = k;
rightMetricsKey = k;
unicode = 0138;
},
{
color = 6;
glyphname = l;
layers = (
{
anchors = (
{
name = bottom;
position = "{266, 0}";
},
{
name = caron;
position = "{481, 1486}";
},
{
name = top;
position = "{293, 1530}";
}
);
layerId = "258ED206-D907-4350-8EBA-CBDDA1C16BF7";
paths = (
{
closed = 1;
nodes = (
"543 -22 OFFCURVE",
"593 -8 OFFCURVE",
"640 10 CURVE",
"640 246 LINE",
"598 250 LINE",
"493 264 OFFCURVE",
"481 314 OFFCURVE",
"481 364 CURVE SMOOTH",
"481 1486 LINE",
"100 1486 LINE",
"100 312 LINE",
"100 160 OFFCURVE",
"111 -22 OFFCURVE",
"493 -22 CURVE SMOOTH"
);
}
);
width = 705;
},
{
anchors = (
{
name = bottom;
position = "{260, 2}";
},
{
name = caron;
position = "{258, 1486}";
},
{
name = top;
position = "{212, 1524}";
}
);
layerId = "91AB5BCA-6A50-42DA-B2F7-8181BF189245";
paths = (
{
closed = 1;
nodes = (
"386 -8 OFFCURVE",
"414 -6 OFFCURVE",
"437 0 CURVE",
"437 58 LINE",
"374 58 LINE",
"317 58 OFFCURVE",
"258 108 OFFCURVE",
"258 242 CURVE",
"258 1486 LINE",
"180 1486 LINE",
"180 242 LINE",
"180 100 OFFCURVE",
"233 -8 OFFCURVE",
"372 -8 CURVE SMOOTH"
);
}
);
width = 554;
}
);
leftKerningGroup = n;
leftMetricsKey = n;
rightKerningGroup = l;
rightMetricsKey = "=u*.65";
unicode = 006C;
},
{
color = 3;
glyphname = lslash;
layers = (
{
components = (
{
name = l;
transform = "{1, 0, 0, 1, 70, 0}";
}
);
layerId = "258ED206-D907-4350-8EBA-CBDDA1C16BF7";
leftMetricsKey = "=l-30";
rightMetricsKey = "=l";
paths = (
{
closed = 1;
nodes = (
"702 698 LINE",
"702 1004 LINE",
"70 608 LINE",
"70 284 LINE"
);
}
);
width = 775;
},
{
components = (
{
name = l;
transform = "{1, 0, 0, 1, 78, 0}";
}
);
layerId = "91AB5BCA-6A50-42DA-B2F7-8181BF189245";
leftMetricsKey = "=l-110";
paths = (
{
closed = 1;
nodes = (
"532 776 LINE",
"532 862 LINE",
"70 430 LINE",
"70 340 LINE"
);
}
);
width = 669;
}
);
leftKerningGroup = n;
leftMetricsKey = "=l-130";
rightKerningGroup = l;
rightMetricsKey = "=l+20";
unicode = 0142;
},
{
color = 6;
glyphname = m;
layers = (
{
layerId = "258ED206-D907-4350-8EBA-CBDDA1C16BF7";
paths = (
{
closed = 1;
nodes = (
"489 0 LINE",
"489 635 LINE",
"489 703 OFFCURVE",
"553 742 OFFCURVE",
"611 742 CURVE SMOOTH",
"670 742 OFFCURVE",
"733 703 OFFCURVE",
"733 635 CURVE SMOOTH",
"733 0 LINE",
"1121 0 LINE",
"1121 635 LINE SMOOTH",
"1121 703 OFFCURVE",
"1185 742 OFFCURVE",
"1243 742 CURVE SMOOTH",
"1302 742 OFFCURVE",
"1367 703 OFFCURVE",
"1367 635 CURVE SMOOTH",
"1367 0 LINE",
"1757 0 LINE",
"1757 688 LINE SMOOTH",
"1757 943 OFFCURVE",
"1578 1054 OFFCURVE",
"1418 1054 CURVE SMOOTH",
"1287 1054 OFFCURVE",
"1175 979 OFFCURVE",
"1107 891 CURVE",
"1039 998 OFFCURVE",
"923 1054 OFFCURVE",
"823 1054 CURVE SMOOTH",
"661 1054 OFFCURVE",
"551 982 OFFCURVE",
"483 891 CURVE",
"483 1034 LINE",
"100 1034 LINE",
"100 0 LINE"
);
}
);
width = 1847;
},
{
layerId = "91AB5BCA-6A50-42DA-B2F7-8181BF189245";
paths = (
{
closed = 1;
nodes = (
"258 0 LINE",
"258 720 LINE SMOOTH",
"258 906 OFFCURVE",
"418 978 OFFCURVE",
"548 978 CURVE SMOOTH",
"664 978 OFFCURVE",
"804 904 OFFCURVE",
"804 752 CURVE SMOOTH",
"804 0 LINE",
"882 0 LINE",
"882 720 LINE SMOOTH",
"882 924 OFFCURVE",
"1054 978 OFFCURVE",
"1172 978 CURVE SMOOTH",
"1307 978 OFFCURVE",
"1430 920 OFFCURVE",
"1430 670 CURVE SMOOTH",
"1430 0 LINE",
"1508 0 LINE",
"1508 670 LINE SMOOTH",
"1508 1002 OFFCURVE",
"1311 1054 OFFCURVE",
"1172 1054 CURVE SMOOTH",
"1032 1054 OFFCURVE",
"918 990 OFFCURVE",
"855 882 CURVE",
"809 994 OFFCURVE",
"670 1054 OFFCURVE",
"550 1054 CURVE SMOOTH",
"390 1054 OFFCURVE",
"302 972 OFFCURVE",
"252 880 CURVE",
"252 1034 LINE",
"180 1034 LINE",
"180 0 LINE"
);
}
);
width = 1668;
}
);
leftKerningGroup = n;
leftMetricsKey = n;
rightKerningGroup = n;
rightMetricsKey = n;
unicode = 006D;
},
{
color = 6;
glyphname = n;
layers = (
{
anchors = (
{
name = bottom;
position = "{611, 0}";
},
{
name = top;
position = "{611, 1034}";
}
);
layerId = "258ED206-D907-4350-8EBA-CBDDA1C16BF7";
paths = (
{
closed = 1;
nodes = (
"489 0 LINE",
"489 635 LINE",
"489 703 OFFCURVE",
"558 740 OFFCURVE",
"615 740 CURVE SMOOTH",
"673 740 OFFCURVE",
"735 703 OFFCURVE",
"735 635 CURVE SMOOTH",
"735 0 LINE",
"1125 0 LINE",
"1125 688 LINE SMOOTH",
"1125 940 OFFCURVE",
"945 1038 OFFCURVE",
"764 1038 CURVE SMOOTH",
"602 1038 OFFCURVE",
"529 956 OFFCURVE",
"485 891 CURVE",
"485 1034 LINE",
"100 1034 LINE",
"100 0 LINE"
);
}
);
width = 1215;
},
{
anchors = (
{
name = bottom;
position = "{574, 0}";
},
{
name = top;
position = "{592, 1034}";
}
);
layerId = "91AB5BCA-6A50-42DA-B2F7-8181BF189245";
paths = (
{
closed = 1;
nodes = (
"258 0 LINE",
"258 720 LINE SMOOTH",
"258 896 OFFCURVE",
"416 978 OFFCURVE",
"599 978 CURVE SMOOTH",
"775 978 OFFCURVE",
"884 880 OFFCURVE",
"884 670 CURVE SMOOTH",
"884 0 LINE",
"962 0 LINE",
"962 670 LINE SMOOTH",
"962 934 OFFCURVE",
"803 1054 OFFCURVE",
"599 1054 CURVE SMOOTH",
"432 1054 OFFCURVE",
"306 978 OFFCURVE",
"252 880 CURVE",
"252 1034 LINE",
"180 1034 LINE",
"180 0 LINE"
);
}
);
width = 1122;
}
);
leftKerningGroup = n;
rightKerningGroup = n;
unicode = 006E;
},
{
color = 6;
glyphname = eng;
layers = (
{
layerId = "258ED206-D907-4350-8EBA-CBDDA1C16BF7";
paths = (
{
closed = 1;
nodes = (
"963 -332 OFFCURVE",
"1127 -184 OFFCURVE",
"1127 56 CURVE SMOOTH",
"1127 738 LINE SMOOTH",
"1127 930 OFFCURVE",
"1003 1054 OFFCURVE",
"821 1054 CURVE SMOOTH",
"691 1054 OFFCURVE",
"573 976 OFFCURVE",
"487 872 CURVE",
"487 1034 LINE",
"106 1034 LINE",
"100 0 LINE",
"493 0 LINE",
"493 680 LINE",
"529 746 OFFCURVE",
"573 778 OFFCURVE",
"636 778 CURVE SMOOTH",
"697 778 OFFCURVE",
"737 742 OFFCURVE",
"737 684 CURVE SMOOTH",
"737 50 LINE",
"737 0 OFFCURVE",
"711 -20 OFFCURVE",
"651 -30 CURVE",
"604 -36 LINE",
"604 -306 LINE",
"604 -306 OFFCURVE",
"617 -332 OFFCURVE",
"730 -332 CURVE SMOOTH"
);
}
);
width = 1227;
},
{
layerId = "91AB5BCA-6A50-42DA-B2F7-8181BF189245";
paths = (
{
closed = 1;
nodes = (
"895 -332 OFFCURVE",
"962 -240 OFFCURVE",
"962 -80 CURVE SMOOTH",
"962 766 LINE SMOOTH",
"962 936 OFFCURVE",
"846 1054 OFFCURVE",
"645 1054 CURVE SMOOTH",
"517 1054 OFFCURVE",
"428 1018 OFFCURVE",
"252 878 CURVE",
"252 1034 LINE",
"180 1034 LINE",
"180 0 LINE",
"258 0 LINE",
"258 796 LINE",
"384 908 OFFCURVE",
"512 980 OFFCURVE",
"636 980 CURVE SMOOTH",
"819 980 OFFCURVE",
"884 876 OFFCURVE",
"884 724 CURVE SMOOTH",
"884 -90 LINE SMOOTH",
"884 -214 OFFCURVE",
"842 -262 OFFCURVE",
"737 -264 CURVE SMOOTH",
"628 -266 LINE",
"628 -314 LINE SMOOTH",
"628 -330 OFFCURVE",
"640 -332 OFFCURVE",
"740 -332 CURVE SMOOTH"
);
}
);
width = 1142;
}
);
leftKerningGroup = n;
leftMetricsKey = n;
rightKerningGroup = n;
rightMetricsKey = j;
unicode = 014B;
},
{
color = 6;
glyphname = o;
layers = (
{
anchors = (
{
name = bottom;
position = "{579, 0}";
},
{
name = horn;
position = "{953, 714}";
},
{
name = ogonek;
position = "{738, 20}";
},
{
name = top;
position = "{586, 1034}";
}
);
layerId = "258ED206-D907-4350-8EBA-CBDDA1C16BF7";
paths = (
{
closed = 1;
nodes = (
"906 -20 OFFCURVE",
"1110 202 OFFCURVE",
"1110 510 CURVE SMOOTH",
"1110 824 OFFCURVE",
"909 1054 OFFCURVE",
"586 1054 CURVE SMOOTH",
"278 1054 OFFCURVE",
"60 836 OFFCURVE",
"60 510 CURVE SMOOTH",
"60 200 OFFCURVE",
"264 -20 OFFCURVE",
"584 -20 CURVE SMOOTH"
);
},
{
closed = 1;
nodes = (
"460 262 OFFCURVE",
"438 414 OFFCURVE",
"438 524 CURVE SMOOTH",
"438 636 OFFCURVE",
"460 776 OFFCURVE",
"586 776 CURVE SMOOTH",
"710 776 OFFCURVE",
"732 636 OFFCURVE",
"732 524 CURVE SMOOTH",
"732 414 OFFCURVE",
"710 262 OFFCURVE",
"586 262 CURVE SMOOTH"
);
}
);
width = 1170;
},
{
anchors = (
{
name = bottom;
position = "{560, 0}";
},
{
name = horn;
position = "{848, 856}";
},
{
name = ogonek;
position = "{711, 26}";
},
{
name = top;
position = "{556, 1034}";
}
);
layerId = "91AB5BCA-6A50-42DA-B2F7-8181BF189245";
paths = (
{
closed = 1;
nodes = (
"859 -20 OFFCURVE",
"1000 194 OFFCURVE",
"1000 514 CURVE SMOOTH",
"1000 881 OFFCURVE",
"823 1054 OFFCURVE",
"558 1054 CURVE SMOOTH",
"253 1054 OFFCURVE",
"110 838 OFFCURVE",
"110 514 CURVE SMOOTH",
"110 151 OFFCURVE",
"289 -20 OFFCURVE",
"558 -20 CURVE SMOOTH"
);
},
{
closed = 1;
nodes = (
"309 54 OFFCURVE",
"192 238 OFFCURVE",
"192 514 CURVE SMOOTH",
"192 830 OFFCURVE",
"338 978 OFFCURVE",
"558 978 CURVE SMOOTH",
"803 978 OFFCURVE",
"919 792 OFFCURVE",
"919 514 CURVE SMOOTH",
"919 201 OFFCURVE",
"775 54 OFFCURVE",
"558 54 CURVE SMOOTH"
);
}
);
width = 1110;
}
);
leftKerningGroup = o;
rightKerningGroup = o;
unicode = 006F;
},
{
color = 6;
glyphname = ohorn;
layers = (
{
anchors = (
{
name = bottom;
position = "{560, 0}";
},
{
name = horn;
position = "{848, 856}";
},
{
name = ogonek;
position = "{681, 20}";
},
{
name = top;
position = "{556, 1034}";
},
{
name = topright;
position = "{954, 936}";
}
);
layerId = "91AB5BCA-6A50-42DA-B2F7-8181BF189245";
paths = (
{
closed = 1;
nodes = (
"859 -20 OFFCURVE",
"1000 194 OFFCURVE",
"1000 514 CURVE SMOOTH",
"1000 658 OFFCURVE",
"973 773 OFFCURVE",
"923 858 CURVE",
"1031 878 OFFCURVE",
"1084 963 OFFCURVE",
"1084 1114 CURVE",
"982 1114 LINE",
"979 990 OFFCURVE",
"951 938 OFFCURVE",
"874 927 CURVE",
"797 1012 OFFCURVE",
"688 1054 OFFCURVE",
"558 1054 CURVE SMOOTH",
"253 1054 OFFCURVE",
"110 838 OFFCURVE",
"110 514 CURVE SMOOTH",
"110 151 OFFCURVE",
"289 -20 OFFCURVE",
"558 -20 CURVE SMOOTH"
);
},
{
closed = 1;
nodes = (
"309 54 OFFCURVE",
"192 238 OFFCURVE",
"192 514 CURVE SMOOTH",
"192 830 OFFCURVE",
"338 978 OFFCURVE",
"558 978 CURVE SMOOTH",
"803 978 OFFCURVE",
"919 792 OFFCURVE",
"919 514 CURVE SMOOTH",
"919 201 OFFCURVE",
"775 54 OFFCURVE",
"558 54 CURVE SMOOTH"
);
}
);
width = 1124;
},
{
anchors = (
{
name = bottom;
position = "{579, 0}";
},
{
name = horn;
position = "{953, 714}";
},
{
name = ogonek;
position = "{738, 20}";
},
{
name = top;
position = "{586, 1034}";
},
{
name = topright;
position = "{1146, 894}";
}
);
layerId = "258ED206-D907-4350-8EBA-CBDDA1C16BF7";
paths = (
{
closed = 1;
nodes = (
"906 -20 OFFCURVE",
"1110 202 OFFCURVE",
"1110 510 CURVE SMOOTH",
"1110 580 OFFCURVE",
"1100 646 OFFCURVE",
"1081 707 CURVE",
"1317 714 OFFCURVE",
"1381 836 OFFCURVE",
"1384 1112 CURVE",
"1150 1112 LINE",
"1132 900 OFFCURVE",
"1087 890 OFFCURVE",
"977 891 CURVE",
"886 993 OFFCURVE",
"752 1054 OFFCURVE",
"586 1054 CURVE SMOOTH",
"278 1054 OFFCURVE",
"60 836 OFFCURVE",
"60 510 CURVE SMOOTH",
"60 200 OFFCURVE",
"264 -20 OFFCURVE",
"584 -20 CURVE SMOOTH"
);
},
{
closed = 1;
nodes = (
"460 262 OFFCURVE",
"438 414 OFFCURVE",
"438 524 CURVE SMOOTH",
"438 636 OFFCURVE",
"460 776 OFFCURVE",
"586 776 CURVE SMOOTH",
"710 776 OFFCURVE",
"732 636 OFFCURVE",
"732 524 CURVE SMOOTH",
"732 414 OFFCURVE",
"710 262 OFFCURVE",
"586 262 CURVE SMOOTH"
);
}
);
width = 1354;
}
);
leftKerningGroup = o;
rightKerningGroup = ohorn;
unicode = 01A1;
},
{
color = 3;
glyphname = oogonek;
layers = (
{
anchors = (
{
name = _ogonek;
position = "{738, 20}";
}
);
components = (
{
name = o;
}
);
layerId = "258ED206-D907-4350-8EBA-CBDDA1C16BF7";
paths = (
{
closed = 1;
nodes = (
"670 -340 OFFCURVE",
"762 -312 OFFCURVE",
"802 -286 CURVE",
"802 -122 LINE",
"754 -150 OFFCURVE",
"714 -172 OFFCURVE",
"656 -172 CURVE SMOOTH",
"620 -172 OFFCURVE",
"602 -154 OFFCURVE",
"602 -116 CURVE SMOOTH",
"602 -72 OFFCURVE",
"636 -36 OFFCURVE",
"782 12 CURVE",
"516 12 LINE",
"364 -42 OFFCURVE",
"334 -104 OFFCURVE",
"334 -170 CURVE SMOOTH",
"334 -286 OFFCURVE",
"428 -340 OFFCURVE",
"570 -340 CURVE SMOOTH"
);
}
);
width = 1170;
},
{
anchors = (
{
name = _ogonek;
position = "{711, 26}";
}
);
components = (
{
name = o;
}
);
layerId = "91AB5BCA-6A50-42DA-B2F7-8181BF189245";
paths = (
{
closed = 1;
nodes = (
"685 -326 OFFCURVE",
"749 -308 OFFCURVE",
"779 -292 CURVE",
"779 -230 LINE",
"761 -240 OFFCURVE",
"703 -260 OFFCURVE",
"637 -260 CURVE SMOOTH",
"557 -260 OFFCURVE",
"525 -232 OFFCURVE",
"525 -178 CURVE SMOOTH",
"525 -102 OFFCURVE",
"591 -54 OFFCURVE",
"721 6 CURVE",
"655 24 LINE",
"491 -24 OFFCURVE",
"439 -88 OFFCURVE",
"439 -174 CURVE SMOOTH",
"439 -262 OFFCURVE",
"493 -326 OFFCURVE",
"617 -326 CURVE SMOOTH"
);
}
);
width = 1110;
}
);
leftKerningGroup = o;
rightKerningGroup = o;
unicode = 01EB;
},
{
color = 3;
glyphname = oslash;
layers = (
{
anchors = (
{
name = top;
position = "{626, 1034}";
}
);
components = (
{
name = o;
transform = "{1, 0, 0, 1, 76, 0}";
}
);
layerId = "258ED206-D907-4350-8EBA-CBDDA1C16BF7";
paths = (
{
closed = 1;
nodes = (
"1190 926 LINE",
"1076 1050 LINE",
"60 106 LINE",
"176 -18 LINE"
);
}
);
width = 1270;
},
{
anchors = (
{
name = top;
position = "{562, 1034}";
}
);
components = (
{
name = o;
transform = "{1, 0, 0, 1, -10, 0}";
}
);
layerId = "91AB5BCA-6A50-42DA-B2F7-8181BF189245";
paths = (
{
closed = 1;
nodes = (
"1090 982 LINE",
"1036 1038 LINE",
"30 48 LINE",
"84 -8 LINE"
);
}
);
width = 1120;
}
);
leftKerningGroup = o;
rightKerningGroup = o;
unicode = 00F8;
},
{
color = 6;
glyphname = oe;
layers = (
{
anchors = (
{
name = top;
position = "{935, 1034}";
}
);
layerId = "258ED206-D907-4350-8EBA-CBDDA1C16BF7";
paths = (
{
closed = 1;
nodes = (
"1773 824 OFFCURVE",
"1603 1054 OFFCURVE",
"1265 1054 CURVE SMOOTH",
"1128 1054 OFFCURVE",
"1014 1011 OFFCURVE",
"928 939 CURVE",
"841 1012 OFFCURVE",
"724 1054 OFFCURVE",
"586 1054 CURVE SMOOTH",
"278 1054 OFFCURVE",
"60 836 OFFCURVE",
"60 510 CURVE SMOOTH",
"60 200 OFFCURVE",
"264 -20 OFFCURVE",
"584 -20 CURVE SMOOTH",
"722 -20 OFFCURVE",
"838 21 OFFCURVE",
"926 92 CURVE",
"1018 20 OFFCURVE",
"1140 -20 OFFCURVE",
"1281 -20 CURVE SMOOTH",
"1510 -20 OFFCURVE",
"1745 122 OFFCURVE",
"1777 352 CURVE",
"1433 352 LINE",
"1401 272 OFFCURVE",
"1342 252 OFFCURVE",
"1271 252 CURVE SMOOTH",
"1187 252 OFFCURVE",
"1119 304 OFFCURVE",
"1121 428 CURVE",
"1773 428 LINE",
"1773 518 LINE SMOOTH"
);
},
{
closed = 1;
nodes = (
"460 262 OFFCURVE",
"438 414 OFFCURVE",
"438 524 CURVE SMOOTH",
"438 636 OFFCURVE",
"460 776 OFFCURVE",
"586 776 CURVE SMOOTH",
"710 776 OFFCURVE",
"732 636 OFFCURVE",
"732 524 CURVE SMOOTH",
"732 414 OFFCURVE",
"710 262 OFFCURVE",
"586 262 CURVE SMOOTH"
);
},
{
closed = 1;
nodes = (
"1119 724 OFFCURVE",
"1185 792 OFFCURVE",
"1265 792 CURVE SMOOTH",
"1363 792 OFFCURVE",
"1414 724 OFFCURVE",
"1414 646 CURVE",
"1119 646 LINE"
);
}
);
width = 1843;
},
{
anchors = (
{
name = top;
position = "{976, 1034}";
}
);
layerId = "91AB5BCA-6A50-42DA-B2F7-8181BF189245";
paths = (
{
closed = 1;
nodes = (
"1802 872 OFFCURVE",
"1645 1054 OFFCURVE",
"1378 1054 CURVE SMOOTH",
"1172 1054 OFFCURVE",
"1029 947 OFFCURVE",
"967 759 CURVE",
"903 958 OFFCURVE",
"755 1054 OFFCURVE",
"558 1054 CURVE SMOOTH",
"253 1054 OFFCURVE",
"110 838 OFFCURVE",
"110 514 CURVE SMOOTH",
"110 151 OFFCURVE",
"289 -20 OFFCURVE",
"558 -20 CURVE SMOOTH",
"775 -20 OFFCURVE",
"909 91 OFFCURVE",
"967 274 CURVE",
"1034 84 OFFCURVE",
"1189 -20 OFFCURVE",
"1390 -20 CURVE SMOOTH",
"1576 -20 OFFCURVE",
"1749 75 OFFCURVE",
"1790 276 CURVE",
"1705 276 LINE",
"1681 140 OFFCURVE",
"1554 56 OFFCURVE",
"1390 56 CURVE SMOOTH",
"1128 56 OFFCURVE",
"1015 264 OFFCURVE",
"1015 498 CURVE",
"1802 498 LINE",
"1802 554 LINE SMOOTH"
);
},
{
closed = 1;
nodes = (
"309 54 OFFCURVE",
"192 238 OFFCURVE",
"192 514 CURVE SMOOTH",
"192 830 OFFCURVE",
"338 978 OFFCURVE",
"558 978 CURVE SMOOTH",
"803 978 OFFCURVE",
"919 792 OFFCURVE",
"919 514 CURVE SMOOTH",
"919 201 OFFCURVE",
"775 54 OFFCURVE",
"558 54 CURVE SMOOTH"
);
},
{
closed = 1;
nodes = (
"1015 768 OFFCURVE",
"1122 978 OFFCURVE",
"1376 978 CURVE SMOOTH",
"1610 978 OFFCURVE",
"1719 804 OFFCURVE",
"1719 574 CURVE",
"1017 574 LINE"
);
}
);
width = 1923;
}
);
leftKerningGroup = o;
leftMetricsKey = o;
rightKerningGroup = o;
rightMetricsKey = e;
unicode = 0153;
},
{
color = 6;
glyphname = p;
layers = (
{
layerId = "258ED206-D907-4350-8EBA-CBDDA1C16BF7";
paths = (
{
closed = 1;
nodes = (
"489 -322 LINE",
"489 126 LINE",
"557 20 OFFCURVE",
"668 -20 OFFCURVE",
"753 -20 CURVE SMOOTH",
"973 -20 OFFCURVE",
"1175 126 OFFCURVE",
"1175 520 CURVE SMOOTH",
"1175 886 OFFCURVE",
"1011 1054 OFFCURVE",
"795 1054 CURVE SMOOTH",
"698 1054 OFFCURVE",
"569 1020 OFFCURVE",
"491 914 CURVE",
"491 1034 LINE",
"100 1034 LINE",
"100 -322 LINE"
);
},
{
closed = 1;
nodes = (
"537 258 OFFCURVE",
"489 393 OFFCURVE",
"489 520 CURVE",
"489 660 OFFCURVE",
"537 780 OFFCURVE",
"651 780 CURVE SMOOTH",
"737 780 OFFCURVE",
"815 688 OFFCURVE",
"815 520 CURVE SMOOTH",
"815 334 OFFCURVE",
"737 258 OFFCURVE",
"651 258 CURVE"
);
}
);
width = 1235;
},
{
layerId = "91AB5BCA-6A50-42DA-B2F7-8181BF189245";
paths = (
{
closed = 1;
nodes = (
"260 -322 LINE",
"260 219 LINE",
"291 140 OFFCURVE",
"380 -20 OFFCURVE",
"618 -20 CURVE SMOOTH",
"917 -20 OFFCURVE",
"1058 202 OFFCURVE",
"1058 536 CURVE SMOOTH",
"1058 888 OFFCURVE",
"882 1054 OFFCURVE",
"618 1054 CURVE SMOOTH",
"380 1054 OFFCURVE",
"290 896 OFFCURVE",
"260 822 CURVE",
"256 1034 LINE",
"180 1034 LINE",
"180 -322 LINE"
);
},
{
closed = 1;
nodes = (
"384 54 OFFCURVE",
"257 254 OFFCURVE",
"257 528 CURVE SMOOTH",
"257 802 OFFCURVE",
"384 978 OFFCURVE",
"618 978 CURVE SMOOTH",
"860 978 OFFCURVE",
"974 798 OFFCURVE",
"974 528 CURVE SMOOTH",
"974 206 OFFCURVE",
"832 54 OFFCURVE",
"618 54 CURVE SMOOTH"
);
}
);
width = 1168;
}
);
leftKerningGroup = n;
leftMetricsKey = n;
rightKerningGroup = o;
rightMetricsKey = o;
unicode = 0070;
},
{
color = 6;
glyphname = thorn;
layers = (
{
layerId = "258ED206-D907-4350-8EBA-CBDDA1C16BF7";
paths = (
{
closed = 1;
nodes = (
"489 -322 LINE",
"489 70 LINE SMOOTH",
"489 110 OFFCURVE",
"497 108 OFFCURVE",
"529 80 CURVE SMOOTH",
"611 2 OFFCURVE",
"691 -20 OFFCURVE",
"779 -20 CURVE SMOOTH",
"997 -20 OFFCURVE",
"1175 126 OFFCURVE",
"1175 520 CURVE SMOOTH",
"1175 886 OFFCURVE",
"1009 1054 OFFCURVE",
"793 1054 CURVE SMOOTH",
"657 1054 OFFCURVE",
"573 1002 OFFCURVE",
"491 914 CURVE",
"491 1446 LINE",
"100 1446 LINE",
"100 -322 LINE"
);
},
{
closed = 1;
nodes = (
"564 216 OFFCURVE",
"522 248 OFFCURVE",
"489 294 CURVE",
"489 708 LINE SMOOTH",
"489 770 OFFCURVE",
"549 818 OFFCURVE",
"625 818 CURVE SMOOTH",
"728 818 OFFCURVE",
"781 758 OFFCURVE",
"781 532 CURVE SMOOTH",
"781 282 OFFCURVE",
"724 216 OFFCURVE",
"625 216 CURVE SMOOTH"
);
}
);
width = 1235;
},
{
layerId = "91AB5BCA-6A50-42DA-B2F7-8181BF189245";
paths = (
{
closed = 1;
nodes = (
"258 -322 LINE",
"258 64 LINE SMOOTH",
"258 90 OFFCURVE",
"264 96 OFFCURVE",
"284 78 CURVE SMOOTH",
"342 32 OFFCURVE",
"437 -20 OFFCURVE",
"571 -20 CURVE SMOOTH",
"857 -20 OFFCURVE",
"1040 204 OFFCURVE",
"1040 536 CURVE SMOOTH",
"1040 882 OFFCURVE",
"844 1054 OFFCURVE",
"594 1054 CURVE SMOOTH",
"376 1054 OFFCURVE",
"286 918 OFFCURVE",
"254 880 CURVE",
"254 1446 LINE",
"180 1446 LINE",
"180 -322 LINE"
);
},
{
closed = 1;
nodes = (
"450 54 OFFCURVE",
"351 112 OFFCURVE",
"258 202 CURVE",
"258 710 LINE SMOOTH",
"258 826 OFFCURVE",
"390 978 OFFCURVE",
"584 978 CURVE SMOOTH",
"779 978 OFFCURVE",
"958 838 OFFCURVE",
"958 528 CURVE SMOOTH",
"958 232 OFFCURVE",
"794 54 OFFCURVE",
"569 54 CURVE SMOOTH"
);
}
);
width = 1150;
}
);
leftKerningGroup = n;
leftMetricsKey = n;
rightKerningGroup = o;
rightMetricsKey = o;
unicode = 00FE;
},
{
color = 6;
glyphname = q;
layers = (
{
layerId = "258ED206-D907-4350-8EBA-CBDDA1C16BF7";
paths = (
{
closed = 1;
nodes = (
"1135 -322 LINE",
"1135 1034 LINE",
"744 1034 LINE",
"744 914 LINE",
"666 1020 OFFCURVE",
"537 1054 OFFCURVE",
"440 1054 CURVE SMOOTH",
"224 1054 OFFCURVE",
"60 886 OFFCURVE",
"60 520 CURVE SMOOTH",
"60 126 OFFCURVE",
"262 -20 OFFCURVE",
"482 -20 CURVE SMOOTH",
"567 -20 OFFCURVE",
"678 20 OFFCURVE",
"746 126 CURVE",
"746 -322 LINE"
);
},
{
closed = 1;
nodes = (
"498 258 OFFCURVE",
"420 334 OFFCURVE",
"420 520 CURVE SMOOTH",
"420 688 OFFCURVE",
"498 780 OFFCURVE",
"584 780 CURVE SMOOTH",
"698 780 OFFCURVE",
"746 660 OFFCURVE",
"746 520 CURVE",
"746 393 OFFCURVE",
"698 258 OFFCURVE",
"584 258 CURVE"
);
}
);
width = 1235;
},
{
layerId = "91AB5BCA-6A50-42DA-B2F7-8181BF189245";
paths = (
{
closed = 1;
nodes = (
"988 -322 LINE",
"988 1034 LINE",
"912 1034 LINE",
"908 822 LINE",
"878 896 OFFCURVE",
"788 1054 OFFCURVE",
"550 1054 CURVE SMOOTH",
"251 1054 OFFCURVE",
"110 847 OFFCURVE",
"110 536 CURVE SMOOTH",
"110 158 OFFCURVE",
"286 -20 OFFCURVE",
"550 -20 CURVE SMOOTH",
"788 -20 OFFCURVE",
"877 140 OFFCURVE",
"908 219 CURVE",
"908 -322 LINE"
);
},
{
closed = 1;
nodes = (
"308 54 OFFCURVE",
"194 244 OFFCURVE",
"194 528 CURVE SMOOTH",
"194 834 OFFCURVE",
"336 978 OFFCURVE",
"550 978 CURVE SMOOTH",
"784 978 OFFCURVE",
"911 802 OFFCURVE",
"911 528 CURVE SMOOTH",
"911 254 OFFCURVE",
"784 54 OFFCURVE",
"550 54 CURVE SMOOTH"
);
}
);
width = 1168;
}
);
leftKerningGroup = o;
leftMetricsKey = o;
rightKerningGroup = u;
rightMetricsKey = "=|n";
unicode = 0071;
},
{
color = 6;
glyphname = r;
layers = (
{
anchors = (
{
name = bottom;
position = "{293, 0}";
},
{
name = top;
position = "{472, 1034}";
}
);
layerId = "258ED206-D907-4350-8EBA-CBDDA1C16BF7";
rightMetricsKey = "=25";
paths = (
{
closed = 1;
nodes = (
"489 0 LINE",
"489 496 LINE SMOOTH",
"489 604 OFFCURVE",
"535 718 OFFCURVE",
"825 688 CURVE",
"832 687 OFFCURVE",
"834 687 OFFCURVE",
"838 686 CURVE",
"838 1054 LINE",
"838 1054 OFFCURVE",
"832 1054 OFFCURVE",
"823 1054 CURVE",
"631 1054 OFFCURVE",
"523 914 OFFCURVE",
"476 748 CURVE",
"476 1034 LINE",
"100 1034 LINE",
"100 0 LINE"
);
}
);
width = 863;
},
{
anchors = (
{
name = bottom;
position = "{218, 0}";
},
{
name = top;
position = "{397, 1034}";
}
);
layerId = "91AB5BCA-6A50-42DA-B2F7-8181BF189245";
rightMetricsKey = "=x";
paths = (
{
closed = 1;
nodes = (
"258 0 LINE",
"258 720 LINE SMOOTH",
"258 926 OFFCURVE",
"438 972 OFFCURVE",
"537 972 CURVE",
"566 972 OFFCURVE",
"621 967 OFFCURVE",
"649 954 CURVE",
"649 1034 LINE",
"623 1048 OFFCURVE",
"578 1054 OFFCURVE",
"537 1054 CURVE",
"438 1054 OFFCURVE",
"306 1020 OFFCURVE",
"252 880 CURVE",
"252 1034 LINE",
"180 1034 LINE",
"180 0 LINE"
);
}
);
width = 739;
}
);
leftKerningGroup = n;
leftMetricsKey = n;
rightKerningGroup = r;
rightMetricsKey = "x*1.1";
unicode = 0072;
},
{
color = 6;
glyphname = s;
layers = (
{
anchors = (
{
name = bottom;
position = "{558, 0}";
},
{
name = top;
position = "{560, 1034}";
}
);
layerId = "258ED206-D907-4350-8EBA-CBDDA1C16BF7";
paths = (
{
closed = 1;
nodes = (
"820 -20 OFFCURVE",
"1026 98 OFFCURVE",
"1026 320 CURVE SMOOTH",
"1026 406 OFFCURVE",
"980 580 OFFCURVE",
"714 644 CURVE",
"581 668 LINE",
"470 686 OFFCURVE",
"426 706 OFFCURVE",
"426 742 CURVE SMOOTH",
"426 782 OFFCURVE",
"483 804 OFFCURVE",
"555 804 CURVE SMOOTH",
"626 804 OFFCURVE",
"688 774 OFFCURVE",
"703 712 CURVE",
"1020 712 LINE",
"1020 922 OFFCURVE",
"842 1054 OFFCURVE",
"560 1054 CURVE SMOOTH",
"258 1054 OFFCURVE",
"88 902 OFFCURVE",
"90 710 CURVE SMOOTH",
"92 524 OFFCURVE",
"224 430 OFFCURVE",
"422 394 CURVE",
"575 370 LINE",
"668 356 OFFCURVE",
"699 336 OFFCURVE",
"699 298 CURVE SMOOTH",
"699 256 OFFCURVE",
"640 236 OFFCURVE",
"554 236 CURVE SMOOTH",
"520 236 OFFCURVE",
"416 248 OFFCURVE",
"390 348 CURVE",
"60 348 LINE",
"104 84 OFFCURVE",
"340 -20 OFFCURVE",
"556 -20 CURVE SMOOTH"
);
}
);
width = 1092;
},
{
anchors = (
{
name = bottom;
position = "{483, 0}";
},
{
name = top;
position = "{509, 1034}";
}
);
layerId = "91AB5BCA-6A50-42DA-B2F7-8181BF189245";
leftMetricsKey = "=x*1.25";
rightMetricsKey = "=x*1.12";
paths = (
{
closed = 1;
nodes = (
"754 -20 OFFCURVE",
"869 96 OFFCURVE",
"869 270 CURVE SMOOTH",
"869 380 OFFCURVE",
"814 481 OFFCURVE",
"663 523 CURVE SMOOTH",
"417 591 LINE SMOOTH",
"301 623 OFFCURVE",
"233 670 OFFCURVE",
"233 764 CURVE SMOOTH",
"233 910 OFFCURVE",
"342 978 OFFCURVE",
"505 978 CURVE SMOOTH",
"662 978 OFFCURVE",
"746 899 OFFCURVE",
"760 780 CURVE",
"843 780 LINE",
"833 966 OFFCURVE",
"699 1054 OFFCURVE",
"505 1054 CURVE SMOOTH",
"264 1054 OFFCURVE",
"151 938 OFFCURVE",
"151 764 CURVE SMOOTH",
"151 626 OFFCURVE",
"245 555 OFFCURVE",
"396 513 CURVE SMOOTH",
"642 445 LINE SMOOTH",
"737 418 OFFCURVE",
"787 362 OFFCURVE",
"787 266 CURVE SMOOTH",
"787 123 OFFCURVE",
"676 56 OFFCURVE",
"509 56 CURVE SMOOTH",
"326 56 OFFCURVE",
"223 144 OFFCURVE",
"196 276 CURVE",
"113 276 LINE",
"136 75 OFFCURVE",
"292 -20 OFFCURVE",
"509 -20 CURVE SMOOTH"
);
}
);
width = 970;
}
);
leftKerningGroup = s;
leftMetricsKey = o;
rightKerningGroup = s;
rightMetricsKey = "=o*1.1";
unicode = 0073;
},
{
color = 3;
glyphname = scedilla;
layers = (
{
anchors = (
{
name = _bottom;
position = "{558, 0}";
}
);
components = (
{
name = s;
}
);
layerId = "258ED206-D907-4350-8EBA-CBDDA1C16BF7";
paths = (
{
closed = 1;
nodes = (
"706 -438 OFFCURVE",
"828 -372 OFFCURVE",
"828 -268 CURVE SMOOTH",
"828 -194 OFFCURVE",
"768 -104 OFFCURVE",
"604 -104 CURVE",
"646 10 LINE",
"488 10 LINE",
"414 -162 LINE SMOOTH",
"404 -184 OFFCURVE",
"414 -186 OFFCURVE",
"434 -186 CURVE SMOOTH",
"568 -186 OFFCURVE",
"612 -214 OFFCURVE",
"612 -262 CURVE SMOOTH",
"612 -294 OFFCURVE",
"574 -314 OFFCURVE",
"520 -314 CURVE SMOOTH",
"462 -314 OFFCURVE",
"398 -288 OFFCURVE",
"350 -262 CURVE",
"302 -380 LINE",
"380 -426 OFFCURVE",
"474 -438 OFFCURVE",
"568 -438 CURVE SMOOTH"
);
}
);
width = 1092;
},
{
anchors = (
{
name = _bottom;
position = "{483, 0}";
}
);
components = (
{
name = s;
}
);
layerId = "91AB5BCA-6A50-42DA-B2F7-8181BF189245";
paths = (
{
closed = 1;
nodes = (
"537 -398 OFFCURVE",
"625 -350 OFFCURVE",
"625 -252 CURVE SMOOTH",
"625 -190 OFFCURVE",
"591 -124 OFFCURVE",
"469 -114 CURVE",
"519 10 LINE",
"453 10 LINE",
"381 -154 LINE SMOOTH",
"379 -158 OFFCURVE",
"379 -162 OFFCURVE",
"389 -162 CURVE SMOOTH",
"491 -166 OFFCURVE",
"539 -194 OFFCURVE",
"539 -256 CURVE SMOOTH",
"539 -310 OFFCURVE",
"505 -340 OFFCURVE",
"423 -340 CURVE SMOOTH",
"363 -340 OFFCURVE",
"331 -322 OFFCURVE",
"303 -296 CURVE",
"281 -352 LINE",
"323 -382 OFFCURVE",
"371 -398 OFFCURVE",
"431 -398 CURVE SMOOTH"
);
}
);
width = 970;
}
);
leftKerningGroup = s;
rightKerningGroup = s;
unicode = 015F;
},
{
color = 6;
glyphname = germandbls;
layers = (
{
layerId = "258ED206-D907-4350-8EBA-CBDDA1C16BF7";
paths = (
{
closed = 1;
nodes = (
"1083 -20 OFFCURVE",
"1257 108 OFFCURVE",
"1257 350 CURVE SMOOTH",
"1257 610 OFFCURVE",
"1054 702 OFFCURVE",
"835 800 CURVE SMOOTH",
"825 804 OFFCURVE",
"821 810 OFFCURVE",
"821 816 CURVE SMOOTH",
"821 820 OFFCURVE",
"825 826 OFFCURVE",
"831 828 CURVE SMOOTH",
"1033 910 OFFCURVE",
"1109 996 OFFCURVE",
"1109 1132 CURVE SMOOTH",
"1109 1340 OFFCURVE",
"938 1446 OFFCURVE",
"651 1446 CURVE SMOOTH",
"233 1446 OFFCURVE",
"109 1202 OFFCURVE",
"100 968 CURVE",
"102 0 LINE",
"483 0 LINE",
"483 1044 LINE SMOOTH",
"483 1132 OFFCURVE",
"535 1204 OFFCURVE",
"638 1204 CURVE SMOOTH",
"720 1204 OFFCURVE",
"762 1160 OFFCURVE",
"762 1108 CURVE SMOOTH",
"762 1044 OFFCURVE",
"703 998 OFFCURVE",
"648 940 CURVE SMOOTH",
"598 888 OFFCURVE",
"547 820 OFFCURVE",
"547 718 CURVE SMOOTH",
"547 576 OFFCURVE",
"640 486 OFFCURVE",
"764 430 CURVE SMOOTH",
"865 386 OFFCURVE",
"913 364 OFFCURVE",
"913 308 CURVE SMOOTH",
"913 246 OFFCURVE",
"859 220 OFFCURVE",
"799 220 CURVE SMOOTH",
"730 220 OFFCURVE",
"684 254 OFFCURVE",
"651 276 CURVE",
"545 44 LINE",
"606 8 OFFCURVE",
"688 -20 OFFCURVE",
"808 -20 CURVE SMOOTH"
);
}
);
width = 1323;
},
{
layerId = "91AB5BCA-6A50-42DA-B2F7-8181BF189245";
paths = (
{
closed = 1;
nodes = (
"832 -20 OFFCURVE",
"1002 94 OFFCURVE",
"1002 308 CURVE SMOOTH",
"1002 558 OFFCURVE",
"773 618 OFFCURVE",
"649 658 CURVE SMOOTH",
"534 694 OFFCURVE",
"496 710 OFFCURVE",
"496 776 CURVE SMOOTH",
"496 844 OFFCURVE",
"538 866 OFFCURVE",
"656 930 CURVE SMOOTH",
"762 986 OFFCURVE",
"876 1030 OFFCURVE",
"876 1188 CURVE SMOOTH",
"876 1306 OFFCURVE",
"809 1446 OFFCURVE",
"580 1446 CURVE SMOOTH",
"344 1446 OFFCURVE",
"180 1292 OFFCURVE",
"180 1034 CURVE",
"182 0 LINE",
"260 0 LINE",
"260 1044 LINE SMOOTH",
"260 1268 OFFCURVE",
"388 1372 OFFCURVE",
"563 1372 CURVE SMOOTH",
"710 1372 OFFCURVE",
"794 1304 OFFCURVE",
"794 1194 CURVE SMOOTH",
"794 1074 OFFCURVE",
"698 1038 OFFCURVE",
"613 994 CURVE SMOOTH",
"473 924 OFFCURVE",
"414 872 OFFCURVE",
"414 774 CURVE SMOOTH",
"414 636 OFFCURVE",
"532 608 OFFCURVE",
"626 580 CURVE SMOOTH",
"771 534 OFFCURVE",
"920 482 OFFCURVE",
"920 302 CURVE SMOOTH",
"920 146 OFFCURVE",
"806 54 OFFCURVE",
"622 54 CURVE SMOOTH",
"525 54 OFFCURVE",
"468 80 OFFCURVE",
"401 118 CURVE",
"357 52 LINE",
"428 6 OFFCURVE",
"548 -20 OFFCURVE",
"636 -20 CURVE SMOOTH"
);
}
);
width = 1103;
}
);
leftKerningGroup = n;
leftMetricsKey = n;
rightKerningGroup = s;
rightMetricsKey = s;
unicode = 00DF;
},
{
color = 6;
glyphname = t;
layers = (
{
anchors = (
{
name = bottom;
position = "{506, 18}";
},
{
name = caron;
position = "{544, 1586}";
},
{
name = center;
position = "{434, 516}";
}
);
layerId = "258ED206-D907-4350-8EBA-CBDDA1C16BF7";
paths = (
{
closed = 1;
nodes = (
"730 -16 OFFCURVE",
"784 2 OFFCURVE",
"812 16 CURVE",
"812 246 LINE",
"650 246 LINE SMOOTH",
"616 246 OFFCURVE",
"588 256 OFFCURVE",
"588 302 CURVE SMOOTH",
"586 770 LINE",
"812 770 LINE",
"812 1036 LINE",
"586 1036 LINE",
"586 1356 LINE",
"312 1356 LINE",
"212 1034 LINE",
"30 1034 LINE",
"30 770 LINE",
"198 770 LINE",
"198 284 LINE SMOOTH",
"198 118 OFFCURVE",
"280 -16 OFFCURVE",
"606 -16 CURVE SMOOTH"
);
}
);
width = 882;
},
{
anchors = (
{
name = bottom;
position = "{443, 0}";
},
{
name = caron;
position = "{361, 1486}";
},
{
name = center;
position = "{385, 620}";
}
);
layerId = "91AB5BCA-6A50-42DA-B2F7-8181BF189245";
paths = (
{
closed = 1;
nodes = (
"543 0 OFFCURVE",
"593 2 OFFCURVE",
"619 10 CURVE",
"619 78 LINE",
"531 78 LINE SMOOTH",
"401 78 OFFCURVE",
"372 88 OFFCURVE",
"372 232 CURVE SMOOTH",
"372 966 LINE",
"609 966 LINE",
"609 1034 LINE",
"372 1034 LINE",
"372 1324 LINE",
"309 1324 LINE",
"293 1034 LINE",
"125 1034 LINE",
"125 966 LINE",
"293 966 LINE",
"293 232 LINE SMOOTH",
"293 66 OFFCURVE",
"337 0 OFFCURVE",
"493 0 CURVE SMOOTH"
);
}
);
width = 724;
}
);
leftKerningGroup = t;
rightKerningGroup = t;
unicode = 0074;
},
{
color = 3;
glyphname = tbar;
layers = (
{
components = (
{
name = t;
}
);
layerId = "258ED206-D907-4350-8EBA-CBDDA1C16BF7";
paths = (
{
closed = 1;
nodes = (
"783 450 LINE",
"783 660 LINE",
"58 660 LINE",
"58 450 LINE"
);
}
);
width = 882;
},
{
components = (
{
name = t;
}
);
guideLines = (
{
angle = 90;
position = "{126, 748}";
}
);
layerId = "91AB5BCA-6A50-42DA-B2F7-8181BF189245";
paths = (
{
closed = 1;
nodes = (
"608 586 LINE",
"608 654 LINE",
"125 654 LINE",
"125 586 LINE"
);
}
);
width = 724;
}
);
leftKerningGroup = t;
leftMetricsKey = t;
rightKerningGroup = t;
unicode = 0167;
},
{
color = 3;
glyphname = tcedilla;
layers = (
{
anchors = (
{
name = _bottom;
position = "{506, 18}";
}
);
components = (
{
name = t;
}
);
layerId = "258ED206-D907-4350-8EBA-CBDDA1C16BF7";
paths = (
{
closed = 1;
nodes = (
"654 -420 OFFCURVE",
"776 -354 OFFCURVE",
"776 -250 CURVE SMOOTH",
"776 -176 OFFCURVE",
"716 -86 OFFCURVE",
"552 -86 CURVE",
"594 28 LINE",
"436 28 LINE",
"362 -144 LINE SMOOTH",
"352 -166 OFFCURVE",
"362 -168 OFFCURVE",
"382 -168 CURVE SMOOTH",
"516 -168 OFFCURVE",
"560 -196 OFFCURVE",
"560 -244 CURVE SMOOTH",
"560 -276 OFFCURVE",
"522 -296 OFFCURVE",
"468 -296 CURVE SMOOTH",
"410 -296 OFFCURVE",
"346 -270 OFFCURVE",
"298 -244 CURVE",
"250 -362 LINE",
"328 -408 OFFCURVE",
"422 -420 OFFCURVE",
"516 -420 CURVE SMOOTH"
);
}
);
width = 882;
},
{
anchors = (
{
name = _bottom;
position = "{443, 0}";
}
);
components = (
{
name = t;
}
);
layerId = "91AB5BCA-6A50-42DA-B2F7-8181BF189245";
paths = (
{
closed = 1;
nodes = (
"497 -398 OFFCURVE",
"585 -350 OFFCURVE",
"585 -252 CURVE SMOOTH",
"585 -190 OFFCURVE",
"551 -124 OFFCURVE",
"429 -114 CURVE",
"479 10 LINE",
"413 10 LINE",
"341 -154 LINE SMOOTH",
"339 -158 OFFCURVE",
"339 -162 OFFCURVE",
"349 -162 CURVE SMOOTH",
"451 -166 OFFCURVE",
"499 -194 OFFCURVE",
"499 -256 CURVE SMOOTH",
"499 -310 OFFCURVE",
"465 -340 OFFCURVE",
"383 -340 CURVE SMOOTH",
"323 -340 OFFCURVE",
"291 -322 OFFCURVE",
"263 -296 CURVE",
"241 -352 LINE",
"283 -382 OFFCURVE",
"331 -398 OFFCURVE",
"391 -398 CURVE SMOOTH"
);
}
);
width = 724;
}
);
leftKerningGroup = t;
rightKerningGroup = t;
unicode = 0163;
},
{
color = 6;
glyphname = u;
layers = (
{
anchors = (
{
name = bottom;
position = "{613, 0}";
},
{
name = horn;
position = "{1062, 714}";
},
{
name = ogonek;
position = "{1064, 20}";
},
{
name = top;
position = "{606, 1034}";
}
);
layerId = "258ED206-D907-4350-8EBA-CBDDA1C16BF7";
paths = (
{
closed = 1;
nodes = (
"581 -20 OFFCURVE",
"745 6 OFFCURVE",
"783 212 CURVE",
"829 0 LINE",
"1117 0 LINE",
"1117 1034 LINE",
"731 1034 LINE",
"731 360 LINE",
"731 300 OFFCURVE",
"683 254 OFFCURVE",
"605 254 CURVE SMOOTH",
"526 254 OFFCURVE",
"480 300 OFFCURVE",
"480 360 CURVE SMOOTH",
"480 1034 LINE",
"90 1034 LINE",
"90 306 LINE SMOOTH",
"90 98 OFFCURVE",
"314 -20 OFFCURVE",
"481 -20 CURVE SMOOTH"
);
}
);
width = 1217;
},
{
anchors = (
{
name = bottom;
position = "{558, 0}";
},
{
name = horn;
position = "{922, 856}";
},
{
name = ogonek;
position = "{934, 22}";
},
{
name = top;
position = "{560, 1034}";
}
);
layerId = "91AB5BCA-6A50-42DA-B2F7-8181BF189245";
paths = (
{
closed = 1;
nodes = (
"731 -22 OFFCURVE",
"837 62 OFFCURVE",
"874 190 CURVE",
"880 0 LINE",
"952 0 LINE",
"952 1034 LINE",
"874 1034 LINE",
"874 362 LINE",
"874 154 OFFCURVE",
"746 56 OFFCURVE",
"555 56 CURVE SMOOTH",
"339 56 OFFCURVE",
"238 172 OFFCURVE",
"238 346 CURVE SMOOTH",
"238 1034 LINE",
"160 1034 LINE",
"160 346 LINE SMOOTH",
"160 100 OFFCURVE",
"320 -17 OFFCURVE",
"560 -20 CURVE SMOOTH"
);
}
);
width = 1132;
}
);
leftKerningGroup = u;
leftMetricsKey = "=|n";
rightKerningGroup = u;
rightMetricsKey = "=|n";
unicode = 0075;
},
{
color = 6;
glyphname = uhorn;
layers = (
{
anchors = (
{
name = bottom;
position = "{558, 0}";
},
{
name = horn;
position = "{922, 856}";
},
{
name = ogonek;
position = "{934, 22}";
},
{
name = top;
position = "{560, 1034}";
},
{
name = topright;
position = "{1058, 936}";
}
);
layerId = "91AB5BCA-6A50-42DA-B2F7-8181BF189245";
paths = (
{
closed = 1;
nodes = (
"731 -22 OFFCURVE",
"837 62 OFFCURVE",
"874 190 CURVE",
"880 0 LINE",
"952 0 LINE",
"952 854 LINE",
"1111 845 OFFCURVE",
"1188 932 OFFCURVE",
"1188 1114 CURVE",
"1086 1114 LINE",
"1082 977 OFFCURVE",
"1049 928 OFFCURVE",
"952 924 CURVE",
"952 1034 LINE",
"874 1034 LINE",
"874 362 LINE SMOOTH",
"874 154 OFFCURVE",
"746 56 OFFCURVE",
"555 56 CURVE SMOOTH",
"339 56 OFFCURVE",
"238 172 OFFCURVE",
"238 346 CURVE SMOOTH",
"238 1034 LINE",
"160 1034 LINE",
"160 346 LINE SMOOTH",
"160 100 OFFCURVE",
"320 -17 OFFCURVE",
"560 -20 CURVE SMOOTH"
);
}
);
width = 1188;
},
{
anchors = (
{
name = bottom;
position = "{613, 0}";
},
{
name = horn;
position = "{1062, 714}";
},
{
name = ogonek;
position = "{1064, 20}";
},
{
name = top;
position = "{606, 1034}";
},
{
name = topright;
position = "{1274, 894}";
}
);
layerId = "258ED206-D907-4350-8EBA-CBDDA1C16BF7";
paths = (
{
closed = 1;
nodes = (
"581 -20 OFFCURVE",
"745 6 OFFCURVE",
"783 212 CURVE",
"829 0 LINE",
"1117 0 LINE",
"1117 709 LINE",
"1429 687 OFFCURVE",
"1508 803 OFFCURVE",
"1512 1112 CURVE",
"1278 1112 LINE",
"1261 908 OFFCURVE",
"1219 891 OFFCURVE",
"1117 891 CURVE",
"1117 1034 LINE",
"731 1034 LINE",
"731 360 LINE SMOOTH",
"731 300 OFFCURVE",
"683 254 OFFCURVE",
"605 254 CURVE SMOOTH",
"526 254 OFFCURVE",
"480 300 OFFCURVE",
"480 360 CURVE SMOOTH",
"480 1034 LINE",
"90 1034 LINE",
"90 306 LINE SMOOTH",
"90 98 OFFCURVE",
"314 -20 OFFCURVE",
"481 -20 CURVE SMOOTH"
);
}
);
width = 1526;
}
);
leftKerningGroup = u;
rightKerningGroup = uhorn;
unicode = 01B0;
},
{
color = 6;
glyphname = v;
layers = (
{
layerId = "258ED206-D907-4350-8EBA-CBDDA1C16BF7";
paths = (
{
closed = 1;
nodes = (
"660 0 LINE",
"1063 1034 LINE",
"710 1034 LINE",
"536 506 LINE",
"536 506 LINE",
"354 1034 LINE",
"8 1034 LINE",
"410 0 LINE"
);
}
);
width = 1070;
},
{
layerId = "91AB5BCA-6A50-42DA-B2F7-8181BF189245";
paths = (
{
closed = 1;
nodes = (
"553 0 LINE",
"909 1034 LINE",
"831 1034 LINE",
"501 88 LINE",
"475 88 LINE",
"152 1034 LINE",
"68 1034 LINE",
"427 0 LINE"
);
}
);
width = 977;
}
);
leftKerningGroup = v;
leftMetricsKey = "=x*.75";
rightKerningGroup = v;
rightMetricsKey = "=x*.75";
unicode = 0076;
},
{
color = 6;
glyphname = w;
layers = (
{
anchors = (
{
name = top;
position = "{805, 1034}";
}
);
layerId = "258ED206-D907-4350-8EBA-CBDDA1C16BF7";
paths = (
{
closed = 1;
nodes = (
"625 0 LINE",
"788 502 LINE",
"942 0 LINE",
"1221 0 LINE",
"1585 1034 LINE",
"1238 1034 LINE",
"1078 530 LINE",
"1078 530 LINE",
"931 1034 LINE",
"660 1034 LINE",
"509 532 LINE",
"509 532 LINE",
"347 1034 LINE",
"9 1034 LINE",
"358 0 LINE"
);
}
);
width = 1593;
},
{
anchors = (
{
name = top;
position = "{779, 1034}";
}
);
layerId = "91AB5BCA-6A50-42DA-B2F7-8181BF189245";
paths = (
{
closed = 1;
nodes = (
"514 0 LINE",
"771 900 LINE",
"1049 0 LINE",
"1180 0 LINE",
"1467 1034 LINE",
"1385 1034 LINE",
"1123 90 LINE",
"1098 90 LINE",
"806 1034 LINE",
"735 1034 LINE",
"459 86 LINE",
"435 86 LINE",
"159 1034 LINE",
"75 1034 LINE",
"379 0 LINE"
);
}
);
width = 1542;
}
);
leftKerningGroup = v;
leftMetricsKey = "=v*1.1";
rightKerningGroup = v;
rightMetricsKey = "=v*1.1";
unicode = 0077;
},
{
color = 6;
glyphname = x;
layers = (
{
layerId = "258ED206-D907-4350-8EBA-CBDDA1C16BF7";
paths = (
{
closed = 1;
nodes = (
"410 0 LINE",
"610 274 LINE",
"808 0 LINE",
"1208 0 LINE",
"812 540 LINE",
"1176 1034 LINE",
"776 1034 LINE",
"612 810 LINE",
"446 1034 LINE",
"46 1034 LINE",
"406 540 LINE",
"10 0 LINE"
);
}
);
width = 1218;
},
{
layerId = "91AB5BCA-6A50-42DA-B2F7-8181BF189245";
paths = (
{
closed = 1;
nodes = (
"189 0 LINE",
"540 474 LINE",
"895 0 LINE",
"992 0 LINE",
"592 536 LINE",
"962 1034 LINE",
"864 1034 LINE",
"540 598 LINE",
"218 1034 LINE",
"120 1034 LINE",
"490 536 LINE",
"90 0 LINE"
);
}
);
width = 1082;
}
);
leftKerningGroup = x;
rightKerningGroup = x;
unicode = 0078;
},
{
color = 6;
glyphname = y;
layers = (
{
anchors = (
{
name = top;
position = "{586, 1034}";
}
);
layerId = "258ED206-D907-4350-8EBA-CBDDA1C16BF7";
paths = (
{
closed = 1;
nodes = (
"493 -330 OFFCURVE",
"632 -266 OFFCURVE",
"766 60 CURVE SMOOTH",
"1170 1034 LINE",
"789 1034 LINE",
"586 472 LINE",
"390 1034 LINE",
"8 1034 LINE",
"409 60 LINE",
"405 40 LINE",
"401 28 OFFCURVE",
"392 -62 OFFCURVE",
"189 -46 CURVE SMOOTH",
"90 -40 LINE",
"90 -286 LINE SMOOTH",
"90 -286 OFFCURVE",
"155 -330 OFFCURVE",
"315 -330 CURVE SMOOTH"
);
}
);
width = 1177;
},
{
anchors = (
{
name = top;
position = "{515, 1034}";
}
);
layerId = "91AB5BCA-6A50-42DA-B2F7-8181BF189245";
paths = (
{
closed = 1;
nodes = (
"349 -330 OFFCURVE",
"442 -280 OFFCURVE",
"494 -150 CURVE SMOOTH",
"946 1034 LINE",
"870 1034 LINE",
"515 112 LINE",
"152 1034 LINE",
"68 1034 LINE",
"473 6 LINE",
"420 -132 LINE",
"391 -204 OFFCURVE",
"338 -260 OFFCURVE",
"210 -260 CURVE SMOOTH",
"101 -260 LINE",
"101 -314 LINE SMOOTH",
"101 -314 OFFCURVE",
"124 -330 OFFCURVE",
"225 -330 CURVE SMOOTH"
);
}
);
width = 1014;
}
);
leftKerningGroup = v;
leftMetricsKey = v;
rightKerningGroup = v;
rightMetricsKey = v;
unicode = 0079;
},
{
color = 6;
glyphname = z;
layers = (
{
anchors = (
{
name = bottom;
position = "{510, 0}";
},
{
name = top;
position = "{510, 1034}";
}
);
layerId = "258ED206-D907-4350-8EBA-CBDDA1C16BF7";
paths = (
{
closed = 1;
nodes = (
"971 0 LINE",
"971 266 LINE",
"524 266 LINE",
"969 828 LINE",
"969 1034 LINE",
"77 1034 LINE",
"77 768 LINE",
"494 768 LINE",
"50 206 LINE",
"50 0 LINE"
);
}
);
width = 1021;
},
{
anchors = (
{
name = bottom;
position = "{479, 0}";
},
{
name = top;
position = "{479, 1034}";
}
);
layerId = "91AB5BCA-6A50-42DA-B2F7-8181BF189245";
paths = (
{
closed = 1;
nodes = (
"840 0 LINE",
"840 68 LINE",
"178 68 LINE",
"833 966 LINE",
"833 1034 LINE",
"114 1034 LINE",
"114 966 LINE",
"747 966 LINE",
"90 68 LINE",
"90 0 LINE"
);
}
);
width = 930;
}
);
leftKerningGroup = z;
leftMetricsKey = "=n/2";
rightKerningGroup = z;
rightMetricsKey = "=u/2";
unicode = 007A;
},
{
color = 6;
glyphname = g.ss01;
layers = (
{
anchors = (
{
name = top;
position = "{736, 1032}";
}
);
layerId = "258ED206-D907-4350-8EBA-CBDDA1C16BF7";
paths = (
{
closed = 1;
nodes = (
"904 -336 OFFCURVE",
"1140 -108 OFFCURVE",
"1140 238 CURVE SMOOTH",
"1142 1032 LINE",
"756 1032 LINE",
"756 912 LINE",
"711 984 OFFCURVE",
"598 1052 OFFCURVE",
"480 1052 CURVE SMOOTH",
"203 1052 OFFCURVE",
"66 780 OFFCURVE",
"66 556 CURVE SMOOTH",
"66 266 OFFCURVE",
"283 62 OFFCURVE",
"480 62 CURVE SMOOTH",
"612 62 OFFCURVE",
"722 84 OFFCURVE",
"780 180 CURVE",
"780 146 LINE SMOOTH",
"780 40 OFFCURVE",
"707 -58 OFFCURVE",
"568 -58 CURVE SMOOTH",
"491 -58 OFFCURVE",
"444 -12 OFFCURVE",
"444 8 CURVE",
"90 8 LINE",
"90 -92 OFFCURVE",
"236 -336 OFFCURVE",
"572 -336 CURVE SMOOTH"
);
},
{
closed = 1;
nodes = (
"518 332 OFFCURVE",
"457 440 OFFCURVE",
"457 556 CURVE SMOOTH",
"457 672 OFFCURVE",
"506 788 OFFCURVE",
"608 788 CURVE SMOOTH",
"696 788 OFFCURVE",
"756 672 OFFCURVE",
"756 556 CURVE",
"756 556 LINE SMOOTH",
"756 430 OFFCURVE",
"707 332 OFFCURVE",
"608 332 CURVE SMOOTH"
);
}
);
width = 1232;
},
{
anchors = (
{
name = top;
position = "{605, 1032}";
}
);
layerId = "91AB5BCA-6A50-42DA-B2F7-8181BF189245";
paths = (
{
closed = 1;
nodes = (
"831 -338 OFFCURVE",
"1009 -216 OFFCURVE",
"1007 28 CURVE SMOOTH",
"997 1032 LINE",
"930 1032 LINE",
"927 860 LINE",
"895 924 OFFCURVE",
"777 1052 OFFCURVE",
"585 1052 CURVE SMOOTH",
"283 1052 OFFCURVE",
"111 802 OFFCURVE",
"121 502 CURVE SMOOTH",
"131 222 OFFCURVE",
"305 12 OFFCURVE",
"597 12 CURVE SMOOTH",
"753 12 OFFCURVE",
"879 66 OFFCURVE",
"941 192 CURVE",
"939 24 LINE SMOOTH",
"937 -122 OFFCURVE",
"841 -272 OFFCURVE",
"581 -268 CURVE SMOOTH",
"445 -266 OFFCURVE",
"309 -204 OFFCURVE",
"267 -58 CURVE",
"183 -58 LINE",
"223 -240 OFFCURVE",
"393 -338 OFFCURVE",
"581 -338 CURVE SMOOTH"
);
},
{
closed = 1;
nodes = (
"361 86 OFFCURVE",
"203 256 OFFCURVE",
"203 502 CURVE SMOOTH",
"203 784 OFFCURVE",
"341 978 OFFCURVE",
"585 978 CURVE SMOOTH",
"773 978 OFFCURVE",
"927 830 OFFCURVE",
"930 708 CURVE",
"935 364 LINE SMOOTH",
"937 232 OFFCURVE",
"875 86 OFFCURVE",
"599 86 CURVE SMOOTH"
);
}
);
width = 1167;
}
);
leftKerningGroup = o;
leftMetricsKey = e;
rightKerningGroup = q;
rightMetricsKey = n;
},
{
color = 6;
glyphname = l.ss01;
layers = (
{
anchors = (
{
name = bottom;
position = "{330, 0}";
},
{
name = top;
position = "{348, 1492}";
},
{
name = topright;
position = "{830, 1530}";
}
);
layerId = "258ED206-D907-4350-8EBA-CBDDA1C16BF7";
paths = (
{
closed = 1;
nodes = (
"530 0 LINE",
"530 1486 LINE",
"140 1486 LINE",
"140 0 LINE"
);
}
);
width = 670;
},
{
anchors = (
{
name = bottom;
position = "{246, 0}";
},
{
name = top;
position = "{250, 1486}";
},
{
name = topright;
position = "{500, 1492}";
}
);
layerId = "91AB5BCA-6A50-42DA-B2F7-8181BF189245";
paths = (
{
closed = 1;
nodes = (
"288 0 LINE",
"288 1486 LINE",
"210 1486 LINE",
"210 0 LINE"
);
}
);
width = 498;
}
);
leftKerningGroup = n;
rightKerningGroup = u;
},
{
color = 6;
glyphname = ordfeminine;
layers = (
{
layerId = "258ED206-D907-4350-8EBA-CBDDA1C16BF7";
paths = (
{
closed = 1;
nodes = (
"354 796 OFFCURVE",
"398 820 OFFCURVE",
"467 864 CURVE",
"482 808 LINE",
"719 808 LINE",
"705 856 LINE",
"698 886 OFFCURVE",
"698 988 OFFCURVE",
"698 1002 CURVE SMOOTH",
"698 1098 OFFCURVE",
"698 1152 OFFCURVE",
"698 1266 CURVE SMOOTH",
"698 1390 OFFCURVE",
"631 1464 OFFCURVE",
"402 1466 CURVE SMOOTH",
"205 1466 OFFCURVE",
"133 1404 OFFCURVE",
"81 1286 CURVE",
"291 1246 LINE",
"314 1306 OFFCURVE",
"356 1320 OFFCURVE",
"396 1320 CURVE SMOOTH",
"419 1320 OFFCURVE",
"467 1312 OFFCURVE",
"467 1250 CURVE",
"467 1210 LINE",
"419 1210 LINE SMOOTH",
"203 1210 OFFCURVE",
"66 1114 OFFCURVE",
"66 982 CURVE SMOOTH",
"66 872 OFFCURVE",
"139 796 OFFCURVE",
"278 796 CURVE SMOOTH"
);
},
{
closed = 1;
nodes = (
"327 940 OFFCURVE",
"301 964 OFFCURVE",
"301 998 CURVE SMOOTH",
"301 1054 OFFCURVE",
"356 1090 OFFCURVE",
"427 1090 CURVE SMOOTH",
"467 1090 LINE",
"467 1002 LINE SMOOTH",
"467 982 OFFCURVE",
"459 974 OFFCURVE",
"448 964 CURVE SMOOTH",
"431 950 OFFCURVE",
"404 940 OFFCURVE",
"375 940 CURVE SMOOTH"
);
}
);
width = 809;
},
{
layerId = "91AB5BCA-6A50-42DA-B2F7-8181BF189245";
paths = (
{
closed = 1;
nodes = (
"431 790 OFFCURVE",
"499 824 OFFCURVE",
"571 902 CURVE",
"588 802 LINE",
"663 802 LINE",
"651 886 LINE",
"645 936 OFFCURVE",
"643 976 OFFCURVE",
"643 1016 CURVE SMOOTH",
"643 1054 OFFCURVE",
"643 1132 OFFCURVE",
"643 1236 CURVE SMOOTH",
"643 1374 OFFCURVE",
"555 1460 OFFCURVE",
"401 1460 CURVE SMOOTH",
"279 1460 OFFCURVE",
"183 1406 OFFCURVE",
"138 1314 CURVE",
"199 1288 LINE",
"254 1370 OFFCURVE",
"309 1394 OFFCURVE",
"393 1394 CURVE SMOOTH",
"510 1394 OFFCURVE",
"573 1346 OFFCURVE",
"573 1244 CURVE SMOOTH",
"573 1194 LINE",
"431 1180 LINE SMOOTH",
"227 1160 OFFCURVE",
"121 1092 OFFCURVE",
"121 968 CURVE SMOOTH",
"121 856 OFFCURVE",
"203 790 OFFCURVE",
"340 790 CURVE SMOOTH"
);
},
{
closed = 1;
nodes = (
"262 852 OFFCURVE",
"197 898 OFFCURVE",
"197 970 CURVE SMOOTH",
"197 1054 OFFCURVE",
"277 1108 OFFCURVE",
"455 1122 CURVE SMOOTH",
"573 1132 LINE",
"573 1016 LINE SMOOTH",
"573 980 OFFCURVE",
"552 948 OFFCURVE",
"513 914 CURVE SMOOTH",
"468 872 OFFCURVE",
"417 852 OFFCURVE",
"355 852 CURVE SMOOTH"
);
}
);
width = 823;
}
);
leftMetricsKey = a;
rightMetricsKey = a;
unicode = 00AA;
},
{
color = 6;
glyphname = ordmasculine;
layers = (
{
layerId = "258ED206-D907-4350-8EBA-CBDDA1C16BF7";
paths = (
{
closed = 1;
nodes = (
"600 796 OFFCURVE",
"741 934 OFFCURVE",
"741 1128 CURVE SMOOTH",
"741 1324 OFFCURVE",
"604 1466 OFFCURVE",
"400 1466 CURVE SMOOTH",
"208 1466 OFFCURVE",
"60 1330 OFFCURVE",
"60 1128 CURVE SMOOTH",
"60 934 OFFCURVE",
"199 796 OFFCURVE",
"400 796 CURVE SMOOTH"
);
},
{
closed = 1;
nodes = (
"336 952 OFFCURVE",
"306 1006 OFFCURVE",
"306 1132 CURVE SMOOTH",
"306 1260 OFFCURVE",
"336 1314 OFFCURVE",
"400 1314 CURVE SMOOTH",
"466 1314 OFFCURVE",
"495 1260 OFFCURVE",
"495 1132 CURVE SMOOTH",
"495 1006 OFFCURVE",
"466 952 OFFCURVE",
"400 952 CURVE SMOOTH"
);
}
);
width = 801;
},
{
layerId = "91AB5BCA-6A50-42DA-B2F7-8181BF189245";
paths = (
{
closed = 1;
nodes = (
"602 794 OFFCURVE",
"708 932 OFFCURVE",
"708 1126 CURVE SMOOTH",
"708 1328 OFFCURVE",
"595 1464 OFFCURVE",
"408 1464 CURVE SMOOTH",
"224 1464 OFFCURVE",
"110 1328 OFFCURVE",
"110 1126 CURVE SMOOTH",
"110 932 OFFCURVE",
"215 794 OFFCURVE",
"408 794 CURVE SMOOTH"
);
},
{
closed = 1;
nodes = (
"264 858 OFFCURVE",
"190 966 OFFCURVE",
"190 1132 CURVE SMOOTH",
"190 1288 OFFCURVE",
"264 1396 OFFCURVE",
"408 1396 CURVE SMOOTH",
"553 1396 OFFCURVE",
"629 1288 OFFCURVE",
"629 1132 CURVE SMOOTH",
"629 966 OFFCURVE",
"553 858 OFFCURVE",
"408 858 CURVE SMOOTH"
);
}
);
width = 818;
}
);
leftMetricsKey = o;
rightMetricsKey = o;
unicode = 00BA;
},
{
color = 6;
glyphname = pi;
layers = (
{
layerId = "258ED206-D907-4350-8EBA-CBDDA1C16BF7";
paths = (
{
closed = 1;
nodes = (
"456 0 LINE",
"520 192 OFFCURVE",
"574 572 OFFCURVE",
"574 770 CURVE",
"790 770 LINE",
"790 0 LINE",
"1162 0 LINE",
"1162 770 LINE",
"1318 770 LINE",
"1318 1034 LINE",
"40 1034 LINE",
"40 770 LINE",
"182 770 LINE SMOOTH",
"194 770 OFFCURVE",
"200 762 OFFCURVE",
"200 750 CURVE SMOOTH",
"200 566 OFFCURVE",
"148 224 OFFCURVE",
"90 0 CURVE"
);
}
);
width = 1378;
},
{
layerId = "91AB5BCA-6A50-42DA-B2F7-8181BF189245";
paths = (
{
closed = 1;
nodes = (
"232 0 LINE",
"296 190 OFFCURVE",
"350 568 OFFCURVE",
"350 966 CURVE",
"884 966 LINE",
"886 0 LINE",
"964 0 LINE",
"964 966 LINE",
"1226 966 LINE",
"1226 1034 LINE",
"60 1034 LINE",
"60 966 LINE",
"262 966 LINE SMOOTH",
"272 966 OFFCURVE",
"278 958 OFFCURVE",
"278 946 CURVE SMOOTH",
"278 566 OFFCURVE",
"224 220 OFFCURVE",
"166 0 CURVE"
);
}
);
width = 1286;
}
);
unicode = 03C0;
},
{
color = 6;
glyphname = zero;
layers = (
{
layerId = "258ED206-D907-4350-8EBA-CBDDA1C16BF7";
paths = (
{
closed = 1;
nodes = (
"1055 -22 OFFCURVE",
"1269 252 OFFCURVE",
"1269 720 CURVE SMOOTH",
"1269 1190 OFFCURVE",
"1049 1466 OFFCURVE",
"677 1466 CURVE SMOOTH",
"303 1466 OFFCURVE",
"80 1190 OFFCURVE",
"80 720 CURVE SMOOTH",
"80 252 OFFCURVE",
"297 -22 OFFCURVE",
"677 -22 CURVE SMOOTH"
);
},
{
closed = 1;
nodes = (
"532 288 OFFCURVE",
"482 404 OFFCURVE",
"482 718 CURVE SMOOTH",
"482 1042 OFFCURVE",
"534 1168 OFFCURVE",
"675 1168 CURVE SMOOTH",
"815 1168 OFFCURVE",
"866 1044 OFFCURVE",
"866 718 CURVE SMOOTH",
"866 402 OFFCURVE",
"818 288 OFFCURVE",
"675 288 CURVE SMOOTH"
);
}
);
width = 1349;
},
{
layerId = "91AB5BCA-6A50-42DA-B2F7-8181BF189245";
paths = (
{
closed = 1;
nodes = (
"861 -22 OFFCURVE",
"1053 218 OFFCURVE",
"1053 720 CURVE SMOOTH",
"1053 1224 OFFCURVE",
"861 1466 OFFCURVE",
"579 1466 CURVE SMOOTH",
"297 1466 OFFCURVE",
"105 1222 OFFCURVE",
"105 716 CURVE SMOOTH",
"105 216 OFFCURVE",
"293 -22 OFFCURVE",
"577 -22 CURVE SMOOTH"
);
},
{
closed = 1;
nodes = (
"341 60 OFFCURVE",
"195 260 OFFCURVE",
"195 720 CURVE SMOOTH",
"195 1184 OFFCURVE",
"341 1384 OFFCURVE",
"579 1384 CURVE SMOOTH",
"817 1384 OFFCURVE",
"959 1186 OFFCURVE",
"959 720 CURVE SMOOTH",
"959 258 OFFCURVE",
"821 60 OFFCURVE",
"581 60 CURVE SMOOTH"
);
}
);
width = 1158;
}
);
leftKerningGroup = zero;
rightKerningGroup = zero;
unicode = 0030;
},
{
color = 6;
glyphname = one;
layers = (
{
layerId = "258ED206-D907-4350-8EBA-CBDDA1C16BF7";
paths = (
{
closed = 1;
nodes = (
"710 0 LINE",
"710 1446 LINE",
"460 1446 LINE",
"440 1316 OFFCURVE",
"317 1226 OFFCURVE",
"80 1226 CURVE",
"80 1022 LINE",
"319 1022 LINE",
"319 0 LINE"
);
}
);
width = 895;
},
{
layerId = "91AB5BCA-6A50-42DA-B2F7-8181BF189245";
paths = (
{
closed = 1;
nodes = (
"486 0 LINE",
"486 1446 LINE",
"416 1446 LINE",
"416 1336 OFFCURVE",
"370 1296 OFFCURVE",
"100 1296 CURVE",
"100 1218 LINE",
"400 1218 LINE",
"400 0 LINE"
);
}
);
width = 771;
}
);
leftKerningGroup = one;
rightKerningGroup = one;
unicode = 0031;
},
{
color = 6;
glyphname = two;
layers = (
{
layerId = "258ED206-D907-4350-8EBA-CBDDA1C16BF7";
paths = (
{
closed = 1;
nodes = (
"1250 0 LINE",
"1250 320 LINE",
"536 320 LINE",
"536 320 LINE SMOOTH",
"536 552 OFFCURVE",
"1260 500 OFFCURVE",
"1260 1006 CURVE SMOOTH",
"1260 1280 OFFCURVE",
"1046 1466 OFFCURVE",
"690 1466 CURVE SMOOTH",
"276 1466 OFFCURVE",
"80 1236 OFFCURVE",
"80 936 CURVE",
"446 936 LINE",
"476 1096 OFFCURVE",
"576 1152 OFFCURVE",
"682 1152 CURVE SMOOTH",
"788 1152 OFFCURVE",
"852 1088 OFFCURVE",
"852 1002 CURVE SMOOTH",
"852 756 OFFCURVE",
"102 768 OFFCURVE",
"102 260 CURVE SMOOTH",
"102 172 LINE",
"102 0 LINE"
);
}
);
width = 1340;
},
{
layerId = "91AB5BCA-6A50-42DA-B2F7-8181BF189245";
paths = (
{
closed = 1;
nodes = (
"1010 0 LINE",
"1010 82 LINE",
"222 82 LINE",
"222 126 LINE SMOOTH",
"222 596 OFFCURVE",
"993 554 OFFCURVE",
"993 1080 CURVE SMOOTH",
"993 1312 OFFCURVE",
"823 1466 OFFCURVE",
"567 1466 CURVE SMOOTH",
"272 1466 OFFCURVE",
"107 1272 OFFCURVE",
"100 1048 CURVE",
"188 1048 LINE",
"195 1236 OFFCURVE",
"327 1382 OFFCURVE",
"560 1382 CURVE SMOOTH",
"772 1382 OFFCURVE",
"909 1262 OFFCURVE",
"909 1082 CURVE SMOOTH",
"909 616 OFFCURVE",
"136 650 OFFCURVE",
"136 126 CURVE SMOOTH",
"136 82 LINE",
"136 0 LINE"
);
}
);
width = 1115;
}
);
leftKerningGroup = two;
leftMetricsKey = one;
rightKerningGroup = two;
rightMetricsKey = zero;
unicode = 0032;
},
{
color = 6;
glyphname = three;
layers = (
{
layerId = "258ED206-D907-4350-8EBA-CBDDA1C16BF7";
paths = (
{
closed = 1;
nodes = (
"1011 -22 OFFCURVE",
"1313 118 OFFCURVE",
"1313 420 CURVE SMOOTH",
"1313 622 OFFCURVE",
"1164 720 OFFCURVE",
"1030 756 CURVE",
"1216 818 OFFCURVE",
"1284 922 OFFCURVE",
"1284 1064 CURVE SMOOTH",
"1284 1352 OFFCURVE",
"1021 1466 OFFCURVE",
"677 1466 CURVE SMOOTH",
"338 1466 OFFCURVE",
"80 1318 OFFCURVE",
"80 980 CURVE",
"446 980 LINE",
"462 1134 OFFCURVE",
"544 1174 OFFCURVE",
"666 1174 CURVE SMOOTH",
"771 1174 OFFCURVE",
"872 1136 OFFCURVE",
"872 1046 CURVE SMOOTH",
"872 956 OFFCURVE",
"805 908 OFFCURVE",
"681 898 CURVE SMOOTH",
"555 888 LINE",
"555 588 LINE",
"700 580 LINE SMOOTH",
"824 574 OFFCURVE",
"900 514 OFFCURVE",
"900 436 CURVE SMOOTH",
"900 348 OFFCURVE",
"818 284 OFFCURVE",
"670 284 CURVE SMOOTH",
"568 284 OFFCURVE",
"477 324 OFFCURVE",
"448 476 CURVE",
"80 476 LINE",
"80 162 OFFCURVE",
"278 -22 OFFCURVE",
"670 -22 CURVE SMOOTH"
);
}
);
width = 1393;
},
{
layerId = "91AB5BCA-6A50-42DA-B2F7-8181BF189245";
paths = (
{
closed = 1;
nodes = (
"884 -26 OFFCURVE",
"1086 144 OFFCURVE",
"1086 388 CURVE SMOOTH",
"1086 568 OFFCURVE",
"974 708 OFFCURVE",
"754 768 CURVE",
"941 834 OFFCURVE",
"1042 964 OFFCURVE",
"1042 1108 CURVE SMOOTH",
"1042 1322 OFFCURVE",
"859 1466 OFFCURVE",
"582 1466 CURVE SMOOTH",
"342 1466 OFFCURVE",
"134 1298 OFFCURVE",
"134 1048 CURVE",
"222 1048 LINE",
"222 1272 OFFCURVE",
"414 1384 OFFCURVE",
"586 1384 CURVE SMOOTH",
"834 1384 OFFCURVE",
"954 1244 OFFCURVE",
"954 1108 CURVE SMOOTH",
"954 950 OFFCURVE",
"773 802 OFFCURVE",
"548 802 CURVE SMOOTH",
"426 802 LINE",
"426 720 LINE",
"548 720 LINE SMOOTH",
"794 720 OFFCURVE",
"998 608 OFFCURVE",
"998 382 CURVE SMOOTH",
"998 190 OFFCURVE",
"832 60 OFFCURVE",
"584 60 CURVE SMOOTH",
"366 60 OFFCURVE",
"220 190 OFFCURVE",
"194 384 CURVE",
"105 384 LINE",
"118 142 OFFCURVE",
"324 -18 OFFCURVE",
"574 -22 CURVE SMOOTH"
);
}
);
width = 1191;
}
);
leftKerningGroup = zero;
leftMetricsKey = zero;
rightKerningGroup = zero;
rightMetricsKey = zero;
unicode = 0033;
},
{
color = 6;
glyphname = four;
layers = (
{
layerId = "258ED206-D907-4350-8EBA-CBDDA1C16BF7";
paths = (
{
closed = 1;
nodes = (
"1102 0 LINE",
"1102 276 LINE",
"1310 276 LINE",
"1310 594 LINE",
"1102 594 LINE",
"1102 1446 LINE",
"726 1446 LINE",
"80 580 LINE",
"80 276 LINE",
"732 276 LINE",
"731 0 LINE"
);
},
{
closed = 1;
nodes = (
"736 996 LINE",
"736 594 LINE",
"434 594 LINE"
);
}
);
width = 1363;
},
{
layerId = "91AB5BCA-6A50-42DA-B2F7-8181BF189245";
paths = (
{
closed = 1;
nodes = (
"878 0 LINE",
"878 418 LINE",
"1134 418 LINE",
"1134 500 LINE",
"878 500 LINE",
"878 1446 LINE",
"788 1446 LINE",
"100 516 LINE",
"100 418 LINE",
"796 418 LINE",
"796 0 LINE"
);
},
{
closed = 1;
nodes = (
"788 1312 LINE",
"788 500 LINE",
"184 500 LINE"
);
}
);
width = 1201;
}
);
leftKerningGroup = four;
leftMetricsKey = one;
rightKerningGroup = four;
rightMetricsKey = "=|one/1.5";
unicode = 0034;
},
{
color = 6;
glyphname = five;
layers = (
{
layerId = "258ED206-D907-4350-8EBA-CBDDA1C16BF7";
paths = (
{
closed = 1;
nodes = (
"1103 -22 OFFCURVE",
"1332 162 OFFCURVE",
"1332 472 CURVE SMOOTH",
"1332 770 OFFCURVE",
"1118 944 OFFCURVE",
"805 944 CURVE SMOOTH",
"704 944 OFFCURVE",
"637 926 OFFCURVE",
"521 894 CURVE",
"542 1134 LINE",
"1216 1134 LINE",
"1232 1446 LINE",
"244 1446 LINE",
"177 728 LINE",
"440 586 LINE SMOOTH",
"469 572 OFFCURVE",
"471 572 OFFCURVE",
"498 584 CURVE SMOOTH",
"586 622 OFFCURVE",
"632 636 OFFCURVE",
"694 636 CURVE SMOOTH",
"845 636 OFFCURVE",
"927 548 OFFCURVE",
"927 458 CURVE SMOOTH",
"927 362 OFFCURVE",
"832 284 OFFCURVE",
"689 284 CURVE SMOOTH",
"532 284 OFFCURVE",
"456 376 OFFCURVE",
"370 486 CURVE",
"80 290 LINE",
"187 112 OFFCURVE",
"433 -22 OFFCURVE",
"734 -22 CURVE SMOOTH"
);
}
);
width = 1412;
},
{
layerId = "91AB5BCA-6A50-42DA-B2F7-8181BF189245";
paths = (
{
closed = 1;
nodes = (
"911 -22 OFFCURVE",
"1107 178 OFFCURVE",
"1107 474 CURVE SMOOTH",
"1107 786 OFFCURVE",
"875 942 OFFCURVE",
"642 942 CURVE SMOOTH",
"491 942 OFFCURVE",
"353 898 OFFCURVE",
"268 780 CURVE",
"313 1366 LINE",
"1027 1366 LINE",
"1027 1446 LINE",
"229 1446 LINE",
"165 676 LINE",
"264 676 LINE SMOOTH",
"264 676 OFFCURVE",
"264 676 OFFCURVE",
"264 676 CURVE SMOOTH",
"384 840 OFFCURVE",
"495 864 OFFCURVE",
"642 864 CURVE SMOOTH",
"837 864 OFFCURVE",
"1019 718 OFFCURVE",
"1019 472 CURVE SMOOTH",
"1019 208 OFFCURVE",
"861 56 OFFCURVE",
"623 56 CURVE SMOOTH",
"415 56 OFFCURVE",
"258 186 OFFCURVE",
"197 380 CURVE",
"105 380 LINE",
"163 140 OFFCURVE",
"369 -22 OFFCURVE",
"619 -22 CURVE SMOOTH"
);
}
);
width = 1212;
}
);
leftKerningGroup = five;
leftMetricsKey = zero;
rightKerningGroup = five;
rightMetricsKey = zero;
unicode = 0035;
},
{
color = 6;
glyphname = six;
layers = (
{
layerId = "258ED206-D907-4350-8EBA-CBDDA1C16BF7";
paths = (
{
closed = 1;
nodes = (
"1059 -22 OFFCURVE",
"1309 194 OFFCURVE",
"1309 472 CURVE SMOOTH",
"1309 726 OFFCURVE",
"1106 902 OFFCURVE",
"805 902 CURVE SMOOTH",
"700 902 OFFCURVE",
"593 884 OFFCURVE",
"515 836 CURVE",
"484 1004 OFFCURVE",
"570 1166 OFFCURVE",
"734 1166 CURVE SMOOTH",
"837 1166 OFFCURVE",
"900 1120 OFFCURVE",
"933 1012 CURVE",
"1284 1012 LINE",
"1284 1298 OFFCURVE",
"1024 1466 OFFCURVE",
"725 1466 CURVE SMOOTH",
"332 1466 OFFCURVE",
"80 1176 OFFCURVE",
"80 690 CURVE SMOOTH",
"80 270 OFFCURVE",
"316 -22 OFFCURVE",
"717 -22 CURVE SMOOTH"
);
},
{
closed = 1;
nodes = (
"589 266 OFFCURVE",
"511 348 OFFCURVE",
"511 516 CURVE",
"511 552 OFFCURVE",
"612 622 OFFCURVE",
"702 622 CURVE SMOOTH",
"795 622 OFFCURVE",
"900 578 OFFCURVE",
"900 454 CURVE SMOOTH",
"900 346 OFFCURVE",
"803 266 OFFCURVE",
"700 266 CURVE SMOOTH"
);
}
);
width = 1389;
},
{
layerId = "91AB5BCA-6A50-42DA-B2F7-8181BF189245";
paths = (
{
closed = 1;
nodes = (
"899 -22 OFFCURVE",
"1065 176 OFFCURVE",
"1065 472 CURVE SMOOTH",
"1065 772 OFFCURVE",
"879 944 OFFCURVE",
"602 944 CURVE SMOOTH",
"397 944 OFFCURVE",
"229 804 OFFCURVE",
"187 606 CURVE",
"167 1136 OFFCURVE",
"325 1388 OFFCURVE",
"629 1388 CURVE SMOOTH",
"807 1388 OFFCURVE",
"934 1282 OFFCURVE",
"976 1130 CURVE",
"1057 1130 LINE",
"1009 1342 OFFCURVE",
"837 1466 OFFCURVE",
"629 1466 CURVE SMOOTH",
"277 1466 OFFCURVE",
"105 1160 OFFCURVE",
"105 706 CURVE SMOOTH",
"105 240 OFFCURVE",
"307 -22 OFFCURVE",
"609 -22 CURVE SMOOTH"
);
},
{
closed = 1;
nodes = (
"381 60 OFFCURVE",
"227 256 OFFCURVE",
"231 506 CURVE",
"231 710 OFFCURVE",
"415 862 OFFCURVE",
"611 862 CURVE SMOOTH",
"863 862 OFFCURVE",
"976 704 OFFCURVE",
"976 468 CURVE SMOOTH",
"976 224 OFFCURVE",
"831 60 OFFCURVE",
"615 60 CURVE SMOOTH"
);
}
);
width = 1170;
}
);
leftKerningGroup = zero;
leftMetricsKey = zero;
rightKerningGroup = zero;
rightMetricsKey = zero;
unicode = 0036;
},
{
color = 6;
glyphname = seven;
layers = (
{
layerId = "258ED206-D907-4350-8EBA-CBDDA1C16BF7";
paths = (
{
closed = 1;
nodes = (
"763 0 LINE",
"754 356 OFFCURVE",
"1017 910 OFFCURVE",
"1219 1134 CURVE",
"1219 1446 LINE",
"80 1446 LINE",
"80 1134 LINE",
"822 1134 LINE",
"460 696 OFFCURVE",
"345 208 OFFCURVE",
"345 0 CURVE"
);
}
);
width = 1299;
},
{
layerId = "91AB5BCA-6A50-42DA-B2F7-8181BF189245";
paths = (
{
closed = 1;
nodes = (
"446 0 LINE",
"502 274 OFFCURVE",
"764 946 OFFCURVE",
"1050 1366 CURVE",
"1050 1446 LINE",
"100 1446 LINE",
"100 1366 LINE",
"948 1366 LINE",
"632 872 OFFCURVE",
"424 294 OFFCURVE",
"358 0 CURVE"
);
}
);
width = 1150;
}
);
leftKerningGroup = seven;
leftMetricsKey = one;
rightKerningGroup = seven;
rightMetricsKey = "=|one";
unicode = 0037;
},
{
color = 6;
glyphname = eight;
layers = (
{
layerId = "258ED206-D907-4350-8EBA-CBDDA1C16BF7";
paths = (
{
closed = 1;
nodes = (
"1058 -21 OFFCURVE",
"1304 144 OFFCURVE",
"1304 410 CURVE SMOOTH",
"1304 574 OFFCURVE",
"1166 720 OFFCURVE",
"1044 748 CURVE",
"1150 804 OFFCURVE",
"1242 906 OFFCURVE",
"1242 1048 CURVE SMOOTH",
"1242 1320 OFFCURVE",
"1006 1466 OFFCURVE",
"692 1466 CURVE SMOOTH",
"378 1466 OFFCURVE",
"142 1320 OFFCURVE",
"142 1048 CURVE SMOOTH",
"142 906 OFFCURVE",
"234 804 OFFCURVE",
"340 748 CURVE",
"218 720 OFFCURVE",
"80 574 OFFCURVE",
"80 410 CURVE SMOOTH",
"80 144 OFFCURVE",
"326 -21 OFFCURVE",
"692 -21 CURVE SMOOTH"
);
},
{
closed = 1;
nodes = (
"565 264 OFFCURVE",
"492 328 OFFCURVE",
"492 424 CURVE SMOOTH",
"492 522 OFFCURVE",
"565 588 OFFCURVE",
"692 588 CURVE SMOOTH",
"820 588 OFFCURVE",
"892 522 OFFCURVE",
"892 424 CURVE SMOOTH",
"892 328 OFFCURVE",
"820 264 OFFCURVE",
"692 264 CURVE SMOOTH"
);
},
{
closed = 1;
nodes = (
"600 892 OFFCURVE",
"526 954 OFFCURVE",
"526 1054 CURVE SMOOTH",
"526 1154 OFFCURVE",
"600 1216 OFFCURVE",
"692 1216 CURVE SMOOTH",
"784 1216 OFFCURVE",
"858 1154 OFFCURVE",
"858 1054 CURVE SMOOTH",
"858 954 OFFCURVE",
"784 892 OFFCURVE",
"692 892 CURVE SMOOTH"
);
}
);
width = 1384;
},
{
layerId = "91AB5BCA-6A50-42DA-B2F7-8181BF189245";
paths = (
{
closed = 1;
nodes = (
"941 -22 OFFCURVE",
"1144 140 OFFCURVE",
"1144 382 CURVE SMOOTH",
"1144 552 OFFCURVE",
"993 726 OFFCURVE",
"835 754 CURVE",
"983 810 OFFCURVE",
"1077 918 OFFCURVE",
"1077 1084 CURVE SMOOTH",
"1077 1326 OFFCURVE",
"882 1466 OFFCURVE",
"623 1466 CURVE SMOOTH",
"367 1466 OFFCURVE",
"169 1326 OFFCURVE",
"169 1084 CURVE SMOOTH",
"169 918 OFFCURVE",
"266 810 OFFCURVE",
"413 754 CURVE",
"255 726 OFFCURVE",
"105 552 OFFCURVE",
"105 382 CURVE SMOOTH",
"105 140 OFFCURVE",
"308 -22 OFFCURVE",
"623 -22 CURVE SMOOTH"
);
},
{
closed = 1;
nodes = (
"365 56 OFFCURVE",
"193 182 OFFCURVE",
"193 376 CURVE SMOOTH",
"193 568 OFFCURVE",
"365 708 OFFCURVE",
"623 708 CURVE SMOOTH",
"884 708 OFFCURVE",
"1056 568 OFFCURVE",
"1056 376 CURVE SMOOTH",
"1056 182 OFFCURVE",
"884 56 OFFCURVE",
"623 56 CURVE SMOOTH"
);
},
{
closed = 1;
nodes = (
"405 798 OFFCURVE",
"258 904 OFFCURVE",
"258 1088 CURVE SMOOTH",
"258 1270 OFFCURVE",
"405 1386 OFFCURVE",
"623 1386 CURVE SMOOTH",
"842 1386 OFFCURVE",
"989 1272 OFFCURVE",
"989 1088 CURVE SMOOTH",
"989 904 OFFCURVE",
"844 798 OFFCURVE",
"623 798 CURVE SMOOTH"
);
}
);
width = 1249;
}
);
leftKerningGroup = zero;
leftMetricsKey = zero;
rightKerningGroup = zero;
rightMetricsKey = zero;
unicode = 0038;
},
{
color = 6;
glyphname = nine;
layers = (
{
layerId = "258ED206-D907-4350-8EBA-CBDDA1C16BF7";
paths = (
{
closed = 1;
nodes = (
"1046 -22 OFFCURVE",
"1300 214 OFFCURVE",
"1300 760 CURVE SMOOTH",
"1300 1182 OFFCURVE",
"1064 1466 OFFCURVE",
"664 1466 CURVE SMOOTH",
"321 1466 OFFCURVE",
"80 1258 OFFCURVE",
"80 978 CURVE SMOOTH",
"80 706 OFFCURVE",
"300 528 OFFCURVE",
"602 528 CURVE SMOOTH",
"744 528 OFFCURVE",
"844 564 OFFCURVE",
"908 630 CURVE",
"934 366 OFFCURVE",
"800 278 OFFCURVE",
"636 278 CURVE SMOOTH",
"534 278 OFFCURVE",
"470 344 OFFCURVE",
"454 438 CURVE",
"88 438 LINE",
"90 164 OFFCURVE",
"354 -22 OFFCURVE",
"653 -22 CURVE SMOOTH"
);
},
{
closed = 1;
nodes = (
"586 828 OFFCURVE",
"496 884 OFFCURVE",
"496 996 CURVE SMOOTH",
"496 1106 OFFCURVE",
"578 1182 OFFCURVE",
"680 1182 CURVE SMOOTH",
"792 1182 OFFCURVE",
"870 1104 OFFCURVE",
"870 934 CURVE",
"870 898 OFFCURVE",
"768 828 OFFCURVE",
"678 828 CURVE SMOOTH"
);
}
);
width = 1380;
},
{
layerId = "91AB5BCA-6A50-42DA-B2F7-8181BF189245";
paths = (
{
closed = 1;
nodes = (
"895 -22 OFFCURVE",
"1075 282 OFFCURVE",
"1075 736 CURVE SMOOTH",
"1075 1202 OFFCURVE",
"875 1466 OFFCURVE",
"573 1466 CURVE SMOOTH",
"283 1466 OFFCURVE",
"119 1266 OFFCURVE",
"119 970 CURVE SMOOTH",
"119 670 OFFCURVE",
"303 498 OFFCURVE",
"581 498 CURVE SMOOTH",
"785 498 OFFCURVE",
"953 638 OFFCURVE",
"995 836 CURVE",
"1015 306 OFFCURVE",
"847 56 OFFCURVE",
"543 56 CURVE SMOOTH",
"365 56 OFFCURVE",
"229 158 OFFCURVE",
"187 310 CURVE",
"105 310 LINE",
"153 98 OFFCURVE",
"335 -22 OFFCURVE",
"543 -22 CURVE SMOOTH"
);
},
{
closed = 1;
nodes = (
"319 580 OFFCURVE",
"207 738 OFFCURVE",
"207 974 CURVE SMOOTH",
"207 1218 OFFCURVE",
"352 1384 OFFCURVE",
"567 1384 CURVE SMOOTH",
"801 1384 OFFCURVE",
"955 1186 OFFCURVE",
"951 936 CURVE",
"951 732 OFFCURVE",
"768 580 OFFCURVE",
"571 580 CURVE SMOOTH"
);
}
);
width = 1180;
}
);
leftKerningGroup = zero;
leftMetricsKey = zero;
rightKerningGroup = zero;
rightMetricsKey = zero;
unicode = 0039;
},
{
color = 6;
glyphname = one.tf;
layers = (
{
layerId = "258ED206-D907-4350-8EBA-CBDDA1C16BF7";
paths = (
{
closed = 1;
nodes = (
"918 0 LINE",
"918 1446 LINE",
"782 1446 LINE",
"190 1282 LINE",
"190 954 LINE",
"544 1032 LINE",
"544 0 LINE"
);
},
{
closed = 1;
nodes = (
"1230 0 LINE",
"1230 320 LINE",
"170 320 LINE",
"170 0 LINE"
);
}
);
width = 1400;
},
{
layerId = "91AB5BCA-6A50-42DA-B2F7-8181BF189245";
paths = (
{
closed = 1;
nodes = (
"777 2 LINE",
"777 1448 LINE",
"693 1448 LINE",
"243 1252 LINE",
"243 1162 LINE",
"691 1358 LINE",
"691 2 LINE"
);
},
{
closed = 1;
nodes = (
"1257 0 LINE",
"1257 82 LINE",
"219 82 LINE",
"219 0 LINE"
);
}
);
width = 1400;
}
);
leftKerningGroup = "0.tf";
rightKerningGroup = "0.tf";
},
{
color = 6;
glyphname = seven.tf;
layers = (
{
layerId = "258ED206-D907-4350-8EBA-CBDDA1C16BF7";
paths = (
{
closed = 1;
nodes = (
"783 0 LINE",
"775 356 OFFCURVE",
"1097 910 OFFCURVE",
"1299 1134 CURVE",
"1299 1446 LINE",
"101 1446 LINE",
"101 1134 LINE",
"903 1134 LINE",
"541 696 OFFCURVE",
"365 208 OFFCURVE",
"365 0 CURVE"
);
}
);
width = 1400;
},
{
layerId = "91AB5BCA-6A50-42DA-B2F7-8181BF189245";
paths = (
{
closed = 1;
nodes = (
"534 0 LINE",
"590 274 OFFCURVE",
"956 946 OFFCURVE",
"1242 1366 CURVE",
"1242 1446 LINE",
"172 1446 LINE",
"172 1366 LINE",
"1134 1366 LINE",
"818 872 OFFCURVE",
"502 294 OFFCURVE",
"436 0 CURVE"
);
}
);
width = 1400;
}
);
leftKerningGroup = "0.tf";
rightKerningGroup = "0.tf";
},
{
color = 6;
glyphname = zero.dnom;
layers = (
{
layerId = "258ED206-D907-4350-8EBA-CBDDA1C16BF7";
paths = (
{
closed = 1;
nodes = (
"662 -12 OFFCURVE",
"797 156 OFFCURVE",
"797 451 CURVE SMOOTH",
"797 747 OFFCURVE",
"658 921 OFFCURVE",
"425 921 CURVE SMOOTH",
"189 921 OFFCURVE",
"49 747 OFFCURVE",
"49 451 CURVE SMOOTH",
"49 156 OFFCURVE",
"186 -12 OFFCURVE",
"425 -12 CURVE SMOOTH"
);
},
{
closed = 1;
nodes = (
"334 180 OFFCURVE",
"302 252 OFFCURVE",
"302 449 CURVE SMOOTH",
"302 653 OFFCURVE",
"335 733 OFFCURVE",
"423 733 CURVE SMOOTH",
"511 733 OFFCURVE",
"544 654 OFFCURVE",
"544 449 CURVE SMOOTH",
"544 251 OFFCURVE",
"514 180 OFFCURVE",
"423 180 CURVE SMOOTH"
);
}
);
width = 846;
},
{
layerId = "91AB5BCA-6A50-42DA-B2F7-8181BF189245";
paths = (
{
closed = 1;
nodes = (
"548 -15 OFFCURVE",
"655 154 OFFCURVE",
"655 450 CURVE SMOOTH",
"655 749 OFFCURVE",
"548 920 OFFCURVE",
"356 920 CURVE SMOOTH",
"166 920 OFFCURVE",
"58 748 OFFCURVE",
"58 447 CURVE SMOOTH",
"58 151 OFFCURVE",
"164 -15 OFFCURVE",
"355 -15 CURVE SMOOTH"
);
},
{
closed = 1;
nodes = (
"202 46 OFFCURVE",
"123 183 OFFCURVE",
"123 450 CURVE SMOOTH",
"123 721 OFFCURVE",
"202 859 OFFCURVE",
"356 859 CURVE SMOOTH",
"511 859 OFFCURVE",
"588 723 OFFCURVE",
"588 450 CURVE SMOOTH",
"588 180 OFFCURVE",
"512 46 OFFCURVE",
"358 46 CURVE SMOOTH"
);
}
);
width = 713;
}
);
leftKerningGroup = zero.dnom;
leftMetricsKey = zero.numr;
rightKerningGroup = zero.dnom;
rightMetricsKey = zero.numr;
},
{
color = 6;
glyphname = one.dnom;
layers = (
{
layerId = "258ED206-D907-4350-8EBA-CBDDA1C16BF7";
paths = (
{
closed = 1;
nodes = (
"436 -1 LINE",
"436 909 LINE",
"278 909 LINE",
"265 827 OFFCURVE",
"189 770 OFFCURVE",
"39 770 CURVE",
"39 642 LINE",
"190 642 LINE",
"190 -1 LINE"
);
}
);
width = 543;
},
{
layerId = "91AB5BCA-6A50-42DA-B2F7-8181BF189245";
paths = (
{
closed = 1;
nodes = (
"300 -1 LINE",
"300 909 LINE",
"246 909 LINE",
"247 833 OFFCURVE",
"212 815 OFFCURVE",
"49 816 CURVE",
"49 757 LINE",
"236 757 LINE",
"236 -1 LINE"
);
}
);
width = 446;
}
);
leftMetricsKey = one.numr;
rightMetricsKey = one.numr;
},
{
color = 6;
glyphname = two.dnom;
layers = (
{
layerId = "258ED206-D907-4350-8EBA-CBDDA1C16BF7";
paths = (
{
closed = 1;
nodes = (
"775 0 LINE",
"775 202 LINE",
"326 202 LINE",
"326 202 LINE SMOOTH",
"326 347 OFFCURVE",
"781 315 OFFCURVE",
"781 633 CURVE SMOOTH",
"781 805 OFFCURVE",
"647 922 OFFCURVE",
"423 922 CURVE SMOOTH",
"163 922 OFFCURVE",
"39 778 OFFCURVE",
"39 589 CURVE",
"270 589 LINE",
"288 689 OFFCURVE",
"351 725 OFFCURVE",
"418 725 CURVE SMOOTH",
"485 725 OFFCURVE",
"525 684 OFFCURVE",
"525 630 CURVE SMOOTH",
"525 476 OFFCURVE",
"53 483 OFFCURVE",
"53 163 CURVE SMOOTH",
"53 108 LINE",
"53 0 LINE"
);
}
);
width = 830;
},
{
layerId = "91AB5BCA-6A50-42DA-B2F7-8181BF189245";
paths = (
{
closed = 1;
nodes = (
"625 -2 LINE",
"625 59 LINE",
"135 59 LINE",
"135 81 LINE SMOOTH",
"135 369 OFFCURVE",
"614 343 OFFCURVE",
"614 676 CURVE SMOOTH",
"614 822 OFFCURVE",
"507 920 OFFCURVE",
"345 920 CURVE SMOOTH",
"156 920 OFFCURVE",
"51 793 OFFCURVE",
"49 650 CURVE",
"112 650 LINE",
"116 776 OFFCURVE",
"205 858 OFFCURVE",
"340 858 CURVE SMOOTH",
"469 858 OFFCURVE",
"553 786 OFFCURVE",
"553 677 CURVE SMOOTH",
"553 391 OFFCURVE",
"71 412 OFFCURVE",
"71 81 CURVE SMOOTH",
"71 54 LINE",
"71 -2 LINE"
);
}
);
width = 683;
}
);
leftKerningGroup = zero.dnom;
leftMetricsKey = two.numr;
rightKerningGroup = zero.dnom;
rightMetricsKey = two.numr;
},
{
color = 6;
glyphname = three.dnom;
layers = (
{
layerId = "258ED206-D907-4350-8EBA-CBDDA1C16BF7";
paths = (
{
closed = 1;
nodes = (
"645 -14 OFFCURVE",
"834 73 OFFCURVE",
"834 263 CURVE SMOOTH",
"834 391 OFFCURVE",
"741 452 OFFCURVE",
"656 475 CURVE",
"773 514 OFFCURVE",
"816 579 OFFCURVE",
"816 669 CURVE SMOOTH",
"816 850 OFFCURVE",
"650 921 OFFCURVE",
"435 921 CURVE SMOOTH",
"221 921 OFFCURVE",
"59 828 OFFCURVE",
"59 616 CURVE",
"289 616 LINE",
"299 712 OFFCURVE",
"351 737 OFFCURVE",
"428 737 CURVE SMOOTH",
"493 737 OFFCURVE",
"557 714 OFFCURVE",
"557 657 CURVE SMOOTH",
"557 601 OFFCURVE",
"515 570 OFFCURVE",
"437 564 CURVE SMOOTH",
"357 558 LINE",
"357 369 LINE",
"449 364 LINE SMOOTH",
"527 360 OFFCURVE",
"575 322 OFFCURVE",
"575 273 CURVE SMOOTH",
"575 218 OFFCURVE",
"523 178 OFFCURVE",
"430 178 CURVE SMOOTH",
"366 178 OFFCURVE",
"309 203 OFFCURVE",
"290 298 CURVE",
"59 298 LINE",
"59 101 OFFCURVE",
"184 -14 OFFCURVE",
"430 -14 CURVE SMOOTH"
);
}
);
width = 893;
},
{
layerId = "91AB5BCA-6A50-42DA-B2F7-8181BF189245";
paths = (
{
closed = 1;
nodes = (
"557 -17 OFFCURVE",
"688 88 OFFCURVE",
"688 244 CURVE SMOOTH",
"688 358 OFFCURVE",
"617 442 OFFCURVE",
"491 481 CURVE",
"598 523 OFFCURVE",
"659 600 OFFCURVE",
"659 691 CURVE SMOOTH",
"659 827 OFFCURVE",
"544 918 OFFCURVE",
"369 918 CURVE SMOOTH",
"207 918 OFFCURVE",
"84 802 OFFCURVE",
"86 649 CURVE",
"150 649 LINE",
"147 789 OFFCURVE",
"266 857 OFFCURVE",
"372 857 CURVE SMOOTH",
"523 857 OFFCURVE",
"596 773 OFFCURVE",
"596 691 CURVE SMOOTH",
"596 593 OFFCURVE",
"481 506 OFFCURVE",
"348 506 CURVE SMOOTH",
"269 506 LINE",
"269 446 LINE",
"348 446 LINE SMOOTH",
"516 446 OFFCURVE",
"623 366 OFFCURVE",
"623 240 CURVE SMOOTH",
"623 124 OFFCURVE",
"522 47 OFFCURVE",
"370 47 CURVE SMOOTH",
"239 47 OFFCURVE",
"147 124 OFFCURVE",
"133 246 CURVE",
"68 246 LINE",
"73 98 OFFCURVE",
"198 -11 OFFCURVE",
"364 -14 CURVE SMOOTH"
);
}
);
width = 756;
}
);
leftKerningGroup = zero.dnom;
leftMetricsKey = three.numr;
rightKerningGroup = zero.dnom;
rightMetricsKey = three.numr;
},
{
color = 6;
glyphname = four.dnom;
layers = (
{
layerId = "258ED206-D907-4350-8EBA-CBDDA1C16BF7";
paths = (
{
closed = 1;
nodes = (
"682 3 LINE",
"682 177 LINE",
"813 177 LINE",
"813 376 LINE",
"682 376 LINE",
"682 912 LINE",
"444 912 LINE",
"39 367 LINE",
"39 177 LINE",
"449 177 LINE",
"448 3 LINE"
);
},
{
closed = 1;
nodes = (
"451 629 LINE",
"451 376 LINE",
"261 376 LINE"
);
}
);
width = 852;
},
{
layerId = "91AB5BCA-6A50-42DA-B2F7-8181BF189245";
paths = (
{
closed = 1;
nodes = (
"542 1 LINE",
"542 261 LINE",
"701 261 LINE",
"701 321 LINE",
"542 321 LINE",
"542 911 LINE",
"479 911 LINE",
"49 328 LINE",
"49 261 LINE",
"481 261 LINE",
"481 1 LINE"
);
},
{
closed = 1;
nodes = (
"477 808 LINE",
"477 321 LINE",
"115 321 LINE"
);
}
);
width = 750;
}
);
leftMetricsKey = four.numr;
rightMetricsKey = four.numr;
},
{
color = 6;
glyphname = five.dnom;
layers = (
{
layerId = "258ED206-D907-4350-8EBA-CBDDA1C16BF7";
paths = (
{
closed = 1;
nodes = (
"692 -12 OFFCURVE",
"837 102 OFFCURVE",
"837 297 CURVE SMOOTH",
"837 484 OFFCURVE",
"702 594 OFFCURVE",
"505 594 CURVE SMOOTH",
"442 594 OFFCURVE",
"399 582 OFFCURVE",
"326 562 CURVE",
"340 713 LINE",
"764 713 LINE",
"774 910 LINE",
"152 910 LINE",
"110 458 LINE",
"276 369 LINE SMOOTH",
"294 360 OFFCURVE",
"295 360 OFFCURVE",
"312 367 CURVE SMOOTH",
"367 391 OFFCURVE",
"396 400 OFFCURVE",
"436 400 CURVE SMOOTH",
"530 400 OFFCURVE",
"582 345 OFFCURVE",
"582 288 CURVE SMOOTH",
"582 228 OFFCURVE",
"522 179 OFFCURVE",
"432 179 CURVE SMOOTH",
"334 179 OFFCURVE",
"286 237 OFFCURVE",
"232 306 CURVE",
"49 183 LINE",
"116 71 OFFCURVE",
"271 -12 OFFCURVE",
"461 -12 CURVE SMOOTH"
);
}
);
width = 886;
},
{
layerId = "91AB5BCA-6A50-42DA-B2F7-8181BF189245";
paths = (
{
closed = 1;
nodes = (
"568 -13 OFFCURVE",
"691 112 OFFCURVE",
"691 300 CURVE SMOOTH",
"691 496 OFFCURVE",
"544 596 OFFCURVE",
"398 596 CURVE SMOOTH",
"298 596 OFFCURVE",
"221 566 OFFCURVE",
"171 506 CURVE",
"197 851 LINE",
"643 851 LINE",
"643 910 LINE",
"137 910 LINE",
"96 420 LINE",
"162 420 LINE",
"162 420 OFFCURVE",
"162 420 OFFCURVE",
"162 417 CURVE",
"237 523 OFFCURVE",
"305 537 OFFCURVE",
"398 537 CURVE SMOOTH",
"518 537 OFFCURVE",
"628 449 OFFCURVE",
"628 299 CURVE SMOOTH",
"628 141 OFFCURVE",
"535 45 OFFCURVE",
"386 45 CURVE SMOOTH",
"262 45 OFFCURVE",
"162 121 OFFCURVE",
"124 246 CURVE",
"58 246 LINE",
"92 90 OFFCURVE",
"223 -13 OFFCURVE",
"383 -13 CURVE SMOOTH"
);
}
);
width = 749;
}
);
leftMetricsKey = five.numr;
rightMetricsKey = five.numr;
},
{
color = 6;
glyphname = six.dnom;
layers = (
{
layerId = "258ED206-D907-4350-8EBA-CBDDA1C16BF7";
paths = (
{
closed = 1;
nodes = (
"665 -8 OFFCURVE",
"822 121 OFFCURVE",
"822 296 CURVE SMOOTH",
"822 456 OFFCURVE",
"695 567 OFFCURVE",
"505 567 CURVE SMOOTH",
"439 567 OFFCURVE",
"372 555 OFFCURVE",
"322 525 CURVE",
"303 631 OFFCURVE",
"357 733 OFFCURVE",
"461 733 CURVE SMOOTH",
"525 733 OFFCURVE",
"565 704 OFFCURVE",
"585 636 CURVE",
"807 636 LINE",
"807 816 OFFCURVE",
"643 921 OFFCURVE",
"455 921 CURVE SMOOTH",
"208 921 OFFCURVE",
"49 739 OFFCURVE",
"49 433 CURVE SMOOTH",
"49 169 OFFCURVE",
"198 -8 OFFCURVE",
"450 -8 CURVE SMOOTH"
);
},
{
closed = 1;
nodes = (
"369 169 OFFCURVE",
"320 218 OFFCURVE",
"320 324 CURVE",
"320 346 OFFCURVE",
"384 390 OFFCURVE",
"440 390 CURVE SMOOTH",
"499 390 OFFCURVE",
"565 363 OFFCURVE",
"565 285 CURVE SMOOTH",
"565 217 OFFCURVE",
"504 169 OFFCURVE",
"439 169 CURVE SMOOTH"
);
}
);
width = 871;
},
{
layerId = "91AB5BCA-6A50-42DA-B2F7-8181BF189245";
paths = (
{
closed = 1;
nodes = (
"554 -12 OFFCURVE",
"664 109 OFFCURVE",
"664 300 CURVE SMOOTH",
"664 485 OFFCURVE",
"552 599 OFFCURVE",
"370 599 CURVE SMOOTH",
"254 599 OFFCURVE",
"153 526 OFFCURVE",
"117 417 CURVE",
"112 714 OFFCURVE",
"203 864 OFFCURVE",
"388 864 CURVE SMOOTH",
"493 864 OFFCURVE",
"574 803 OFFCURVE",
"600 705 CURVE",
"660 705 LINE",
"633 838 OFFCURVE",
"526 923 OFFCURVE",
"388 923 CURVE SMOOTH",
"177 923 OFFCURVE",
"58 749 OFFCURVE",
"58 445 CURVE SMOOTH",
"58 161 OFFCURVE",
"178 -12 OFFCURVE",
"375 -12 CURVE SMOOTH"
);
},
{
closed = 1;
nodes = (
"240 49 OFFCURVE",
"143 163 OFFCURVE",
"146 322 CURVE SMOOTH",
"147 439 OFFCURVE",
"250 538 OFFCURVE",
"377 538 CURVE SMOOTH",
"520 538 OFFCURVE",
"598 453 OFFCURVE",
"598 298 CURVE SMOOTH",
"598 149 OFFCURVE",
"511 49 OFFCURVE",
"379 49 CURVE SMOOTH"
);
}
);
width = 722;
}
);
leftKerningGroup = zero.dnom;
leftMetricsKey = six.numr;
rightKerningGroup = zero.dnom;
rightMetricsKey = six.numr;
},
{
color = 6;
glyphname = seven.dnom;
layers = (
{
layerId = "258ED206-D907-4350-8EBA-CBDDA1C16BF7";
paths = (
{
closed = 1;
nodes = (
"469 0 LINE",
"463 224 OFFCURVE",
"628 573 OFFCURVE",
"756 713 CURVE",
"756 910 LINE",
"39 910 LINE",
"39 713 LINE",
"506 713 LINE",
"278 438 OFFCURVE",
"206 131 OFFCURVE",
"206 0 CURVE"
);
}
);
width = 775;
},
{
layerId = "91AB5BCA-6A50-42DA-B2F7-8181BF189245";
paths = (
{
closed = 1;
nodes = (
"273 -2 LINE",
"307 166 OFFCURVE",
"471 589 OFFCURVE",
"650 852 CURVE",
"650 908 LINE",
"49 908 LINE",
"49 849 LINE",
"573 849 LINE",
"376 539 OFFCURVE",
"248 179 OFFCURVE",
"209 -2 CURVE"
);
}
);
width = 679;
}
);
leftMetricsKey = seven.numr;
rightMetricsKey = seven.numr;
},
{
color = 6;
glyphname = eight.dnom;
layers = (
{
layerId = "258ED206-D907-4350-8EBA-CBDDA1C16BF7";
paths = (
{
closed = 1;
nodes = (
"674 -9 OFFCURVE",
"828 91 OFFCURVE",
"828 259 CURVE SMOOTH",
"828 362 OFFCURVE",
"742 454 OFFCURVE",
"665 472 CURVE",
"732 507 OFFCURVE",
"790 571 OFFCURVE",
"790 660 CURVE SMOOTH",
"790 831 OFFCURVE",
"642 921 OFFCURVE",
"444 921 CURVE SMOOTH",
"246 921 OFFCURVE",
"98 831 OFFCURVE",
"98 660 CURVE SMOOTH",
"98 571 OFFCURVE",
"156 507 OFFCURVE",
"223 472 CURVE",
"146 454 OFFCURVE",
"59 362 OFFCURVE",
"59 259 CURVE SMOOTH",
"59 91 OFFCURVE",
"214 -9 OFFCURVE",
"444 -9 CURVE SMOOTH"
);
},
{
closed = 1;
nodes = (
"363 167 OFFCURVE",
"318 207 OFFCURVE",
"318 268 CURVE SMOOTH",
"318 330 OFFCURVE",
"363 371 OFFCURVE",
"444 371 CURVE SMOOTH",
"524 371 OFFCURVE",
"569 330 OFFCURVE",
"569 268 CURVE SMOOTH",
"569 207 OFFCURVE",
"524 167 OFFCURVE",
"444 167 CURVE SMOOTH"
);
},
{
closed = 1;
nodes = (
"386 562 OFFCURVE",
"340 602 OFFCURVE",
"340 664 CURVE SMOOTH",
"340 727 OFFCURVE",
"386 766 OFFCURVE",
"444 766 CURVE SMOOTH",
"502 766 OFFCURVE",
"549 727 OFFCURVE",
"549 664 CURVE SMOOTH",
"549 602 OFFCURVE",
"502 562 OFFCURVE",
"444 562 CURVE SMOOTH"
);
}
);
width = 887;
},
{
layerId = "91AB5BCA-6A50-42DA-B2F7-8181BF189245";
paths = (
{
closed = 1;
nodes = (
"598 -12 OFFCURVE",
"730 91 OFFCURVE",
"730 246 CURVE SMOOTH",
"730 348 OFFCURVE",
"645 455 OFFCURVE",
"548 481 CURVE",
"642 521 OFFCURVE",
"688 586 OFFCURVE",
"688 679 CURVE SMOOTH",
"688 825 OFFCURVE",
"571 923 OFFCURVE",
"398 923 CURVE SMOOTH",
"226 923 OFFCURVE",
"108 825 OFFCURVE",
"108 679 CURVE SMOOTH",
"108 586 OFFCURVE",
"155 521 OFFCURVE",
"250 481 CURVE",
"153 455 OFFCURVE",
"68 348 OFFCURVE",
"68 246 CURVE SMOOTH",
"68 91 OFFCURVE",
"199 -12 OFFCURVE",
"398 -12 CURVE SMOOTH"
);
},
{
closed = 1;
nodes = (
"238 47 OFFCURVE",
"134 125 OFFCURVE",
"134 242 CURVE SMOOTH",
"134 362 OFFCURVE",
"242 446 OFFCURVE",
"398 446 CURVE SMOOTH",
"555 446 OFFCURVE",
"664 362 OFFCURVE",
"664 242 CURVE SMOOTH",
"664 125 OFFCURVE",
"559 47 OFFCURVE",
"398 47 CURVE SMOOTH"
);
},
{
closed = 1;
nodes = (
"256 512 OFFCURVE",
"174 574 OFFCURVE",
"174 682 CURVE SMOOTH",
"174 791 OFFCURVE",
"262 863 OFFCURVE",
"398 863 CURVE SMOOTH",
"535 863 OFFCURVE",
"622 792 OFFCURVE",
"622 682 CURVE SMOOTH",
"622 574 OFFCURVE",
"541 512 OFFCURVE",
"398 512 CURVE SMOOTH"
);
}
);
width = 798;
}
);
leftKerningGroup = zero.dnom;
leftMetricsKey = eight.numr;
rightKerningGroup = zero.dnom;
rightMetricsKey = eight.numr;
},
{
color = 6;
glyphname = nine.dnom;
layers = (
{
layerId = "258ED206-D907-4350-8EBA-CBDDA1C16BF7";
paths = (
{
closed = 1;
nodes = (
"656 -12 OFFCURVE",
"816 133 OFFCURVE",
"816 476 CURVE SMOOTH",
"816 741 OFFCURVE",
"668 918 OFFCURVE",
"416 918 CURVE SMOOTH",
"201 918 OFFCURVE",
"49 789 OFFCURVE",
"49 613 CURVE SMOOTH",
"49 442 OFFCURVE",
"188 330 OFFCURVE",
"377 330 CURVE SMOOTH",
"467 330 OFFCURVE",
"529 354 OFFCURVE",
"570 395 CURVE",
"586 229 OFFCURVE",
"502 177 OFFCURVE",
"398 177 CURVE SMOOTH",
"335 177 OFFCURVE",
"294 214 OFFCURVE",
"284 274 CURVE",
"54 274 LINE",
"56 102 OFFCURVE",
"221 -12 OFFCURVE",
"410 -12 CURVE SMOOTH"
);
},
{
closed = 1;
nodes = (
"367 519 OFFCURVE",
"311 554 OFFCURVE",
"311 625 CURVE SMOOTH",
"311 694 OFFCURVE",
"362 741 OFFCURVE",
"427 741 CURVE SMOOTH",
"497 741 OFFCURVE",
"546 692 OFFCURVE",
"546 585 CURVE",
"546 564 OFFCURVE",
"481 519 OFFCURVE",
"425 519 CURVE SMOOTH"
);
}
);
width = 865;
},
{
layerId = "91AB5BCA-6A50-42DA-B2F7-8181BF189245";
paths = (
{
closed = 1;
nodes = (
"548 -15 OFFCURVE",
"671 162 OFFCURVE",
"671 462 CURVE SMOOTH",
"671 745 OFFCURVE",
"551 920 OFFCURVE",
"354 920 CURVE SMOOTH",
"177 920 OFFCURVE",
"67 800 OFFCURVE",
"67 608 CURVE SMOOTH",
"67 424 OFFCURVE",
"179 309 OFFCURVE",
"359 309 CURVE SMOOTH",
"477 309 OFFCURVE",
"576 382 OFFCURVE",
"612 491 CURVE",
"616 197 OFFCURVE",
"521 44 OFFCURVE",
"335 44 CURVE SMOOTH",
"229 44 OFFCURVE",
"144 107 OFFCURVE",
"118 201 CURVE",
"58 201 LINE",
"84 71 OFFCURVE",
"194 -15 OFFCURVE",
"335 -15 CURVE SMOOTH"
);
},
{
closed = 1;
nodes = (
"210 369 OFFCURVE",
"132 453 OFFCURVE",
"132 610 CURVE SMOOTH",
"132 760 OFFCURVE",
"220 859 OFFCURVE",
"351 859 CURVE SMOOTH",
"489 859 OFFCURVE",
"587 744 OFFCURVE",
"584 587 CURVE SMOOTH",
"582 468 OFFCURVE",
"479 369 OFFCURVE",
"353 369 CURVE SMOOTH"
);
}
);
width = 729;
}
);
leftMetricsKey = nine.numr;
rightMetricsKey = nine.numr;
},
{
color = 6;
glyphname = zero.numr;
layers = (
{
layerId = "258ED206-D907-4350-8EBA-CBDDA1C16BF7";
paths = (
{
closed = 1;
nodes = (
"662 526 OFFCURVE",
"797 694 OFFCURVE",
"797 989 CURVE SMOOTH",
"797 1285 OFFCURVE",
"658 1459 OFFCURVE",
"425 1459 CURVE SMOOTH",
"189 1459 OFFCURVE",
"49 1285 OFFCURVE",
"49 989 CURVE SMOOTH",
"49 694 OFFCURVE",
"186 526 OFFCURVE",
"425 526 CURVE SMOOTH"
);
},
{
closed = 1;
nodes = (
"334 718 OFFCURVE",
"302 790 OFFCURVE",
"302 987 CURVE SMOOTH",
"302 1191 OFFCURVE",
"335 1271 OFFCURVE",
"423 1271 CURVE SMOOTH",
"511 1271 OFFCURVE",
"544 1192 OFFCURVE",
"544 987 CURVE SMOOTH",
"544 789 OFFCURVE",
"514 718 OFFCURVE",
"423 718 CURVE SMOOTH"
);
}
);
width = 846;
},
{
layerId = "91AB5BCA-6A50-42DA-B2F7-8181BF189245";
paths = (
{
closed = 1;
nodes = (
"548 523 OFFCURVE",
"655 692 OFFCURVE",
"655 988 CURVE SMOOTH",
"655 1287 OFFCURVE",
"548 1458 OFFCURVE",
"356 1458 CURVE SMOOTH",
"166 1458 OFFCURVE",
"58 1286 OFFCURVE",
"58 985 CURVE SMOOTH",
"58 689 OFFCURVE",
"164 523 OFFCURVE",
"355 523 CURVE SMOOTH"
);
},
{
closed = 1;
nodes = (
"202 584 OFFCURVE",
"123 721 OFFCURVE",
"123 988 CURVE SMOOTH",
"123 1259 OFFCURVE",
"202 1397 OFFCURVE",
"356 1397 CURVE SMOOTH",
"511 1397 OFFCURVE",
"588 1261 OFFCURVE",
"588 988 CURVE SMOOTH",
"588 718 OFFCURVE",
"512 584 OFFCURVE",
"358 584 CURVE SMOOTH"
);
}
);
width = 713;
}
);
leftKerningGroup = zero.numr;
rightKerningGroup = zero.numr;
},
{
color = 6;
glyphname = one.numr;
layers = (
{
layerId = "258ED206-D907-4350-8EBA-CBDDA1C16BF7";
paths = (
{
closed = 1;
nodes = (
"436 536 LINE",
"436 1446 LINE",
"278 1446 LINE",
"265 1364 OFFCURVE",
"189 1307 OFFCURVE",
"39 1307 CURVE",
"39 1179 LINE",
"190 1179 LINE",
"190 536 LINE"
);
}
);
width = 543;
},
{
layerId = "91AB5BCA-6A50-42DA-B2F7-8181BF189245";
paths = (
{
closed = 1;
nodes = (
"300 536 LINE",
"300 1446 LINE",
"246 1446 LINE",
"247 1370 OFFCURVE",
"212 1352 OFFCURVE",
"49 1353 CURVE",
"49 1294 LINE",
"236 1294 LINE",
"236 536 LINE"
);
}
);
width = 446;
}
);
leftKerningGroup = onehalf;
rightKerningGroup = onehalf;
},
{
color = 6;
glyphname = two.numr;
layers = (
{
layerId = "258ED206-D907-4350-8EBA-CBDDA1C16BF7";
paths = (
{
closed = 1;
nodes = (
"775 538 LINE",
"775 740 LINE",
"326 740 LINE",
"326 740 LINE SMOOTH",
"326 885 OFFCURVE",
"781 853 OFFCURVE",
"781 1171 CURVE SMOOTH",
"781 1343 OFFCURVE",
"647 1460 OFFCURVE",
"423 1460 CURVE SMOOTH",
"163 1460 OFFCURVE",
"39 1316 OFFCURVE",
"39 1127 CURVE",
"270 1127 LINE",
"288 1227 OFFCURVE",
"351 1263 OFFCURVE",
"418 1263 CURVE SMOOTH",
"485 1263 OFFCURVE",
"525 1222 OFFCURVE",
"525 1168 CURVE SMOOTH",
"525 1014 OFFCURVE",
"53 1021 OFFCURVE",
"53 701 CURVE SMOOTH",
"53 646 LINE",
"53 538 LINE"
);
}
);
width = 830;
},
{
layerId = "91AB5BCA-6A50-42DA-B2F7-8181BF189245";
paths = (
{
closed = 1;
nodes = (
"625 536 LINE",
"625 597 LINE",
"135 597 LINE",
"135 619 LINE SMOOTH",
"135 907 OFFCURVE",
"614 881 OFFCURVE",
"614 1214 CURVE SMOOTH",
"614 1360 OFFCURVE",
"507 1458 OFFCURVE",
"345 1458 CURVE SMOOTH",
"156 1458 OFFCURVE",
"51 1331 OFFCURVE",
"49 1188 CURVE",
"112 1188 LINE",
"116 1314 OFFCURVE",
"205 1396 OFFCURVE",
"340 1396 CURVE SMOOTH",
"469 1396 OFFCURVE",
"553 1324 OFFCURVE",
"553 1215 CURVE SMOOTH",
"553 929 OFFCURVE",
"71 950 OFFCURVE",
"71 619 CURVE SMOOTH",
"71 592 LINE",
"71 536 LINE"
);
}
);
width = 683;
}
);
leftKerningGroup = zero.numr;
leftMetricsKey = one.numr;
rightMetricsKey = zero.numr;
},
{
color = 6;
glyphname = three.numr;
layers = (
{
layerId = "258ED206-D907-4350-8EBA-CBDDA1C16BF7";
paths = (
{
closed = 1;
nodes = (
"645 526 OFFCURVE",
"834 613 OFFCURVE",
"834 803 CURVE SMOOTH",
"834 931 OFFCURVE",
"741 992 OFFCURVE",
"656 1015 CURVE",
"773 1054 OFFCURVE",
"816 1119 OFFCURVE",
"816 1209 CURVE SMOOTH",
"816 1390 OFFCURVE",
"650 1461 OFFCURVE",
"435 1461 CURVE SMOOTH",
"221 1461 OFFCURVE",
"59 1368 OFFCURVE",
"59 1156 CURVE",
"289 1156 LINE",
"299 1252 OFFCURVE",
"351 1277 OFFCURVE",
"428 1277 CURVE SMOOTH",
"493 1277 OFFCURVE",
"557 1254 OFFCURVE",
"557 1197 CURVE SMOOTH",
"557 1141 OFFCURVE",
"515 1110 OFFCURVE",
"437 1104 CURVE SMOOTH",
"357 1098 LINE",
"357 909 LINE",
"449 904 LINE SMOOTH",
"527 900 OFFCURVE",
"575 862 OFFCURVE",
"575 813 CURVE SMOOTH",
"575 758 OFFCURVE",
"523 718 OFFCURVE",
"430 718 CURVE SMOOTH",
"366 718 OFFCURVE",
"309 743 OFFCURVE",
"290 838 CURVE",
"59 838 LINE",
"59 641 OFFCURVE",
"184 526 OFFCURVE",
"430 526 CURVE SMOOTH"
);
}
);
width = 893;
},
{
layerId = "91AB5BCA-6A50-42DA-B2F7-8181BF189245";
paths = (
{
closed = 1;
nodes = (
"557 523 OFFCURVE",
"688 628 OFFCURVE",
"688 784 CURVE SMOOTH",
"688 898 OFFCURVE",
"617 982 OFFCURVE",
"491 1021 CURVE",
"598 1063 OFFCURVE",
"659 1140 OFFCURVE",
"659 1231 CURVE SMOOTH",
"659 1367 OFFCURVE",
"544 1458 OFFCURVE",
"369 1458 CURVE SMOOTH",
"207 1458 OFFCURVE",
"84 1342 OFFCURVE",
"86 1189 CURVE",
"150 1189 LINE",
"147 1329 OFFCURVE",
"266 1397 OFFCURVE",
"372 1397 CURVE SMOOTH",
"523 1397 OFFCURVE",
"596 1313 OFFCURVE",
"596 1231 CURVE SMOOTH",
"596 1133 OFFCURVE",
"481 1046 OFFCURVE",
"348 1046 CURVE SMOOTH",
"269 1046 LINE",
"269 986 LINE",
"348 986 LINE SMOOTH",
"516 986 OFFCURVE",
"623 906 OFFCURVE",
"623 780 CURVE SMOOTH",
"623 664 OFFCURVE",
"522 587 OFFCURVE",
"370 587 CURVE SMOOTH",
"239 587 OFFCURVE",
"147 664 OFFCURVE",
"133 786 CURVE",
"68 786 LINE",
"73 638 OFFCURVE",
"198 529 OFFCURVE",
"364 526 CURVE SMOOTH"
);
}
);
width = 756;
}
);
leftKerningGroup = zero.numr;
leftMetricsKey = eight.numr;
rightKerningGroup = zero.numr;
rightMetricsKey = eight.numr;
},
{
color = 6;
glyphname = four.numr;
layers = (
{
layerId = "258ED206-D907-4350-8EBA-CBDDA1C16BF7";
paths = (
{
closed = 1;
nodes = (
"682 538 LINE",
"682 712 LINE",
"813 712 LINE",
"813 911 LINE",
"682 911 LINE",
"682 1447 LINE",
"444 1447 LINE",
"39 902 LINE",
"39 712 LINE",
"449 712 LINE",
"448 538 LINE"
);
},
{
closed = 1;
nodes = (
"451 1164 LINE",
"451 911 LINE",
"261 911 LINE"
);
}
);
width = 852;
},
{
layerId = "91AB5BCA-6A50-42DA-B2F7-8181BF189245";
paths = (
{
closed = 1;
nodes = (
"542 536 LINE",
"542 796 LINE",
"701 796 LINE",
"701 856 LINE",
"542 856 LINE",
"542 1446 LINE",
"479 1446 LINE",
"49 863 LINE",
"49 796 LINE",
"481 796 LINE",
"481 536 LINE"
);
},
{
closed = 1;
nodes = (
"477 1343 LINE",
"477 856 LINE",
"115 856 LINE"
);
}
);
width = 750;
}
);
leftKerningGroup = one.numr;
leftMetricsKey = one.numr;
rightKerningGroup = one.numr;
rightMetricsKey = "=|one.numr";
},
{
color = 6;
glyphname = five.numr;
layers = (
{
layerId = "258ED206-D907-4350-8EBA-CBDDA1C16BF7";
paths = (
{
closed = 1;
nodes = (
"692 524 OFFCURVE",
"837 638 OFFCURVE",
"837 833 CURVE SMOOTH",
"837 1020 OFFCURVE",
"702 1130 OFFCURVE",
"505 1130 CURVE SMOOTH",
"442 1130 OFFCURVE",
"399 1118 OFFCURVE",
"326 1098 CURVE",
"340 1249 LINE",
"764 1249 LINE",
"774 1446 LINE",
"152 1446 LINE",
"110 994 LINE",
"276 905 LINE SMOOTH",
"294 896 OFFCURVE",
"295 896 OFFCURVE",
"312 903 CURVE SMOOTH",
"367 927 OFFCURVE",
"396 936 OFFCURVE",
"436 936 CURVE SMOOTH",
"530 936 OFFCURVE",
"582 881 OFFCURVE",
"582 824 CURVE SMOOTH",
"582 764 OFFCURVE",
"522 715 OFFCURVE",
"432 715 CURVE SMOOTH",
"334 715 OFFCURVE",
"286 773 OFFCURVE",
"232 842 CURVE",
"49 719 LINE",
"116 607 OFFCURVE",
"271 524 OFFCURVE",
"461 524 CURVE SMOOTH"
);
}
);
width = 886;
},
{
layerId = "91AB5BCA-6A50-42DA-B2F7-8181BF189245";
paths = (
{
closed = 1;
nodes = (
"568 523 OFFCURVE",
"691 648 OFFCURVE",
"691 836 CURVE SMOOTH",
"691 1032 OFFCURVE",
"544 1132 OFFCURVE",
"398 1132 CURVE SMOOTH",
"298 1132 OFFCURVE",
"221 1102 OFFCURVE",
"171 1042 CURVE",
"197 1387 LINE",
"643 1387 LINE",
"643 1446 LINE",
"137 1446 LINE",
"96 956 LINE",
"162 956 LINE",
"162 956 OFFCURVE",
"162 956 OFFCURVE",
"162 953 CURVE",
"237 1059 OFFCURVE",
"305 1073 OFFCURVE",
"398 1073 CURVE SMOOTH",
"518 1073 OFFCURVE",
"628 985 OFFCURVE",
"628 835 CURVE SMOOTH",
"628 677 OFFCURVE",
"535 581 OFFCURVE",
"386 581 CURVE SMOOTH",
"262 581 OFFCURVE",
"162 657 OFFCURVE",
"124 782 CURVE",
"58 782 LINE",
"92 626 OFFCURVE",
"223 523 OFFCURVE",
"383 523 CURVE SMOOTH"
);
}
);
width = 749;
}
);
leftKerningGroup = zero.numr;
leftMetricsKey = zero.numr;
rightKerningGroup = zero.numr;
rightMetricsKey = zero.numr;
},
{
color = 6;
glyphname = six.numr;
layers = (
{
layerId = "258ED206-D907-4350-8EBA-CBDDA1C16BF7";
paths = (
{
closed = 1;
nodes = (
"665 527 OFFCURVE",
"822 656 OFFCURVE",
"822 831 CURVE SMOOTH",
"822 991 OFFCURVE",
"695 1102 OFFCURVE",
"505 1102 CURVE SMOOTH",
"439 1102 OFFCURVE",
"372 1090 OFFCURVE",
"322 1060 CURVE",
"303 1166 OFFCURVE",
"357 1268 OFFCURVE",
"461 1268 CURVE SMOOTH",
"525 1268 OFFCURVE",
"565 1239 OFFCURVE",
"585 1171 CURVE",
"807 1171 LINE",
"807 1351 OFFCURVE",
"643 1456 OFFCURVE",
"455 1456 CURVE SMOOTH",
"208 1456 OFFCURVE",
"49 1274 OFFCURVE",
"49 968 CURVE SMOOTH",
"49 704 OFFCURVE",
"198 527 OFFCURVE",
"450 527 CURVE SMOOTH"
);
},
{
closed = 1;
nodes = (
"369 704 OFFCURVE",
"320 753 OFFCURVE",
"320 859 CURVE",
"320 881 OFFCURVE",
"384 925 OFFCURVE",
"440 925 CURVE SMOOTH",
"499 925 OFFCURVE",
"565 898 OFFCURVE",
"565 820 CURVE SMOOTH",
"565 752 OFFCURVE",
"504 704 OFFCURVE",
"439 704 CURVE SMOOTH"
);
}
);
width = 871;
},
{
layerId = "91AB5BCA-6A50-42DA-B2F7-8181BF189245";
paths = (
{
closed = 1;
nodes = (
"554 523 OFFCURVE",
"664 644 OFFCURVE",
"664 835 CURVE SMOOTH",
"664 1020 OFFCURVE",
"552 1134 OFFCURVE",
"370 1134 CURVE SMOOTH",
"254 1134 OFFCURVE",
"153 1061 OFFCURVE",
"117 952 CURVE",
"112 1249 OFFCURVE",
"203 1399 OFFCURVE",
"388 1399 CURVE SMOOTH",
"493 1399 OFFCURVE",
"574 1338 OFFCURVE",
"600 1240 CURVE",
"660 1240 LINE",
"633 1373 OFFCURVE",
"526 1458 OFFCURVE",
"388 1458 CURVE SMOOTH",
"177 1458 OFFCURVE",
"58 1284 OFFCURVE",
"58 980 CURVE SMOOTH",
"58 696 OFFCURVE",
"178 523 OFFCURVE",
"375 523 CURVE SMOOTH"
);
},
{
closed = 1;
nodes = (
"240 584 OFFCURVE",
"143 698 OFFCURVE",
"146 857 CURVE SMOOTH",
"147 974 OFFCURVE",
"250 1073 OFFCURVE",
"377 1073 CURVE SMOOTH",
"520 1073 OFFCURVE",
"598 988 OFFCURVE",
"598 833 CURVE SMOOTH",
"598 684 OFFCURVE",
"511 584 OFFCURVE",
"379 584 CURVE SMOOTH"
);
}
);
width = 722;
}
);
leftKerningGroup = zero.numr;
leftMetricsKey = zero.numr;
rightKerningGroup = zero.numr;
rightMetricsKey = zero.numr;
},
{
color = 6;
glyphname = seven.numr;
layers = (
{
layerId = "258ED206-D907-4350-8EBA-CBDDA1C16BF7";
paths = (
{
closed = 1;
nodes = (
"469 538 LINE",
"463 762 OFFCURVE",
"628 1111 OFFCURVE",
"756 1251 CURVE",
"756 1448 LINE",
"39 1448 LINE",
"39 1251 LINE",
"506 1251 LINE",
"278 976 OFFCURVE",
"206 669 OFFCURVE",
"206 538 CURVE"
);
}
);
width = 775;
},
{
layerId = "91AB5BCA-6A50-42DA-B2F7-8181BF189245";
paths = (
{
closed = 1;
nodes = (
"273 536 LINE",
"307 704 OFFCURVE",
"471 1127 OFFCURVE",
"650 1390 CURVE",
"650 1446 LINE",
"49 1446 LINE",
"49 1387 LINE",
"573 1387 LINE",
"376 1077 OFFCURVE",
"248 717 OFFCURVE",
"209 536 CURVE"
);
}
);
width = 679;
}
);
leftMetricsKey = one.numr;
rightMetricsKey = "=|one.numr-20";
},
{
color = 6;
glyphname = eight.numr;
layers = (
{
layerId = "258ED206-D907-4350-8EBA-CBDDA1C16BF7";
paths = (
{
closed = 1;
nodes = (
"674 526 OFFCURVE",
"828 626 OFFCURVE",
"828 794 CURVE SMOOTH",
"828 897 OFFCURVE",
"742 989 OFFCURVE",
"665 1007 CURVE",
"732 1042 OFFCURVE",
"790 1106 OFFCURVE",
"790 1195 CURVE SMOOTH",
"790 1366 OFFCURVE",
"642 1456 OFFCURVE",
"444 1456 CURVE SMOOTH",
"246 1456 OFFCURVE",
"98 1366 OFFCURVE",
"98 1195 CURVE SMOOTH",
"98 1106 OFFCURVE",
"156 1042 OFFCURVE",
"223 1007 CURVE",
"146 989 OFFCURVE",
"59 897 OFFCURVE",
"59 794 CURVE SMOOTH",
"59 626 OFFCURVE",
"214 526 OFFCURVE",
"444 526 CURVE SMOOTH"
);
},
{
closed = 1;
nodes = (
"363 702 OFFCURVE",
"318 742 OFFCURVE",
"318 803 CURVE SMOOTH",
"318 865 OFFCURVE",
"363 906 OFFCURVE",
"444 906 CURVE SMOOTH",
"524 906 OFFCURVE",
"569 865 OFFCURVE",
"569 803 CURVE SMOOTH",
"569 742 OFFCURVE",
"524 702 OFFCURVE",
"444 702 CURVE SMOOTH"
);
},
{
closed = 1;
nodes = (
"386 1097 OFFCURVE",
"340 1137 OFFCURVE",
"340 1199 CURVE SMOOTH",
"340 1262 OFFCURVE",
"386 1301 OFFCURVE",
"444 1301 CURVE SMOOTH",
"502 1301 OFFCURVE",
"549 1262 OFFCURVE",
"549 1199 CURVE SMOOTH",
"549 1137 OFFCURVE",
"502 1097 OFFCURVE",
"444 1097 CURVE SMOOTH"
);
}
);
width = 887;
},
{
layerId = "91AB5BCA-6A50-42DA-B2F7-8181BF189245";
paths = (
{
closed = 1;
nodes = (
"598 523 OFFCURVE",
"730 626 OFFCURVE",
"730 781 CURVE SMOOTH",
"730 883 OFFCURVE",
"645 990 OFFCURVE",
"548 1016 CURVE",
"642 1056 OFFCURVE",
"688 1121 OFFCURVE",
"688 1214 CURVE SMOOTH",
"688 1360 OFFCURVE",
"571 1458 OFFCURVE",
"398 1458 CURVE SMOOTH",
"226 1458 OFFCURVE",
"108 1360 OFFCURVE",
"108 1214 CURVE SMOOTH",
"108 1121 OFFCURVE",
"155 1056 OFFCURVE",
"250 1016 CURVE",
"153 990 OFFCURVE",
"68 883 OFFCURVE",
"68 781 CURVE SMOOTH",
"68 626 OFFCURVE",
"199 523 OFFCURVE",
"398 523 CURVE SMOOTH"
);
},
{
closed = 1;
nodes = (
"238 582 OFFCURVE",
"134 660 OFFCURVE",
"134 777 CURVE SMOOTH",
"134 897 OFFCURVE",
"242 981 OFFCURVE",
"398 981 CURVE SMOOTH",
"555 981 OFFCURVE",
"664 897 OFFCURVE",
"664 777 CURVE SMOOTH",
"664 660 OFFCURVE",
"559 582 OFFCURVE",
"398 582 CURVE SMOOTH"
);
},
{
closed = 1;
nodes = (
"256 1047 OFFCURVE",
"174 1109 OFFCURVE",
"174 1217 CURVE SMOOTH",
"174 1326 OFFCURVE",
"262 1398 OFFCURVE",
"398 1398 CURVE SMOOTH",
"535 1398 OFFCURVE",
"622 1327 OFFCURVE",
"622 1217 CURVE SMOOTH",
"622 1109 OFFCURVE",
"541 1047 OFFCURVE",
"398 1047 CURVE SMOOTH"
);
}
);
width = 798;
}
);
leftKerningGroup = zero.numr;
leftMetricsKey = "=zero.numr+10";
rightKerningGroup = zero.numr;
rightMetricsKey = "=zero.numr+10";
},
{
color = 6;
glyphname = nine.numr;
layers = (
{
layerId = "258ED206-D907-4350-8EBA-CBDDA1C16BF7";
paths = (
{
closed = 1;
nodes = (
"656 526 OFFCURVE",
"816 671 OFFCURVE",
"816 1014 CURVE SMOOTH",
"816 1279 OFFCURVE",
"668 1456 OFFCURVE",
"416 1456 CURVE SMOOTH",
"201 1456 OFFCURVE",
"49 1327 OFFCURVE",
"49 1151 CURVE SMOOTH",
"49 980 OFFCURVE",
"188 868 OFFCURVE",
"377 868 CURVE SMOOTH",
"467 868 OFFCURVE",
"529 892 OFFCURVE",
"570 933 CURVE",
"586 767 OFFCURVE",
"502 715 OFFCURVE",
"398 715 CURVE SMOOTH",
"335 715 OFFCURVE",
"294 752 OFFCURVE",
"284 812 CURVE",
"54 812 LINE",
"56 640 OFFCURVE",
"221 526 OFFCURVE",
"410 526 CURVE SMOOTH"
);
},
{
closed = 1;
nodes = (
"367 1057 OFFCURVE",
"311 1092 OFFCURVE",
"311 1163 CURVE SMOOTH",
"311 1232 OFFCURVE",
"362 1279 OFFCURVE",
"427 1279 CURVE SMOOTH",
"497 1279 OFFCURVE",
"546 1230 OFFCURVE",
"546 1123 CURVE",
"546 1102 OFFCURVE",
"481 1057 OFFCURVE",
"425 1057 CURVE SMOOTH"
);
}
);
width = 865;
},
{
layerId = "91AB5BCA-6A50-42DA-B2F7-8181BF189245";
paths = (
{
closed = 1;
nodes = (
"548 523 OFFCURVE",
"671 700 OFFCURVE",
"671 1000 CURVE SMOOTH",
"671 1283 OFFCURVE",
"551 1458 OFFCURVE",
"354 1458 CURVE SMOOTH",
"177 1458 OFFCURVE",
"67 1338 OFFCURVE",
"67 1146 CURVE SMOOTH",
"67 962 OFFCURVE",
"179 847 OFFCURVE",
"359 847 CURVE SMOOTH",
"477 847 OFFCURVE",
"576 920 OFFCURVE",
"612 1029 CURVE",
"616 735 OFFCURVE",
"521 582 OFFCURVE",
"335 582 CURVE SMOOTH",
"229 582 OFFCURVE",
"144 645 OFFCURVE",
"118 739 CURVE",
"58 739 LINE",
"84 609 OFFCURVE",
"194 523 OFFCURVE",
"335 523 CURVE SMOOTH"
);
},
{
closed = 1;
nodes = (
"210 907 OFFCURVE",
"132 991 OFFCURVE",
"132 1148 CURVE SMOOTH",
"132 1298 OFFCURVE",
"220 1397 OFFCURVE",
"351 1397 CURVE SMOOTH",
"489 1397 OFFCURVE",
"587 1282 OFFCURVE",
"584 1125 CURVE SMOOTH",
"582 1006 OFFCURVE",
"479 907 OFFCURVE",
"353 907 CURVE SMOOTH"
);
}
);
width = 729;
}
);
leftKerningGroup = zero.numr;
leftMetricsKey = zero.numr;
rightKerningGroup = zero.numr;
rightMetricsKey = zero.numr;
},
{
color = 6;
glyphname = fraction;
layers = (
{
layerId = "258ED206-D907-4350-8EBA-CBDDA1C16BF7";
paths = (
{
closed = 1;
nodes = (
"835 1462 LINE",
"622 1462 LINE",
"-352 -4 LINE",
"-137 -8 LINE"
);
}
);
width = 483;
},
{
layerId = "91AB5BCA-6A50-42DA-B2F7-8181BF189245";
paths = (
{
closed = 1;
nodes = (
"757 1462 LINE",
"684 1462 LINE",
"-293 -8 LINE",
"-215 -8 LINE"
);
}
);
width = 454;
}
);
unicode = 2044;
},
{
color = 6;
glyphname = period;
layers = (
{
layerId = "258ED206-D907-4350-8EBA-CBDDA1C16BF7";
paths = (
{
closed = 1;
nodes = (
"500 0 LINE",
"500 392 LINE",
"90 392 LINE",
"90 0 LINE"
);
}
);
width = 620;
},
{
layerId = "91AB5BCA-6A50-42DA-B2F7-8181BF189245";
paths = (
{
closed = 1;
nodes = (
"241 0 LINE",
"241 154 LINE",
"120 154 LINE",
"120 0 LINE"
);
}
);
width = 361;
}
);
leftKerningGroup = period;
rightKerningGroup = period;
unicode = 002E;
},
{
color = 6;
glyphname = comma;
layers = (
{
layerId = "258ED206-D907-4350-8EBA-CBDDA1C16BF7";
paths = (
{
closed = 1;
nodes = (
"228 -306 LINE",
"458 40 LINE",
"458 340 LINE",
"104 340 LINE",
"104 2 LINE",
"220 -12 LINE",
"100 -306 LINE"
);
}
);
width = 618;
},
{
layerId = "91AB5BCA-6A50-42DA-B2F7-8181BF189245";
paths = (
{
closed = 1;
nodes = (
"144 -222 LINE",
"282 24 LINE",
"282 160 LINE",
"116 160 LINE",
"116 0 LINE",
"188 0 LINE",
"80 -222 LINE"
);
}
);
width = 412;
}
);
leftKerningGroup = period;
rightKerningGroup = period;
unicode = 002C;
},
{
color = 6;
glyphname = colon;
layers = (
{
layerId = "258ED206-D907-4350-8EBA-CBDDA1C16BF7";
paths = (
{
closed = 1;
nodes = (
"500 640 LINE",
"500 1024 LINE",
"90 1024 LINE",
"90 640 LINE"
);
},
{
closed = 1;
nodes = (
"500 6 LINE",
"500 390 LINE",
"90 390 LINE",
"90 6 LINE"
);
}
);
width = 620;
},
{
layerId = "91AB5BCA-6A50-42DA-B2F7-8181BF189245";
paths = (
{
closed = 1;
nodes = (
"242 820 LINE",
"242 976 LINE",
"120 976 LINE",
"120 820 LINE"
);
},
{
closed = 1;
nodes = (
"242 6 LINE",
"242 160 LINE",
"120 160 LINE",
"120 6 LINE"
);
}
);
width = 362;
}
);
leftKerningGroup = colon;
leftMetricsKey = period;
rightKerningGroup = period;
rightMetricsKey = period;
unicode = 003A;
},
{
color = 6;
glyphname = semicolon;
layers = (
{
layerId = "258ED206-D907-4350-8EBA-CBDDA1C16BF7";
paths = (
{
closed = 1;
nodes = (
"244 -330 LINE",
"506 44 LINE",
"506 386 LINE",
"96 386 LINE",
"96 0 LINE",
"236 0 LINE",
"90 -330 LINE"
);
},
{
closed = 1;
nodes = (
"506 626 LINE",
"506 1018 LINE",
"96 1018 LINE",
"96 626 LINE"
);
}
);
width = 626;
},
{
layerId = "91AB5BCA-6A50-42DA-B2F7-8181BF189245";
paths = (
{
closed = 1;
nodes = (
"162 -262 LINE",
"284 18 LINE",
"284 154 LINE",
"162 154 LINE",
"162 0 LINE",
"218 0 LINE",
"120 -262 LINE"
);
},
{
closed = 1;
nodes = (
"274 820 LINE",
"274 976 LINE",
"152 976 LINE",
"152 820 LINE"
);
}
);
width = 404;
}
);
leftKerningGroup = colon;
leftMetricsKey = colon;
rightKerningGroup = colon;
rightMetricsKey = colon;
unicode = 003B;
},
{
color = 6;
glyphname = exclam;
layers = (
{
layerId = "258ED206-D907-4350-8EBA-CBDDA1C16BF7";
paths = (
{
closed = 1;
nodes = (
"418 518 LINE",
"520 1446 LINE",
"70 1446 LINE",
"180 518 LINE"
);
},
{
closed = 1;
nodes = (
"500 0 LINE",
"500 384 LINE",
"90 384 LINE",
"90 0 LINE"
);
}
);
width = 620;
},
{
layerId = "91AB5BCA-6A50-42DA-B2F7-8181BF189245";
paths = (
{
closed = 1;
nodes = (
"252 288 LINE",
"272 1446 LINE",
"170 1446 LINE",
"188 288 LINE"
);
},
{
closed = 1;
nodes = (
"280 0 LINE",
"280 154 LINE",
"160 154 LINE",
"160 0 LINE"
);
}
);
width = 440;
}
);
unicode = 0021;
},
{
color = 6;
glyphname = exclamdown;
layers = (
{
layerId = "258ED206-D907-4350-8EBA-CBDDA1C16BF7";
paths = (
{
closed = 1;
nodes = (
"522 -322 LINE",
"416 514 LINE",
"180 514 LINE",
"70 -322 LINE"
);
},
{
closed = 1;
nodes = (
"500 650 LINE",
"500 1034 LINE",
"90 1034 LINE",
"90 650 LINE"
);
}
);
width = 622;
},
{
layerId = "91AB5BCA-6A50-42DA-B2F7-8181BF189245";
paths = (
{
closed = 1;
nodes = (
"272 -322 LINE",
"252 744 LINE",
"188 744 LINE",
"170 -322 LINE"
);
},
{
closed = 1;
nodes = (
"280 880 LINE",
"280 1034 LINE",
"160 1034 LINE",
"160 880 LINE"
);
}
);
width = 440;
}
);
leftMetricsKey = exclam;
rightMetricsKey = exclam;
unicode = 00A1;
},
{
color = 6;
glyphname = question;
layers = (
{
layerId = "258ED206-D907-4350-8EBA-CBDDA1C16BF7";
paths = (
{
closed = 1;
nodes = (
"670 524 LINE",
"670 804 OFFCURVE",
"1044 818 OFFCURVE",
"1044 1132 CURVE SMOOTH",
"1044 1308 OFFCURVE",
"842 1466 OFFCURVE",
"540 1466 CURVE SMOOTH",
"270 1466 OFFCURVE",
"86 1340 OFFCURVE",
"0 1102 CURVE",
"324 1032 LINE",
"368 1148 OFFCURVE",
"448 1212 OFFCURVE",
"536 1212 CURVE SMOOTH",
"604 1212 OFFCURVE",
"664 1172 OFFCURVE",
"664 1110 CURVE SMOOTH",
"664 956 OFFCURVE",
"366 884 OFFCURVE",
"366 524 CURVE"
);
},
{
closed = 1;
nodes = (
"722 0 LINE",
"722 384 LINE",
"312 384 LINE",
"312 0 LINE"
);
}
);
width = 1094;
},
{
layerId = "91AB5BCA-6A50-42DA-B2F7-8181BF189245";
paths = (
{
closed = 1;
nodes = (
"512 292 LINE",
"512 656 OFFCURVE",
"924 760 OFFCURVE",
"924 1112 CURVE SMOOTH",
"924 1328 OFFCURVE",
"764 1466 OFFCURVE",
"512 1466 CURVE SMOOTH",
"326 1466 OFFCURVE",
"154 1368 OFFCURVE",
"70 1216 CURVE",
"152 1178 LINE",
"196 1288 OFFCURVE",
"360 1384 OFFCURVE",
"512 1384 CURVE SMOOTH",
"708 1384 OFFCURVE",
"834 1280 OFFCURVE",
"834 1112 CURVE SMOOTH",
"834 788 OFFCURVE",
"430 682 OFFCURVE",
"430 292 CURVE"
);
},
{
closed = 1;
nodes = (
"532 0 LINE",
"532 154 LINE",
"412 154 LINE",
"412 0 LINE"
);
}
);
width = 1014;
}
);
leftKerningGroup = parenright;
rightMetricsKey = z;
unicode = 003F;
},
{
color = 6;
glyphname = questiondown;
layers = (
{
layerId = "258ED206-D907-4350-8EBA-CBDDA1C16BF7";
paths = (
{
closed = 1;
nodes = (
"844 -342 OFFCURVE",
"1028 -214 OFFCURVE",
"1114 24 CURVE",
"790 92 LINE",
"748 -14 OFFCURVE",
"666 -78 OFFCURVE",
"578 -78 CURVE SMOOTH",
"510 -78 OFFCURVE",
"450 -38 OFFCURVE",
"450 16 CURVE SMOOTH",
"450 172 OFFCURVE",
"748 230 OFFCURVE",
"748 528 CURVE",
"442 528 LINE",
"442 310 OFFCURVE",
"70 312 OFFCURVE",
"70 -6 CURVE SMOOTH",
"70 -184 OFFCURVE",
"232 -342 OFFCURVE",
"574 -342 CURVE SMOOTH"
);
},
{
closed = 1;
nodes = (
"802 650 LINE",
"802 1034 LINE",
"392 1034 LINE",
"392 650 LINE"
);
}
);
width = 1134;
},
{
layerId = "91AB5BCA-6A50-42DA-B2F7-8181BF189245";
paths = (
{
closed = 1;
nodes = (
"660 -342 OFFCURVE",
"830 -244 OFFCURVE",
"914 -92 CURVE",
"832 -52 LINE",
"788 -164 OFFCURVE",
"624 -260 OFFCURVE",
"472 -260 CURVE SMOOTH",
"276 -260 OFFCURVE",
"150 -154 OFFCURVE",
"150 14 CURVE SMOOTH",
"150 318 OFFCURVE",
"554 330 OFFCURVE",
"554 742 CURVE",
"472 742 LINE",
"472 358 OFFCURVE",
"60 348 OFFCURVE",
"60 14 CURVE SMOOTH",
"60 -202 OFFCURVE",
"220 -342 OFFCURVE",
"472 -342 CURVE SMOOTH"
);
},
{
closed = 1;
nodes = (
"574 880 LINE",
"574 1034 LINE",
"452 1034 LINE",
"452 880 LINE"
);
}
);
width = 984;
}
);
unicode = 00BF;
},
{
color = 6;
glyphname = periodcentered;
layers = (
{
layerId = "258ED206-D907-4350-8EBA-CBDDA1C16BF7";
paths = (
{
closed = 1;
nodes = (
"452 554 LINE",
"452 902 LINE",
"90 902 LINE",
"90 554 LINE"
);
}
);
width = 572;
},
{
layerId = "91AB5BCA-6A50-42DA-B2F7-8181BF189245";
paths = (
{
closed = 1;
nodes = (
"280 652 LINE",
"280 806 LINE",
"120 806 LINE",
"120 652 LINE"
);
}
);
width = 400;
}
);
leftKerningGroup = period;
leftMetricsKey = period;
rightKerningGroup = period;
rightMetricsKey = period;
unicode = 00B7;
},
{
color = 6;
glyphname = bullet;
layers = (
{
layerId = "258ED206-D907-4350-8EBA-CBDDA1C16BF7";
paths = (
{
closed = 1;
nodes = (
"536 434 OFFCURVE",
"672 570 OFFCURVE",
"672 736 CURVE SMOOTH",
"672 900 OFFCURVE",
"536 1036 OFFCURVE",
"370 1036 CURVE SMOOTH",
"204 1036 OFFCURVE",
"70 900 OFFCURVE",
"70 736 CURVE SMOOTH",
"70 570 OFFCURVE",
"204 434 OFFCURVE",
"370 434 CURVE SMOOTH"
);
}
);
width = 772;
},
{
layerId = "91AB5BCA-6A50-42DA-B2F7-8181BF189245";
paths = (
{
closed = 1;
nodes = (
"358 594 OFFCURVE",
"420 658 OFFCURVE",
"420 736 CURVE SMOOTH",
"420 814 OFFCURVE",
"358 876 OFFCURVE",
"280 876 CURVE SMOOTH",
"202 876 OFFCURVE",
"140 814 OFFCURVE",
"140 736 CURVE SMOOTH",
"140 658 OFFCURVE",
"202 594 OFFCURVE",
"280 594 CURVE SMOOTH"
);
}
);
width = 560;
}
);
unicode = 2022;
},
{
color = 6;
glyphname = asterisk;
layers = (
{
layerId = "258ED206-D907-4350-8EBA-CBDDA1C16BF7";
paths = (
{
closed = 1;
nodes = (
"532 840 LINE",
"706 548 LINE",
"906 686 LINE",
"688 942 LINE",
"1000 1026 LINE",
"930 1246 LINE",
"622 1108 LINE",
"656 1446 LINE",
"416 1446 LINE",
"442 1110 LINE",
"140 1248 LINE",
"60 1030 LINE",
"382 942 LINE",
"160 684 LINE",
"358 544 LINE"
);
}
);
width = 1090;
},
{
layerId = "91AB5BCA-6A50-42DA-B2F7-8181BF189245";
paths = (
{
closed = 1;
nodes = (
"328 1120 LINE",
"474 888 LINE",
"538 936 LINE",
"372 1146 LINE",
"600 1226 LINE",
"580 1288 LINE",
"354 1194 LINE",
"364 1446 LINE",
"282 1446 LINE",
"296 1194 LINE",
"72 1276 LINE",
"50 1212 LINE",
"282 1144 LINE",
"110 922 LINE",
"174 880 LINE"
);
}
);
width = 630;
}
);
unicode = 002A;
},
{
color = 6;
glyphname = numbersign;
layers = (
{
layerId = "258ED206-D907-4350-8EBA-CBDDA1C16BF7";
paths = (
{
closed = 1;
nodes = (
"1036 1432 LINE",
"848 1450 LINE",
"638 18 LINE",
"828 -6 LINE"
);
},
{
closed = 1;
nodes = (
"1132 432 LINE",
"1132 620 LINE",
"40 620 LINE",
"40 432 LINE"
);
},
{
closed = 1;
nodes = (
"598 1432 LINE",
"412 1450 LINE",
"202 18 LINE",
"390 -6 LINE"
);
},
{
closed = 1;
nodes = (
"1196 842 LINE",
"1196 1030 LINE",
"104 1030 LINE",
"104 842 LINE"
);
}
);
width = 1256;
},
{
layerId = "91AB5BCA-6A50-42DA-B2F7-8181BF189245";
paths = (
{
closed = 1;
nodes = (
"948 1438 LINE",
"874 1448 LINE",
"652 10 LINE",
"726 -2 LINE"
);
},
{
closed = 1;
nodes = (
"1026 488 LINE",
"1026 562 LINE",
"90 562 LINE",
"90 488 LINE"
);
},
{
closed = 1;
nodes = (
"552 1438 LINE",
"478 1448 LINE",
"256 10 LINE",
"330 -2 LINE"
);
},
{
closed = 1;
nodes = (
"1090 898 LINE",
"1090 972 LINE",
"154 972 LINE",
"154 898 LINE"
);
}
);
width = 1180;
}
);
unicode = 0023;
},
{
color = 6;
glyphname = slash;
layers = (
{
layerId = "258ED206-D907-4350-8EBA-CBDDA1C16BF7";
paths = (
{
closed = 1;
nodes = (
"278 0 LINE",
"788 1446 LINE",
"530 1446 LINE",
"20 0 LINE"
);
}
);
width = 818;
},
{
layerId = "91AB5BCA-6A50-42DA-B2F7-8181BF189245";
paths = (
{
closed = 1;
nodes = (
"114 -118 LINE",
"610 1446 LINE",
"526 1446 LINE",
"30 -118 LINE"
);
}
);
width = 640;
}
);
unicode = 002F;
},
{
color = 6;
glyphname = backslash;
layers = (
{
layerId = "258ED206-D907-4350-8EBA-CBDDA1C16BF7";
paths = (
{
closed = 1;
nodes = (
"788 0 LINE",
"278 1446 LINE",
"20 1446 LINE",
"530 0 LINE"
);
}
);
width = 818;
},
{
layerId = "91AB5BCA-6A50-42DA-B2F7-8181BF189245";
paths = (
{
closed = 1;
nodes = (
"610 -118 LINE",
"114 1446 LINE",
"30 1446 LINE",
"524 -118 LINE"
);
}
);
width = 640;
}
);
leftMetricsKey = slash;
rightMetricsKey = slash;
unicode = 005C;
},
{
color = 6;
glyphname = parenleft;
layers = (
{
layerId = "258ED206-D907-4350-8EBA-CBDDA1C16BF7";
paths = (
{
closed = 1;
nodes = (
"662 -322 LINE",
"516 -18 OFFCURVE",
"436 248 OFFCURVE",
"436 554 CURVE SMOOTH",
"436 874 OFFCURVE",
"522 1184 OFFCURVE",
"662 1446 CURVE",
"384 1446 LINE",
"212 1196 OFFCURVE",
"100 890 OFFCURVE",
"100 556 CURVE SMOOTH",
"100 212 OFFCURVE",
"216 -40 OFFCURVE",
"386 -322 CURVE"
);
}
);
width = 722;
},
{
layerId = "91AB5BCA-6A50-42DA-B2F7-8181BF189245";
paths = (
{
closed = 1;
nodes = (
"470 -208 LINE",
"330 88 OFFCURVE",
"256 370 OFFCURVE",
"256 668 CURVE SMOOTH",
"256 982 OFFCURVE",
"360 1302 OFFCURVE",
"494 1560 CURVE",
"446 1560 LINE",
"280 1314 OFFCURVE",
"160 998 OFFCURVE",
"160 670 CURVE SMOOTH",
"160 332 OFFCURVE",
"260 72 OFFCURVE",
"422 -208 CURVE"
);
}
);
width = 544;
}
);
unicode = 0028;
},
